<?xml version="1.0" encoding="UTF-8"?>
<svg width="65px" height="65px" viewBox="0 0 65 65" version="1.1" xmlns="http://www.w3.org/2000/svg" xmlns:xlink="http://www.w3.org/1999/xlink">
    <!-- Generator: sketchtool 48.2 (47327) - http://www.bohemiancoding.com/sketch -->
    <title>843B7BEB-4D88-4F6A-9530-065341581E5E</title>
    <desc>Created with sketchtool.</desc>
    <defs></defs>
    <g id="Palette" stroke="none" stroke-width="1" fill="none" fill-rule="evenodd" transform="translate(-1926.000000, -600.000000)">
        <g id="Group-Copy" transform="translate(1929.000000, 203.000000)" fill="#A902B6">
            <g id="Menu/Order-form/Active" transform="translate(0.000000, 400.000000)">
                <path d="M43.1562689,53.3593037 C32.8182689,59.2783037 20.2182689,57.7183037 11.6352689,50.4023037 C13.6362689,48.7473037 16.0772689,49.0163037 19.9592689,49.6213037 C21.8782689,49.9103037 23.5482689,50.6263037 25.3162689,51.3823037 C26.5922689,51.9283037 27.9112689,52.4943037 29.3542689,52.8983037 C31.1822689,53.3913037 33.0292689,53.6393037 34.8632689,53.6393037 C35.5892689,53.6393037 36.3122689,53.6003037 37.0312689,53.5233037 C41.1782689,53.1513037 45.0842689,51.7463037 48.4272689,49.4463037 C46.8502689,50.9373037 45.0882689,52.2543037 43.1562689,53.3593037 M5.62826888,43.1563037 C-1.90573112,29.9973037 2.67226888,13.1623037 15.8322689,5.6283037 C18.4082689,4.1533037 21.1262689,3.1483037 23.8862689,2.5763037 C23.2442689,3.6413037 22.7762689,4.8513037 22.3952689,6.3543037 C21.7312689,9.0053037 21.7692689,11.7943037 22.4992689,14.4043037 C24.1272689,20.5323037 27.9152689,22.4073037 32.7122689,24.7793037 L32.7942689,24.8203037 C34.8932689,25.8883037 36.8302689,28.7573037 36.4392689,32.6693037 C34.5932689,32.6993037 33.0462689,33.4273037 32.1082689,34.7383037 C31.1432689,36.0863037 30.9812689,37.8543037 31.6832689,39.3533037 C32.1122689,40.2683037 32.9472689,40.9703037 34.0362689,41.3313037 C34.5582689,41.5043037 35.1132689,41.5883037 35.6752689,41.5883037 C36.5922689,41.5883037 37.5232689,41.3613037 38.3502689,40.9163037 C41.6412689,39.0603037 41.9532689,35.1523037 41.9002689,32.3923037 C41.9002689,29.8413037 41.3112689,27.5303037 40.1772689,25.5803037 C41.1802689,25.5753037 42.2502689,25.3893037 43.1332689,24.9493037 C44.2012689,24.4173037 45.8372689,23.0913037 45.4622689,20.0543037 C47.4122689,19.0593037 48.1552689,17.7963037 48.8882689,15.6933037 L49.0592689,15.2023037 L48.7562689,14.7793037 C48.0142689,13.7513037 46.4972689,12.1253037 44.1362689,11.7543037 C44.0812689,10.9633037 43.7442689,10.1763037 43.1712689,9.5873037 C42.5352689,8.9343037 41.6942689,8.6183037 40.7892689,8.6373037 C40.3902689,7.4053037 39.4292689,6.3593037 38.1812689,5.8713037 C36.2982689,5.1143037 34.4712689,5.3753037 33.2892689,6.5643037 C32.2782689,7.5843037 31.9652689,9.0693037 32.4902689,10.3473037 C32.7612689,11.0063037 33.6562689,12.4893037 36.2502689,12.6923037 C36.7962689,13.6883037 36.4042689,14.7513037 35.8482689,15.4053037 C34.9002689,16.5243037 32.8462689,17.3003037 30.2002689,15.8153037 C28.9992689,15.1233037 28.1172689,13.9473037 27.5772689,12.3223037 C27.2692689,10.7403037 27.3042689,9.1483037 27.6782689,7.6023037 C28.2362689,5.4133037 29.4172689,3.5353037 31.1482689,2.0573037 C40.0862689,2.6103037 48.5892689,7.4963037 53.3592689,15.8313037 C54.4422689,17.7223037 55.2812689,19.7073037 55.8852689,21.7463037 C57.0662689,27.4833037 56.1372689,32.9843037 53.0802689,38.1753037 C51.7412689,40.4503037 48.7602689,42.7993037 47.1592689,44.0623037 L46.8552689,44.3013037 C44.1902689,46.4593037 39.2652689,46.9063037 36.3232689,47.1733037 C32.7692689,47.4963037 29.3352689,46.6813037 26.3922689,44.8203037 C23.0072689,42.6393037 19.6962689,38.6773037 20.5602689,34.1073037 C20.7542689,33.1423037 21.1792689,31.9633037 22.1112689,31.1383037 C22.3072689,31.7573037 22.6912689,32.3853037 23.3842689,33.1213037 C24.1452689,33.8373037 25.2482689,34.2253037 26.4122689,34.1733037 C27.6012689,34.1263037 28.6742689,33.6373037 29.4372689,32.7923037 C30.4812689,31.6183037 30.8872689,30.1783037 30.5812689,28.7373037 C30.2072689,26.9813037 28.8402689,25.4163037 26.9152689,24.5463037 C25.1912689,23.7873037 22.9052689,23.6393037 21.3592689,24.1883037 C17.8782689,25.4223037 15.3402689,28.5923037 14.5722689,32.6643037 C13.9132689,36.0683037 14.5242689,39.5633037 16.3412689,42.8773037 C13.6652689,42.8223037 11.2242689,43.5763037 9.66026888,45.0183037 C9.05626888,45.5763037 8.59026888,46.2273037 8.25426888,46.9533037 C7.29026888,45.7803037 6.40726888,44.5163037 5.62826888,43.1563037 M57.6992689,13.3463037 C48.7962689,-2.2046963 28.9002689,-7.6146963 13.3472689,1.2883037 C-2.20473112,10.1923037 -7.61473112,30.0883037 1.28826888,45.6403037 C7.28526888,56.1143037 18.2652689,61.9873037 29.5492689,61.9873037 C35.0192689,61.9873037 40.5622689,60.6063037 45.6402689,57.6993037 C53.1752689,53.3853037 58.5782689,46.3973037 60.8552689,38.0203037 C63.1332689,29.6423037 62.0112689,20.8803037 57.6992689,13.3463037" id="Fill-3"></path>
            </g>
        </g>
    </g>
</svg>