<?xml version="1.0" encoding="UTF-8"?>
<svg width="100px" height="100px" viewBox="0 0 100 100" version="1.1" xmlns="http://www.w3.org/2000/svg" xmlns:xlink="http://www.w3.org/1999/xlink">
    <!-- Generator: sketchtool 48.2 (47327) - http://www.bohemiancoding.com/sketch -->
    <title>42095D66-A524-4E8B-9A4D-D26F1B17BB68</title>
    <desc>Created with sketchtool.</desc>
    <defs></defs>
    <g id="-g-Nano-grafin_Raduga_site_v01_04" stroke="none" stroke-width="1" fill="none" fill-rule="evenodd" transform="translate(-870.000000, -216.000000)">
        <g id="Page-1-Copy-2" transform="translate(470.000000, 216.000000)" fill="#81D4FA" fill-rule="nonzero">
            <path d="M450,100 C422.385763,100 400,77.6142375 400,50 C400,22.3857625 422.385763,0 450,0 C477.614237,0 500,22.3857625 500,50 C500,77.6142375 477.614237,100 450,100 Z M450,98.5465116 C476.811498,98.5465116 498.546512,76.811498 498.546512,50 C498.546512,23.188502 476.811498,1.45348837 450,1.45348837 C423.188502,1.45348837 401.453488,23.188502 401.453488,50 C401.453488,76.811498 423.188502,98.5465116 450,98.5465116 Z M493.895349,64.0988372 L493.313953,65.7703488 L492.659884,67.4418605 L490.697674,66.6424419 L491.27907,65.0436047 L491.860465,63.4447674 L493.895349,64.0988372 Z M495.421512,57.8488372 C495.203488,59.0116279 494.985465,60.1744186 494.622093,61.3372093 L492.514535,60.8284884 C492.805233,59.7383721 493.09593,58.5755814 493.241279,57.4854651 L495.421512,57.8488372 Z M496.075581,51.4534884 C496.075581,52.1075581 496.002907,52.6889535 496.002907,53.125 C495.930233,53.7790698 495.930233,54.3604651 495.857558,54.9418605 L493.677326,54.7238372 C493.75,54.2151163 493.75,53.6337209 493.822674,53.0523256 C493.895349,52.5436047 493.895349,51.9622093 493.895349,51.380814 L496.075581,51.4534884 Z M484.375,80.7412791 C484.011628,81.1773256 483.575581,81.6133721 483.139535,82.122093 C482.776163,82.5581395 482.340116,82.9215116 481.90407,83.3575581 L480.377907,81.7587209 C480.813953,81.3226744 481.25,80.9593023 481.613372,80.5232558 C481.976744,80.0872093 482.412791,79.7238372 482.776163,79.2877907 L484.375,80.7412791 Z M488.299419,75.6540698 C487.645349,76.5988372 486.991279,77.6162791 486.19186,78.5610465 L484.447674,77.1802326 C485.174419,76.3081395 485.828488,75.3633721 486.482558,74.4186047 L488.299419,75.6540698 Z M491.497093,70.130814 C490.988372,71.1482558 490.406977,72.2383721 489.825581,73.255814 L487.936047,72.1656977 C488.517442,71.2209302 489.026163,70.2034884 489.534884,69.1860465 L491.497093,70.130814 Z M468.895349,92.0784884 C467.877907,92.5872093 466.715116,92.9505814 465.625,93.4593023 L464.898256,91.4244186 C465.915698,90.9883721 467.005814,90.625 468.023256,90.1162791 L468.895349,92.0784884 Z M474.563953,89.0261628 C474.055233,89.3168605 473.546512,89.6075581 473.037791,89.9709302 C472.456395,90.2616279 471.947674,90.5523256 471.438953,90.8430233 L470.421512,88.880814 C471.002907,88.6627907 471.438953,88.372093 471.947674,88.0813953 C472.456395,87.7906977 472.892442,87.5 473.401163,87.2093023 L474.563953,89.0261628 Z M479.723837,85.247093 C479.287791,85.6104651 478.851744,85.9738372 478.415698,86.3372093 C477.906977,86.7005814 477.47093,87.0639535 476.962209,87.4273256 L475.65407,85.6831395 C476.162791,85.3924419 476.598837,85.0290698 477.034884,84.6656977 C477.47093,84.3023256 477.906977,83.9389535 478.343023,83.5755814 L479.723837,85.247093 Z M450.218023,96.0755814 C448.982558,96.0755814 447.819767,96.0755814 446.656977,95.9302326 L446.802326,93.75 C447.965116,93.8953488 449.055233,93.8953488 450.218023,93.8953488 L450.218023,96.0755814 Z M456.613372,95.6395349 L454.796512,95.8575581 L453.052326,96.002907 L452.906977,93.8226744 L454.578488,93.6773256 L456.322674,93.4593023 L456.613372,95.6395349 Z M462.863372,94.2587209 C461.700581,94.622093 460.537791,94.9127907 459.375,95.0581395 L458.938953,92.9505814 C460.101744,92.7325581 461.19186,92.5145349 462.281977,92.1511628 L462.863372,94.2587209 Z M431.395349,92.2238372 C430.886628,91.9331395 430.305233,91.7151163 429.796512,91.4244186 L428.197674,90.625 L429.215116,88.7354651 L430.741279,89.5348837 C431.25,89.8255814 431.758721,90.0436047 432.267442,90.2616279 L431.395349,92.2238372 Z M437.5,94.4040698 C436.337209,94.0406977 435.174419,93.6773256 434.084302,93.3139535 L434.811047,91.2790698 C435.901163,91.6424419 436.991279,92.005814 438.081395,92.2965116 L437.5,94.4040698 Z M443.75,95.6395349 C443.168605,95.6395349 442.587209,95.494186 442.005814,95.3488372 C441.424419,95.2034884 440.843023,95.130814 440.261628,94.9854651 L440.697674,92.877907 C441.27907,92.9505814 441.787791,93.0959302 442.369186,93.1686047 C442.950581,93.3139535 443.459302,93.3866279 444.040698,93.4593023 L443.75,95.6395349 Z M415.843023,80.9593023 C415.116279,80.0872093 414.31686,79.2151163 413.517442,78.1976744 L415.261628,76.8895349 C415.915698,77.7616279 416.715116,78.6337209 417.44186,79.505814 L415.843023,80.9593023 Z M420.494186,85.4651163 L419.113372,84.3023256 C418.677326,83.8662791 418.241279,83.502907 417.805233,83.0668605 L419.331395,81.5406977 C419.767442,81.9040698 420.130814,82.3401163 420.56686,82.7034884 L421.875,83.7936047 L420.494186,85.4651163 Z M425.726744,89.1715116 L424.200581,88.2267442 L422.747093,87.2093023 L424.055233,85.3924419 L425.436047,86.4098837 L426.889535,87.3546512 L425.726744,89.1715116 Z M406.25,64.4622093 C406.031977,63.880814 405.886628,63.2994186 405.668605,62.7906977 C405.523256,62.2093023 405.377907,61.627907 405.232558,61.0465116 L407.340116,60.5377907 C407.485465,61.119186 407.630814,61.627907 407.776163,62.2093023 C407.921512,62.7180233 408.06686,63.2994186 408.284884,63.8081395 L406.25,64.4622093 Z M408.648256,70.3488372 C408.357558,69.8401163 408.139535,69.3313953 407.921512,68.75 C407.630814,68.1686047 407.412791,67.6598837 407.194767,67.0784884 L409.229651,66.2790698 C409.447674,66.8604651 409.665698,67.369186 409.883721,67.877907 C410.101744,68.3866279 410.319767,68.8953488 410.610465,69.4040698 L408.648256,70.3488372 Z M411.84593,75.9447674 C411.19186,74.9273256 410.537791,73.9098837 409.956395,72.8924419 L411.84593,71.8023256 C412.427326,72.8197674 413.008721,73.7645349 413.662791,74.7093023 L411.84593,75.9447674 Z M404.142442,45.3488372 C404.287791,44.1860465 404.43314,43.0232558 404.651163,41.8604651 L406.831395,42.2238372 C406.613372,43.3139535 406.468023,44.4040698 406.322674,45.5668605 L404.142442,45.3488372 Z M403.924419,51.8168605 L403.924419,50 L403.924419,48.1831395 L406.104651,48.3284884 L406.104651,50 L406.104651,51.744186 L403.924419,51.8168605 Z M404.651163,58.1395349 C404.43314,56.9767442 404.287791,55.8139535 404.142442,54.5784884 L406.322674,54.3604651 C406.468023,55.5232558 406.613372,56.6860465 406.831395,57.7761628 L404.651163,58.1395349 Z M410.02907,27.1075581 C410.610465,26.0901163 411.264535,25.0726744 411.918605,24.0552326 L413.735465,25.2906977 C413.081395,26.2354651 412.5,27.1802326 411.918605,28.1976744 L410.02907,27.1075581 Z M407.194767,32.9215116 C407.412791,32.3401163 407.630814,31.8313953 407.921512,31.25 C408.139535,30.7412791 408.357558,30.1598837 408.648256,29.6511628 L410.610465,30.5959302 C410.319767,31.1046512 410.101744,31.6133721 409.883721,32.122093 C409.665698,32.630814 409.447674,33.2122093 409.229651,33.7209302 L407.194767,32.9215116 Z M405.232558,39.0261628 C405.377907,38.4447674 405.523256,37.8633721 405.741279,37.3546512 C405.886628,36.7732558 406.031977,36.1918605 406.25,35.6104651 L408.284884,36.2645349 C408.06686,36.7732558 407.921512,37.2819767 407.776163,37.8633721 C407.630814,38.4447674 407.485465,38.9534884 407.340116,39.5348837 L405.232558,39.0261628 Z M422.747093,12.8633721 L424.200581,11.7732558 L425.726744,10.8284884 L426.889535,12.7180233 L425.436047,13.5901163 L424.055233,14.6075581 L422.747093,12.8633721 Z M417.877907,17.005814 C418.313953,16.5697674 418.75,16.1337209 419.186047,15.7703488 L420.56686,14.6075581 L421.947674,16.2790698 L420.639535,17.369186 C420.203488,17.7325581 419.840116,18.1686047 419.40407,18.5319767 L417.877907,17.005814 Z M413.590116,21.7296512 C414.31686,20.7848837 415.116279,19.9127907 415.915698,18.9680233 L417.514535,20.4215116 C416.787791,21.2936047 415.988372,22.0930233 415.334302,23.0377907 L413.590116,21.7296512 Z M440.261628,4.94186047 C440.843023,4.79651163 441.424419,4.72383721 442.005814,4.57848837 C442.587209,4.43313953 443.168605,4.36046512 443.75,4.2877907 L444.040698,6.46802326 C443.459302,6.54069767 442.950581,6.68604651 442.369186,6.75872093 C441.787791,6.83139535 441.27907,6.90406977 440.697674,7.0494186 L440.261628,4.94186047 Z M434.084302,6.75872093 C435.174419,6.39534884 436.337209,5.95930233 437.5,5.66860465 L438.081395,7.77616279 C436.991279,8.06686047 435.901163,8.43023256 434.811047,8.79360465 L434.084302,6.75872093 Z M428.270349,9.375 L429.869186,8.50290698 C430.377907,8.28488372 430.959302,7.99418605 431.468023,7.77616279 L432.340116,9.73837209 C431.831395,9.95639535 431.322674,10.247093 430.813953,10.4651163 L429.287791,11.2645349 L428.270349,9.375 Z M459.447674,4.86918605 C460.610465,5.15988372 461.773256,5.37790698 462.936047,5.66860465 L462.354651,7.77616279 C461.264535,7.48546512 460.101744,7.19476744 459.011628,6.97674419 L459.447674,4.86918605 Z M453.052326,3.99709302 L454.869186,4.14244186 L456.613372,4.43313953 L456.322674,6.54069767 L454.578488,6.32267442 L452.906977,6.17732558 L453.052326,3.99709302 Z M446.656977,4.06976744 C447.819767,3.9244186 449.055233,3.9244186 450.218023,3.9244186 L450.218023,6.10465116 C449.055233,6.17732558 447.965116,6.10465116 446.802326,6.25 L446.656977,4.06976744 Z M476.962209,12.6453488 C477.47093,12.9360465 477.906977,13.2994186 478.343023,13.6627907 C478.77907,14.0988372 479.287791,14.3895349 479.723837,14.8255814 L478.343023,16.497093 C477.906977,16.1337209 477.47093,15.7703488 477.034884,15.4069767 C476.598837,15.0436047 476.090116,14.6802326 475.65407,14.3895349 L476.962209,12.6453488 Z M471.511628,9.22965116 C472.020349,9.52034884 472.52907,9.81104651 473.110465,10.1017442 C473.619186,10.3924419 474.127907,10.6831395 474.636628,11.0465116 L473.473837,12.8633721 C473.037791,12.5726744 472.52907,12.2819767 472.020349,11.9912791 C471.511628,11.7732558 471.002907,11.4098837 470.494186,11.1918605 L471.511628,9.22965116 Z M465.625,6.61337209 C466.787791,7.0494186 467.877907,7.48546512 468.895349,7.99418605 L468.023256,9.95639535 C467.005814,9.44767442 465.988372,9.08430233 464.898256,8.64825581 L465.625,6.61337209 Z M489.825581,26.8168605 C490.479651,27.8343023 490.988372,28.9244186 491.497093,29.9418605 L489.534884,30.8866279 C489.026163,29.869186 488.517442,28.8517442 487.936047,27.9069767 L489.825581,26.8168605 Z M486.19186,21.5116279 C486.991279,22.4563953 487.645349,23.4011628 488.299419,24.4186047 L486.482558,25.6540698 C485.828488,24.7093023 485.174419,23.7645349 484.447674,22.8924419 L486.19186,21.5116279 Z M481.90407,16.7877907 C482.340116,17.1511628 482.776163,17.5872093 483.139535,18.0959302 C483.575581,18.5319767 484.011628,18.9680233 484.375,19.4040698 L482.776163,20.8575581 C482.412791,20.4215116 481.976744,20.0581395 481.613372,19.622093 C481.177326,19.1860465 480.813953,18.75 480.377907,18.3866279 L481.90407,16.7877907 Z M495.857558,44.9854651 C495.930233,45.6395349 495.930233,46.2209302 496.002907,46.6569767 C496.075581,47.3110465 496.075581,47.8924419 496.075581,48.4738372 L493.895349,48.5465116 C493.895349,48.0377907 493.895349,47.4563953 493.822674,46.875 C493.75,46.3662791 493.75,45.7848837 493.677326,45.2034884 L495.857558,44.9854651 Z M494.694767,38.6627907 L495.05814,40.4069767 C495.203488,40.9883721 495.276163,41.5697674 495.421512,42.1511628 L493.241279,42.5145349 C493.168605,41.9331395 493.09593,41.4244186 492.950581,40.8430233 L492.587209,39.1715116 L494.694767,38.6627907 Z M492.659884,32.630814 L493.313953,34.3023256 L493.895349,35.9738372 L491.860465,36.627907 L491.27907,35.0290698 L490.697674,33.4302326 L492.659884,32.630814 Z M488.89697,45.4360656 C489.921212,48.4262295 489.921212,51.7311475 488.89697,54.8786885 C488.266667,56.8459016 486.060606,58.0262295 484.327273,58.0262295 L475.030303,58.104918 L475.109091,58.1836066 L471.090909,65.1868852 L468.018182,64.242623 C467.70303,64.6360656 467.309091,65.0295082 466.915152,65.4229508 L467.939394,68.4918033 L460.927273,72.504918 L459.036364,70.3803279 C458.406061,70.6163934 457.775758,70.7737705 457.145455,70.9311475 L456.515152,73.842623 L448.4,73.842623 L447.848485,71.1672131 C447.139394,71.0885246 446.430303,70.9311475 445.8,70.695082 L443.909091,72.8196721 L436.89697,68.8065574 L437.763636,66.2098361 C437.290909,65.7377049 436.818182,65.2655738 436.345455,64.7934426 L433.587879,65.6590164 L429.569697,58.6557377 L431.775758,56.6885246 C431.539394,56.1377049 431.460606,55.5081967 431.30303,54.957377 L428.230303,54.3278689 L428.230303,53.3836066 L425.078788,53.3836066 L422.478788,55.5868852 L412,53.304918 L412,47.5606557 L422.478788,45.2786885 L425.078788,47.3245902 L428.309091,47.3245902 L428.309091,46.2229508 L431.539394,45.5147541 C431.618182,45.042623 431.775758,44.5704918 431.933333,44.0983607 L429.333333,41.7377049 L433.351515,34.7344262 L436.89697,35.8360656 C437.133333,35.6 437.369697,35.2852459 437.684848,35.0491803 L436.50303,31.3508197 L443.515152,27.3377049 L446.193939,30.3278689 C446.509091,30.2491803 446.745455,30.1704918 447.060606,30.0918033 L447.927273,26 L456.042424,26 L456.909091,30.0918033 C457.145455,30.0918033 457.381818,30.1704918 457.618182,30.2491803 L460.533333,27.0229508 L467.545455,31.0360656 L466.284848,34.9704918 L466.836364,35.5213115 L470.854545,34.1836066 L474.872727,41.1868852 L473.454545,42.4459016 L484.248485,42.3672131 C485.981818,42.3672131 488.187879,43.547541 488.89697,45.4360656 Z M486.769697,54.0918033 C487.636364,51.495082 487.557576,48.7409836 486.690909,46.2229508 C486.375758,45.4360656 485.193939,44.6491803 484.248485,44.6491803 L463.527273,44.8065574 C463.133333,44.8065574 462.818182,44.9639344 462.581818,45.2 L462.581818,55.3508197 C462.818182,55.6655738 463.212121,55.8229508 463.606061,55.8229508 L484.327273,55.6655738 C485.193939,55.6655738 486.454545,54.957377 486.769697,54.0918033 Z M456.987879,55.7442623 L458.406061,55.7442623 C459.036364,55.7442623 459.824242,55.3508197 460.375758,54.8 L460.29697,45.7508197 C459.824242,45.2 458.957576,44.8065574 458.327273,44.8065574 L456.436364,44.8065574 L455.175758,44.8065574 L453.363636,44.8065574 L452.49697,44.8065574 L452.49697,45.6721311 L452.49697,54.4852459 L452.49697,54.8786885 L452.49697,55.7442623 L455.175758,55.7442623 L456.987879,55.7442623 Z M450.212121,53.2262295 C450.212121,53.2262295 443.121212,53.2262295 443.2,53.304918 C444.381818,57.1606557 447.927273,59.8360656 452.10303,59.8360656 C454.072727,59.8360656 455.963636,59.2065574 457.539394,58.104918 L456.909091,58.104918 L455.254545,58.104918 L452.575758,58.104918 C451.866667,58.104918 451.315152,57.8688525 450.921212,57.4754098 C450.212121,56.7672131 450.212121,55.8229508 450.212121,54.8786885 L450.212121,53.2262295 Z M443.278788,47.1672131 L450.133333,47.1672131 L450.133333,46.0655738 L450.133333,45.6721311 C450.133333,44.7278689 450.133333,43.7836066 450.842424,43.0754098 C451.236364,42.6819672 451.787879,42.4459016 452.49697,42.4459016 L453.284848,42.4459016 L455.09697,42.4459016 L455.412121,42.4459016 L456.436364,42.4459016 L456.593939,42.4459016 C455.254545,41.6590164 453.6,41.1868852 451.945455,41.1868852 C448.084848,41.1868852 444.618182,43.6262295 443.278788,47.1672131 Z M450.212121,49.4491803 L442.806061,49.4491803 C442.727273,49.7639344 442.727273,50.157377 442.727273,50.4721311 L442.727273,50.9442623 L450.212121,50.9442623 L450.212121,49.4491803 Z M470.066667,62.3540984 L472.272727,58.5770492 L471.327273,57.8688525 L463.290909,57.947541 C462.50303,57.947541 461.715152,57.6327869 461.084848,57.1606557 C458.878788,60.1508197 455.412121,61.9606557 451.709091,61.9606557 C446.036364,61.9606557 441.230303,57.8688525 440.284848,52.2819672 C440.206061,51.652459 440.127273,51.0229508 440.127273,50.3934426 C440.127273,49.4491803 440.206061,48.5836066 440.442424,47.7180328 C441.70303,42.4459016 446.351515,38.747541 451.787879,38.747541 C455.412121,38.747541 458.8,40.4 461.006061,43.3114754 C461.636364,42.7606557 462.50303,42.4459016 463.369697,42.4459016 L469.830303,42.3672131 L471.8,40.6360656 L469.593939,36.8590164 L465.969697,38.0393443 L465.49697,37.4885246 C465.024242,36.9377049 464.472727,36.4655738 464,36.0721311 L463.448485,35.6 L464.630303,31.9803279 L460.848485,29.7770492 L458.248485,32.6885246 L457.539394,32.452459 C456.909091,32.295082 456.278788,32.1377049 455.648485,31.9803279 L454.939394,31.8229508 L454.151515,28.1245902 L449.739394,28.1245902 L448.951515,31.8229508 L448.242424,31.9803279 C447.533333,32.1377049 446.90303,32.295082 446.193939,32.5311475 L445.484848,32.7672131 L443.042424,30.0918033 L439.260606,32.295082 L440.363636,35.6786885 L439.812121,36.1508197 C439.181818,36.7016393 438.551515,37.252459 438.078788,37.8032787 L437.606061,38.3540984 L434.454545,37.3311475 L432.248485,41.1081967 L434.612121,43.2327869 L434.375758,43.9409836 C434.139394,44.8065574 433.824242,45.6721311 433.666667,46.5377049 L433.509091,47.2459016 L430.672727,47.8754098 L430.672727,52.2819672 L433.430303,52.9114754 L433.587879,53.6983607 C433.745455,54.7213115 433.981818,55.6655738 434.29697,56.6098361 L434.533333,57.3180328 L432.563636,59.0491803 L434.769697,62.8262295 L437.212121,62.0393443 L437.684848,62.5901639 C438.393939,63.4557377 439.181818,64.1639344 439.969697,64.8721311 L440.521212,65.3442623 L439.812121,67.6262295 L443.593939,69.8295082 L445.248485,68.0196721 L445.957576,68.2557377 C446.981818,68.6491803 448.084848,68.8852459 449.109091,69.042623 L449.89697,69.2 L450.369697,71.5606557 L454.781818,71.5606557 L455.333333,69.042623 L456.042424,68.8852459 C457.066667,68.7278689 458.090909,68.4131148 459.036364,68.0196721 L459.745455,67.704918 L461.478788,69.5934426 L465.260606,67.3901639 L464.393939,64.7147541 L464.945455,64.242623 C465.575758,63.5344262 466.284848,62.8262295 466.836364,62.1180328 L467.309091,61.4885246 L470.066667,62.3540984 Z M428.230303,50.9442623 L428.230303,49.4491803 L424.212121,49.4491803 L421.848485,47.5606557 L414.206061,49.2131148 L414.206061,51.2590164 L421.848485,52.9114754 L424.290909,50.9442623 L428.230303,50.9442623 Z" id="Combined-Shape"></path>
        </g>
    </g>
</svg>