<?xml version="1.0" encoding="UTF-8"?>
<svg width="100px" height="100px" viewBox="0 0 100 100" version="1.1" xmlns="http://www.w3.org/2000/svg" xmlns:xlink="http://www.w3.org/1999/xlink">
    <!-- Generator: sketchtool 48.2 (47327) - http://www.bohemiancoding.com/sketch -->
    <title>D56ECECD-6F40-4AD3-A021-DBBC461D93FC</title>
    <desc>Created with sketchtool.</desc>
    <defs></defs>
    <g id="-g-Nano-grafin_Raduga_site_v01_04" stroke="none" stroke-width="1" fill="none" fill-rule="evenodd" transform="translate(-670.000000, -216.000000)">
        <g id="Page-1-Copy-2" transform="translate(470.000000, 216.000000)" fill="#81D4FA" fill-rule="nonzero">
            <path d="M250,100 C222.385763,100 200,77.6142375 200,50 C200,22.3857625 222.385763,0 250,0 C277.614237,0 300,22.3857625 300,50 C300,77.6142375 277.614237,100 250,100 Z M250,98.5465116 C276.811498,98.5465116 298.546512,76.811498 298.546512,50 C298.546512,23.188502 276.811498,1.45348837 250,1.45348837 C223.188502,1.45348837 201.453488,23.188502 201.453488,50 C201.453488,76.811498 223.188502,98.5465116 250,98.5465116 Z M264.31686,21.3662791 L271.802326,21.3662791 L271.802326,29.5784884 L254.142442,29.5784884 C252.761628,29.5784884 251.671512,30.6686047 251.671512,32.0494186 L251.671512,37.4273256 L243.386628,37.4273256 L243.386628,32.0494186 C243.386628,26.1627907 248.18314,21.3662791 254.069767,21.3662791 L259.738372,21.3662791 L259.738372,16.7877907 L253.270349,16.7877907 L253.270349,12.8633721 L270.784884,12.8633721 L270.784884,16.7877907 L264.31686,16.7877907 L264.31686,21.3662791 Z M248.401163,39.244186 L249.927326,39.244186 L249.927326,49.127907 L248.401163,49.127907 L248.401163,39.244186 Z M244.985465,39.244186 L246.511628,39.244186 L246.511628,49.127907 L244.985465,49.127907 L244.985465,39.244186 Z M234.156977,69.4767442 L235.68314,69.4767442 L235.68314,84.5203488 L234.156977,84.5203488 L234.156977,69.4767442 Z M239.97093,69.4767442 L241.497093,69.4767442 L241.497093,84.5203488 L239.97093,84.5203488 L239.97093,69.4767442 Z M245.784884,69.4767442 L247.311047,69.4767442 L247.311047,84.5203488 L245.784884,84.5203488 L245.784884,69.4767442 Z M251.598837,69.4767442 L253.125,69.4767442 L253.125,84.5203488 L251.598837,84.5203488 L251.598837,69.4767442 Z M257.412791,69.4767442 L258.938953,69.4767442 L258.938953,84.5203488 L257.412791,84.5203488 L257.412791,69.4767442 Z M225.799419,61.8459302 C224.515035,61.8459302 223.473837,60.804732 223.473837,59.5203488 C223.473837,58.2359657 224.515035,57.1947674 225.799419,57.1947674 C227.083802,57.1947674 228.125,58.2359657 228.125,59.5203488 C228.125,60.804732 227.083802,61.8459302 225.799419,61.8459302 Z M232.122093,61.8459302 C230.83771,61.8459302 229.796512,60.804732 229.796512,59.5203488 C229.796512,58.2359657 230.83771,57.1947674 232.122093,57.1947674 C233.406476,57.1947674 234.447674,58.2359657 234.447674,59.5203488 C234.447674,60.804732 233.406476,61.8459302 232.122093,61.8459302 Z M238.444767,61.8459302 C237.160384,61.8459302 236.119186,60.804732 236.119186,59.5203488 C236.119186,58.2359657 237.160384,57.1947674 238.444767,57.1947674 C239.729151,57.1947674 240.770349,58.2359657 240.770349,59.5203488 C240.770349,60.804732 239.729151,61.8459302 238.444767,61.8459302 Z M244.840116,61.8459302 C243.555733,61.8459302 242.514535,60.804732 242.514535,59.5203488 C242.514535,58.2359657 243.555733,57.1947674 244.840116,57.1947674 C246.124499,57.1947674 247.165698,58.2359657 247.165698,59.5203488 C247.165698,60.804732 246.124499,61.8459302 244.840116,61.8459302 Z M251.162791,61.8459302 C249.878408,61.8459302 248.837209,60.804732 248.837209,59.5203488 C248.837209,58.2359657 249.878408,57.1947674 251.162791,57.1947674 C252.447174,57.1947674 253.488372,58.2359657 253.488372,59.5203488 C253.488372,60.804732 252.447174,61.8459302 251.162791,61.8459302 Z M257.485465,61.8459302 C256.201082,61.8459302 255.159884,60.804732 255.159884,59.5203488 C255.159884,58.2359657 256.201082,57.1947674 257.485465,57.1947674 C258.769848,57.1947674 259.811047,58.2359657 259.811047,59.5203488 C259.811047,60.804732 258.769848,61.8459302 257.485465,61.8459302 Z M263.80814,61.8459302 C262.523756,61.8459302 261.482558,60.804732 261.482558,59.5203488 C261.482558,58.2359657 262.523756,57.1947674 263.80814,57.1947674 C265.092523,57.1947674 266.133721,58.2359657 266.133721,59.5203488 C266.133721,60.804732 265.092523,61.8459302 263.80814,61.8459302 Z M270.130814,61.8459302 C268.846431,61.8459302 267.805233,60.804732 267.805233,59.5203488 C267.805233,58.2359657 268.846431,57.1947674 270.130814,57.1947674 C271.415197,57.1947674 272.456395,58.2359657 272.456395,59.5203488 C272.456395,60.804732 271.415197,61.8459302 270.130814,61.8459302 Z M225.799419,68.1686047 C224.515035,68.1686047 223.473837,67.1274064 223.473837,65.8430233 C223.473837,64.5586401 224.515035,63.5174419 225.799419,63.5174419 C227.083802,63.5174419 228.125,64.5586401 228.125,65.8430233 C228.125,67.1274064 227.083802,68.1686047 225.799419,68.1686047 Z M232.122093,68.1686047 C230.83771,68.1686047 229.796512,67.1274064 229.796512,65.8430233 C229.796512,64.5586401 230.83771,63.5174419 232.122093,63.5174419 C233.406476,63.5174419 234.447674,64.5586401 234.447674,65.8430233 C234.447674,67.1274064 233.406476,68.1686047 232.122093,68.1686047 Z M238.444767,68.1686047 C237.160384,68.1686047 236.119186,67.1274064 236.119186,65.8430233 C236.119186,64.5586401 237.160384,63.5174419 238.444767,63.5174419 C239.729151,63.5174419 240.770349,64.5586401 240.770349,65.8430233 C240.770349,67.1274064 239.729151,68.1686047 238.444767,68.1686047 Z M244.840116,68.1686047 C243.555733,68.1686047 242.514535,67.1274064 242.514535,65.8430233 C242.514535,64.5586401 243.555733,63.5174419 244.840116,63.5174419 C246.124499,63.5174419 247.165698,64.5586401 247.165698,65.8430233 C247.165698,67.1274064 246.124499,68.1686047 244.840116,68.1686047 Z M251.162791,68.1686047 C249.878408,68.1686047 248.837209,67.1274064 248.837209,65.8430233 C248.837209,64.5586401 249.878408,63.5174419 251.162791,63.5174419 C252.447174,63.5174419 253.488372,64.5586401 253.488372,65.8430233 C253.488372,67.1274064 252.447174,68.1686047 251.162791,68.1686047 Z M257.485465,68.1686047 C256.201082,68.1686047 255.159884,67.1274064 255.159884,65.8430233 C255.159884,64.5586401 256.201082,63.5174419 257.485465,63.5174419 C258.769848,63.5174419 259.811047,64.5586401 259.811047,65.8430233 C259.811047,67.1274064 258.769848,68.1686047 257.485465,68.1686047 Z M263.80814,68.1686047 C262.523756,68.1686047 261.482558,67.1274064 261.482558,65.8430233 C261.482558,64.5586401 262.523756,63.5174419 263.80814,63.5174419 C265.092523,63.5174419 266.133721,64.5586401 266.133721,65.8430233 C266.133721,67.1274064 265.092523,68.1686047 263.80814,68.1686047 Z M270.130814,68.1686047 C268.846431,68.1686047 267.805233,67.1274064 267.805233,65.8430233 C267.805233,64.5586401 268.846431,63.5174419 270.130814,63.5174419 C271.415197,63.5174419 272.456395,64.5586401 272.456395,65.8430233 C272.456395,67.1274064 271.415197,68.1686047 270.130814,68.1686047 Z M225.799419,55.5232558 C224.515035,55.5232558 223.473837,54.4820576 223.473837,53.1976744 C223.473837,51.9132913 224.515035,50.872093 225.799419,50.872093 C227.083802,50.872093 228.125,51.9132913 228.125,53.1976744 C228.125,54.4820576 227.083802,55.5232558 225.799419,55.5232558 Z M232.122093,55.5232558 C230.83771,55.5232558 229.796512,54.4820576 229.796512,53.1976744 C229.796512,51.9132913 230.83771,50.872093 232.122093,50.872093 C233.406476,50.872093 234.447674,51.9132913 234.447674,53.1976744 C234.447674,54.4820576 233.406476,55.5232558 232.122093,55.5232558 Z M238.444767,55.5232558 C237.160384,55.5232558 236.119186,54.4820576 236.119186,53.1976744 C236.119186,51.9132913 237.160384,50.872093 238.444767,50.872093 C239.729151,50.872093 240.770349,51.9132913 240.770349,53.1976744 C240.770349,54.4820576 239.729151,55.5232558 238.444767,55.5232558 Z M244.840116,55.5232558 C243.555733,55.5232558 242.514535,54.4820576 242.514535,53.1976744 C242.514535,51.9132913 243.555733,50.872093 244.840116,50.872093 C246.124499,50.872093 247.165698,51.9132913 247.165698,53.1976744 C247.165698,54.4820576 246.124499,55.5232558 244.840116,55.5232558 Z M251.162791,55.5232558 C249.878408,55.5232558 248.837209,54.4820576 248.837209,53.1976744 C248.837209,51.9132913 249.878408,50.872093 251.162791,50.872093 C252.447174,50.872093 253.488372,51.9132913 253.488372,53.1976744 C253.488372,54.4820576 252.447174,55.5232558 251.162791,55.5232558 Z M257.485465,55.5232558 C256.201082,55.5232558 255.159884,54.4820576 255.159884,53.1976744 C255.159884,51.9132913 256.201082,50.872093 257.485465,50.872093 C258.769848,50.872093 259.811047,51.9132913 259.811047,53.1976744 C259.811047,54.4820576 258.769848,55.5232558 257.485465,55.5232558 Z M263.80814,55.5232558 C262.523756,55.5232558 261.482558,54.4820576 261.482558,53.1976744 C261.482558,51.9132913 262.523756,50.872093 263.80814,50.872093 C265.092523,50.872093 266.133721,51.9132913 266.133721,53.1976744 C266.133721,54.4820576 265.092523,55.5232558 263.80814,55.5232558 Z M270.130814,55.5232558 C268.846431,55.5232558 267.805233,54.4820576 267.805233,53.1976744 C267.805233,51.9132913 268.846431,50.872093 270.130814,50.872093 C271.415197,50.872093 272.456395,51.9132913 272.456395,53.1976744 C272.456395,54.4820576 271.415197,55.5232558 270.130814,55.5232558 Z M293.895349,64.0988372 L293.313953,65.7703488 L292.659884,67.4418605 L290.697674,66.6424419 L291.27907,65.0436047 L291.860465,63.4447674 L293.895349,64.0988372 Z M295.421512,57.8488372 C295.203488,59.0116279 294.985465,60.1744186 294.622093,61.3372093 L292.514535,60.8284884 C292.805233,59.7383721 293.09593,58.5755814 293.241279,57.4854651 L295.421512,57.8488372 Z M296.075581,51.4534884 C296.075581,52.1075581 296.002907,52.6889535 296.002907,53.125 C295.930233,53.7790698 295.930233,54.3604651 295.857558,54.9418605 L293.677326,54.7238372 C293.75,54.2151163 293.75,53.6337209 293.822674,53.0523256 C293.895349,52.5436047 293.895349,51.9622093 293.895349,51.380814 L296.075581,51.4534884 Z M284.375,80.7412791 C284.011628,81.1773256 283.575581,81.6133721 283.139535,82.122093 C282.776163,82.5581395 282.340116,82.9215116 281.90407,83.3575581 L280.377907,81.7587209 C280.813953,81.3226744 281.25,80.9593023 281.613372,80.5232558 C281.976744,80.0872093 282.412791,79.7238372 282.776163,79.2877907 L284.375,80.7412791 Z M288.299419,75.6540698 C287.645349,76.5988372 286.991279,77.6162791 286.19186,78.5610465 L284.447674,77.1802326 C285.174419,76.3081395 285.828488,75.3633721 286.482558,74.4186047 L288.299419,75.6540698 Z M291.497093,70.130814 C290.988372,71.1482558 290.406977,72.2383721 289.825581,73.255814 L287.936047,72.1656977 C288.517442,71.2209302 289.026163,70.2034884 289.534884,69.1860465 L291.497093,70.130814 Z M268.895349,92.0784884 C267.877907,92.5872093 266.715116,92.9505814 265.625,93.4593023 L264.898256,91.4244186 C265.915698,90.9883721 267.005814,90.625 268.023256,90.1162791 L268.895349,92.0784884 Z M274.563953,89.0261628 C274.055233,89.3168605 273.546512,89.6075581 273.037791,89.9709302 C272.456395,90.2616279 271.947674,90.5523256 271.438953,90.8430233 L270.421512,88.880814 C271.002907,88.6627907 271.438953,88.372093 271.947674,88.0813953 C272.456395,87.7906977 272.892442,87.5 273.401163,87.2093023 L274.563953,89.0261628 Z M279.723837,85.247093 C279.287791,85.6104651 278.851744,85.9738372 278.415698,86.3372093 C277.906977,86.7005814 277.47093,87.0639535 276.962209,87.4273256 L275.65407,85.6831395 C276.162791,85.3924419 276.598837,85.0290698 277.034884,84.6656977 C277.47093,84.3023256 277.906977,83.9389535 278.343023,83.5755814 L279.723837,85.247093 Z M250.218023,96.0755814 C248.982558,96.0755814 247.819767,96.0755814 246.656977,95.9302326 L246.802326,93.75 C247.965116,93.8953488 249.055233,93.8953488 250.218023,93.8953488 L250.218023,96.0755814 Z M256.613372,95.6395349 L254.796512,95.8575581 L253.052326,96.002907 L252.906977,93.8226744 L254.578488,93.6773256 L256.322674,93.4593023 L256.613372,95.6395349 Z M262.863372,94.2587209 C261.700581,94.622093 260.537791,94.9127907 259.375,95.0581395 L258.938953,92.9505814 C260.101744,92.7325581 261.19186,92.5145349 262.281977,92.1511628 L262.863372,94.2587209 Z M231.395349,92.2238372 C230.886628,91.9331395 230.305233,91.7151163 229.796512,91.4244186 L228.197674,90.625 L229.215116,88.7354651 L230.741279,89.5348837 C231.25,89.8255814 231.758721,90.0436047 232.267442,90.2616279 L231.395349,92.2238372 Z M237.5,94.4040698 C236.337209,94.0406977 235.174419,93.6773256 234.084302,93.3139535 L234.811047,91.2790698 C235.901163,91.6424419 236.991279,92.005814 238.081395,92.2965116 L237.5,94.4040698 Z M243.75,95.6395349 C243.168605,95.6395349 242.587209,95.494186 242.005814,95.3488372 C241.424419,95.2034884 240.843023,95.130814 240.261628,94.9854651 L240.697674,92.877907 C241.27907,92.9505814 241.787791,93.0959302 242.369186,93.1686047 C242.950581,93.3139535 243.459302,93.3866279 244.040698,93.4593023 L243.75,95.6395349 Z M215.843023,80.9593023 C215.116279,80.0872093 214.31686,79.2151163 213.517442,78.1976744 L215.261628,76.8895349 C215.915698,77.7616279 216.715116,78.6337209 217.44186,79.505814 L215.843023,80.9593023 Z M220.494186,85.4651163 L219.113372,84.3023256 C218.677326,83.8662791 218.241279,83.502907 217.805233,83.0668605 L219.331395,81.5406977 C219.767442,81.9040698 220.130814,82.3401163 220.56686,82.7034884 L221.875,83.7936047 L220.494186,85.4651163 Z M225.726744,89.1715116 L224.200581,88.2267442 L222.747093,87.2093023 L224.055233,85.3924419 L225.436047,86.4098837 L226.889535,87.3546512 L225.726744,89.1715116 Z M206.25,64.4622093 C206.031977,63.880814 205.886628,63.2994186 205.668605,62.7906977 C205.523256,62.2093023 205.377907,61.627907 205.232558,61.0465116 L207.340116,60.5377907 C207.485465,61.119186 207.630814,61.627907 207.776163,62.2093023 C207.921512,62.7180233 208.06686,63.2994186 208.284884,63.8081395 L206.25,64.4622093 Z M208.648256,70.3488372 C208.357558,69.8401163 208.139535,69.3313953 207.921512,68.75 C207.630814,68.1686047 207.412791,67.6598837 207.194767,67.0784884 L209.229651,66.2790698 C209.447674,66.8604651 209.665698,67.369186 209.883721,67.877907 C210.101744,68.3866279 210.319767,68.8953488 210.610465,69.4040698 L208.648256,70.3488372 Z M211.84593,75.9447674 C211.19186,74.9273256 210.537791,73.9098837 209.956395,72.8924419 L211.84593,71.8023256 C212.427326,72.8197674 213.008721,73.7645349 213.662791,74.7093023 L211.84593,75.9447674 Z M204.142442,45.3488372 C204.287791,44.1860465 204.43314,43.0232558 204.651163,41.8604651 L206.831395,42.2238372 C206.613372,43.3139535 206.468023,44.4040698 206.322674,45.5668605 L204.142442,45.3488372 Z M203.924419,51.8168605 L203.924419,50 L203.924419,48.1831395 L206.104651,48.3284884 L206.104651,50 L206.104651,51.744186 L203.924419,51.8168605 Z M204.651163,58.1395349 C204.43314,56.9767442 204.287791,55.8139535 204.142442,54.5784884 L206.322674,54.3604651 C206.468023,55.5232558 206.613372,56.6860465 206.831395,57.7761628 L204.651163,58.1395349 Z M210.02907,27.1075581 C210.610465,26.0901163 211.264535,25.0726744 211.918605,24.0552326 L213.735465,25.2906977 C213.081395,26.2354651 212.5,27.1802326 211.918605,28.1976744 L210.02907,27.1075581 Z M207.194767,32.9215116 C207.412791,32.3401163 207.630814,31.8313953 207.921512,31.25 C208.139535,30.7412791 208.357558,30.1598837 208.648256,29.6511628 L210.610465,30.5959302 C210.319767,31.1046512 210.101744,31.6133721 209.883721,32.122093 C209.665698,32.630814 209.447674,33.2122093 209.229651,33.7209302 L207.194767,32.9215116 Z M205.232558,39.0261628 C205.377907,38.4447674 205.523256,37.8633721 205.741279,37.3546512 C205.886628,36.7732558 206.031977,36.1918605 206.25,35.6104651 L208.284884,36.2645349 C208.06686,36.7732558 207.921512,37.2819767 207.776163,37.8633721 C207.630814,38.4447674 207.485465,38.9534884 207.340116,39.5348837 L205.232558,39.0261628 Z M222.747093,12.8633721 L224.200581,11.7732558 L225.726744,10.8284884 L226.889535,12.7180233 L225.436047,13.5901163 L224.055233,14.6075581 L222.747093,12.8633721 Z M217.877907,17.005814 C218.313953,16.5697674 218.75,16.1337209 219.186047,15.7703488 L220.56686,14.6075581 L221.947674,16.2790698 L220.639535,17.369186 C220.203488,17.7325581 219.840116,18.1686047 219.40407,18.5319767 L217.877907,17.005814 Z M213.590116,21.7296512 C214.31686,20.7848837 215.116279,19.9127907 215.915698,18.9680233 L217.514535,20.4215116 C216.787791,21.2936047 215.988372,22.0930233 215.334302,23.0377907 L213.590116,21.7296512 Z M240.261628,4.94186047 C240.843023,4.79651163 241.424419,4.72383721 242.005814,4.57848837 C242.587209,4.43313953 243.168605,4.36046512 243.75,4.2877907 L244.040698,6.46802326 C243.459302,6.54069767 242.950581,6.68604651 242.369186,6.75872093 C241.787791,6.83139535 241.27907,6.90406977 240.697674,7.0494186 L240.261628,4.94186047 Z M234.084302,6.75872093 C235.174419,6.39534884 236.337209,5.95930233 237.5,5.66860465 L238.081395,7.77616279 C236.991279,8.06686047 235.901163,8.43023256 234.811047,8.79360465 L234.084302,6.75872093 Z M228.270349,9.375 L229.869186,8.50290698 C230.377907,8.28488372 230.959302,7.99418605 231.468023,7.77616279 L232.340116,9.73837209 C231.831395,9.95639535 231.322674,10.247093 230.813953,10.4651163 L229.287791,11.2645349 L228.270349,9.375 Z M259.447674,4.86918605 C260.610465,5.15988372 261.773256,5.37790698 262.936047,5.66860465 L262.354651,7.77616279 C261.264535,7.48546512 260.101744,7.19476744 259.011628,6.97674419 L259.447674,4.86918605 Z M253.052326,3.99709302 L254.869186,4.14244186 L256.613372,4.43313953 L256.322674,6.54069767 L254.578488,6.32267442 L252.906977,6.17732558 L253.052326,3.99709302 Z M246.656977,4.06976744 C247.819767,3.9244186 249.055233,3.9244186 250.218023,3.9244186 L250.218023,6.10465116 C249.055233,6.17732558 247.965116,6.10465116 246.802326,6.25 L246.656977,4.06976744 Z M276.962209,12.6453488 C277.47093,12.9360465 277.906977,13.2994186 278.343023,13.6627907 C278.77907,14.0988372 279.287791,14.3895349 279.723837,14.8255814 L278.343023,16.497093 C277.906977,16.1337209 277.47093,15.7703488 277.034884,15.4069767 C276.598837,15.0436047 276.090116,14.6802326 275.65407,14.3895349 L276.962209,12.6453488 Z M271.511628,9.22965116 C272.020349,9.52034884 272.52907,9.81104651 273.110465,10.1017442 C273.619186,10.3924419 274.127907,10.6831395 274.636628,11.0465116 L273.473837,12.8633721 C273.037791,12.5726744 272.52907,12.2819767 272.020349,11.9912791 C271.511628,11.7732558 271.002907,11.4098837 270.494186,11.1918605 L271.511628,9.22965116 Z M265.625,6.61337209 C266.787791,7.0494186 267.877907,7.48546512 268.895349,7.99418605 L268.023256,9.95639535 C267.005814,9.44767442 265.988372,9.08430233 264.898256,8.64825581 L265.625,6.61337209 Z M289.825581,26.8168605 C290.479651,27.8343023 290.988372,28.9244186 291.497093,29.9418605 L289.534884,30.8866279 C289.026163,29.869186 288.517442,28.8517442 287.936047,27.9069767 L289.825581,26.8168605 Z M286.19186,21.5116279 C286.991279,22.4563953 287.645349,23.4011628 288.299419,24.4186047 L286.482558,25.6540698 C285.828488,24.7093023 285.174419,23.7645349 284.447674,22.8924419 L286.19186,21.5116279 Z M281.90407,16.7877907 C282.340116,17.1511628 282.776163,17.5872093 283.139535,18.0959302 C283.575581,18.5319767 284.011628,18.9680233 284.375,19.4040698 L282.776163,20.8575581 C282.412791,20.4215116 281.976744,20.0581395 281.613372,19.622093 C281.177326,19.1860465 280.813953,18.75 280.377907,18.3866279 L281.90407,16.7877907 Z M295.857558,44.9854651 C295.930233,45.6395349 295.930233,46.2209302 296.002907,46.6569767 C296.075581,47.3110465 296.075581,47.8924419 296.075581,48.4738372 L293.895349,48.5465116 C293.895349,48.0377907 293.895349,47.4563953 293.822674,46.875 C293.75,46.3662791 293.75,45.7848837 293.677326,45.2034884 L295.857558,44.9854651 Z M294.694767,38.6627907 L295.05814,40.4069767 C295.203488,40.9883721 295.276163,41.5697674 295.421512,42.1511628 L293.241279,42.5145349 C293.168605,41.9331395 293.09593,41.4244186 292.950581,40.8430233 L292.587209,39.1715116 L294.694767,38.6627907 Z M292.659884,32.630814 L293.313953,34.3023256 L293.895349,35.9738372 L291.860465,36.627907 L291.27907,35.0290698 L290.697674,33.4302326 L292.659884,32.630814 Z" id="Combined-Shape"></path>
        </g>
    </g>
</svg>