<?xml version="1.0" encoding="UTF-8"?>
<svg width="100px" height="100px" viewBox="0 0 100 100" version="1.1" xmlns="http://www.w3.org/2000/svg" xmlns:xlink="http://www.w3.org/1999/xlink">
    <!-- Generator: sketchtool 48.2 (47327) - http://www.bohemiancoding.com/sketch -->
    <title>CCCE4DE9-34DC-4EE6-A03D-DA12E2C48E9B</title>
    <desc>Created with sketchtool.</desc>
    <defs></defs>
    <g id="-g-Nano-grafin_Raduga_site_v01_04" stroke="none" stroke-width="1" fill="none" fill-rule="evenodd" transform="translate(-470.000000, -216.000000)">
        <g id="Page-1-Copy-2" transform="translate(470.000000, 216.000000)" fill="#81D4FA">
            <path d="M50,55.5960377 L46.1481132,53.8516981 L41.8603774,52.9064151 L39.7528302,49.2733962 L36.8462264,46.0026415 L37.2820755,41.7149057 L36.8462264,37.4271698 L39.6801887,34.23 L41.9330189,30.4507547 L46.0754717,29.5781132 L50.0726415,27.834717 L53.9245283,29.5781132 L58.2122642,30.5233962 L60.3198113,34.1564151 L63.2273585,37.4271698 L62.790566,41.7149057 L63.2273585,46.0026415 L60.3924528,49.2007547 L58.1396226,52.98 L53.9971698,53.8516981 L50,55.5960377 Z M50,0.000188679245 C77.5707547,0.000188679245 100,22.4303774 100,50.0001887 C100,77.5709434 77.5707547,100.000189 50,100.000189 C22.4301887,100.000189 0,77.5709434 0,50.0001887 C0,22.4303774 22.4301887,0.000188679245 50,0.000188679245 Z M50,98.5464151 C76.7688679,98.5464151 98.5462264,76.7690566 98.5462264,50.0001887 C98.5462264,23.2313208 76.7688679,1.45396226 50,1.45396226 C23.2311321,1.45396226 1.45377358,23.2313208 1.45377358,50.0001887 C1.45377358,76.7690566 23.2311321,98.5464151 50,98.5464151 Z M67.0063208,56.8318868 L73.8374528,72.9649057 L63.8808491,74.2733962 L55.8865094,80.3781132 L50.0723585,66.3516981 L49.999717,66.3516981 L44.1865094,80.3781132 L36.1921698,74.2733962 L26.235566,72.9649057 L32.9214151,56.7583019 L31.8308491,54.7243396 L26.5261321,49.4186792 L27.6883962,41.5696226 L26.5261321,34.1564151 L32.049717,28.4884906 L35.4657547,21.8026415 L43.2412264,20.4941509 L49.9270755,17.0781132 L57.049717,20.5667925 L64.4619811,21.73 L68.1685849,28.7790566 L73.4742453,34.084717 L72.3110377,41.9337736 L73.4742453,49.3460377 L67.9506604,55.0149057 L67.0063208,56.8318868 Z M62.1365094,68.3139623 L64.0261321,72.3111321 L70.8572642,71.3658491 L65.8431132,59.23 L64.5346226,61.7733962 L56.7591509,63.0818868 L51.8166981,65.5526415 L56.6865094,77.2526415 L62.2091509,73.0375472 L60.3195283,69.1856604 L62.1365094,68.3139623 Z M49.999717,64.389434 L55.1600943,61.7733962 L54.1421698,58.43 L56.0317925,57.8488679 L57.049717,61.1196226 L63.154434,60.1016981 L65.7704717,55.0149057 L63.0808491,52.9064151 L64.3166981,51.3083019 L66.9327358,53.3432075 L71.3666981,48.8366038 L70.4940566,43.0960377 L67.1506604,42.9507547 L67.2242453,40.9884906 L70.4940566,41.1337736 L71.3666981,35.0290566 L67.2968868,30.8866038 L64.3166981,32.9215094 L63.154434,31.3233962 L66.0610377,29.2875472 L63.154434,23.7649057 L57.4129245,22.8196226 L56.1770755,26.0903774 L54.2874528,25.3630189 L55.5233019,22.1658491 L49.999717,19.4045283 L44.840283,22.020566 L45.8572642,25.3630189 L43.9676415,25.9450943 L43.0233019,22.6743396 L36.9185849,23.6922642 L34.2299057,28.8516981 L36.8459434,30.8139623 L35.6100943,32.4130189 L33.0666981,30.4507547 L28.7063208,34.8837736 L29.5780189,40.625283 L33.0666981,40.6979245 L32.9940566,42.6601887 L29.5780189,42.5866038 L28.7063208,48.6922642 L32.6308491,53.0526415 L35.4657547,51.0903774 L36.6280189,52.689434 L33.8666981,54.6516981 L36.7733019,60.1743396 L42.4421698,61.0460377 L43.604434,57.6309434 L45.4940566,58.284717 L44.3308491,61.6281132 L49.999717,64.389434 Z M59.4481132,54.7960377 L54.5783019,55.8866038 L50.0726415,57.8488679 L45.4943396,55.8139623 L40.6245283,54.7243396 L38.0811321,50.3630189 L34.8113208,46.584717 L35.3198113,41.5696226 L34.8113208,36.6281132 L38.1537736,32.9215094 L40.6981132,28.6337736 L45.5669811,27.5441509 L50.0726415,25.5818868 L54.6509434,27.6158491 L59.5207547,28.7064151 L62.0641509,33.0667925 L65.3339623,36.7733962 L64.8254717,41.7875472 L65.3339623,46.73 L61.9915094,50.5083019 L59.4481132,54.7960377 Z M43.3138679,77.2526415 L48.1827358,65.48 L43.749717,63.2998113 L43.749717,63.3724528 L42.0780189,62.7913208 L35.6100943,61.7733962 L34.2299057,59.084717 L29.1421698,71.3658491 L36.0468868,72.3111321 L38.0091509,68.1686792 L39.8261321,69.0413208 L37.8638679,73.0375472 L43.3138679,77.2526415 Z M50.145566,44.9128302 L46.2210377,46.7298113 L46.7295283,42.4420755 L43.6776415,39.2439623 L47.9653774,38.3722642 L50.0729245,34.5930189 L52.1804717,38.3722642 L56.4682075,39.2439623 L53.5616038,42.4420755 L54.0700943,46.7298113 L50.145566,44.9128302 Z M60.3200943,38.0090566 L53.4880189,36.6279245 L50.0729245,30.5958491 L46.6568868,36.6279245 L39.8257547,38.0090566 L44.5493396,43.1684906 L43.750283,50.0732075 L50.0729245,47.1656604 L56.395566,50.0732075 L55.595566,43.1684906 L60.3200943,38.0090566 Z M92.5145283,60.8284906 C92.8050943,59.7379245 93.0956604,58.5756604 93.2418868,57.4860377 L95.4220755,57.8492453 C95.2032075,59.0115094 94.9126415,60.174717 94.6220755,61.3369811 L92.5145283,60.8284906 Z M93.75,53.0523585 C93.8226415,52.5438679 93.8226415,51.9627358 93.8226415,51.3806604 L96.0028302,51.4533019 C96.0028302,52.1080189 96.0028302,52.6891509 95.9301887,53.125 C95.8575472,53.779717 95.8575472,54.3608491 95.7849057,54.9419811 L93.604717,54.7240566 C93.6773585,54.2146226 93.6773585,53.6334906 93.75,53.0523585 Z M81.6134906,80.5233019 C81.9766981,80.0874528 82.4125472,79.7233019 82.7757547,79.2874528 L84.3748113,80.7412264 C83.9389623,81.1770755 83.5031132,81.6129245 83.1399057,82.1223585 C82.7757547,82.5582075 82.3408491,82.9214151 81.9040566,83.3572642 L80.3776415,81.7591509 C80.8134906,81.3223585 81.250283,80.9591509 81.6134906,80.5233019 Z M84.4477358,77.1803774 C85.1741509,76.3086792 85.8279245,75.3633962 86.4826415,74.4190566 L88.2996226,75.6539623 C87.5732075,76.5983019 86.9184906,77.6162264 86.1920755,78.560566 L84.4477358,77.1803774 Z M87.9362264,72.1658491 C88.5173585,71.2215094 89.0258491,70.2035849 89.535283,69.1856604 L91.4966038,70.1309434 C90.9154717,71.1479245 90.4069811,72.2384906 89.8258491,73.2554717 L87.9362264,72.1658491 Z M64.8981132,91.424434 C65.9160377,90.9885849 67.0056604,90.6253774 68.0235849,90.1159434 L68.895283,92.0782075 C67.8056604,92.5866981 66.7150943,92.9508491 65.6254717,93.4593396 L64.8981132,91.424434 Z M71.9477358,88.0815094 C72.4562264,87.7909434 72.8920755,87.5003774 73.4015094,87.2088679 L74.5637736,89.0258491 C74.055283,89.3173585 73.5467925,89.6079245 73.0373585,89.9711321 C72.4562264,90.2616981 71.9477358,90.5522642 71.4383019,90.8428302 L70.4213208,88.880566 C71.0033962,88.6626415 71.4383019,88.3720755 71.9477358,88.0815094 Z M77.0350943,84.6658491 C77.4709434,84.3026415 77.9067925,83.9384906 78.3426415,83.575283 L79.7237736,85.2469811 C79.2879245,85.6101887 78.779434,85.9733962 78.415283,86.3366038 C77.9067925,86.7007547 77.4709434,87.0639623 76.9624528,87.4271698 L75.6539623,85.6837736 C76.1624528,85.3922642 76.5992453,85.0290566 77.0350943,84.6658491 Z M46.5843396,95.9303774 L46.7296226,93.7501887 C47.8928302,93.8954717 48.9824528,93.8954717 50.1456604,93.8954717 L50.1456604,96.0756604 C48.9824528,96.0756604 47.7466038,96.0756604 46.5843396,95.9303774 Z M54.5783019,93.6773585 L56.25,93.459434 L56.540566,95.6396226 L54.7962264,95.8575472 L52.9801887,96.0028302 L52.8339623,93.8226415 L54.5783019,93.6773585 Z M58.8664151,92.9504717 C60.0286792,92.7325472 61.1192453,92.5146226 62.2088679,92.1514151 L62.7909434,94.2589623 C61.7003774,94.6221698 60.5371698,94.9127358 59.3022642,95.0580189 L58.8664151,92.9504717 Z M29.2153774,88.7356604 L30.7417925,89.534717 C31.250283,89.825283 31.7587736,90.0441509 32.2672642,90.2620755 L31.395566,92.2233962 C30.8861321,91.9328302 30.305,91.7149057 29.7965094,91.4243396 L28.1974528,90.625283 L29.2153774,88.7356604 Z M34.0115094,93.3139623 L34.7388679,91.2790566 C35.8284906,91.6422642 36.9190566,92.0054717 38.0086792,92.2960377 L37.4275472,94.4045283 C36.2643396,94.0413208 35.1737736,93.6771698 34.0115094,93.3139623 Z M40.625,92.8777358 C41.2061321,92.9503774 41.715566,93.0956604 42.2966981,93.1692453 C42.8778302,93.3135849 43.3863208,93.3871698 43.9674528,93.4598113 L43.6768868,95.64 C43.0957547,95.64 42.5146226,95.4937736 41.9334906,95.3484906 C41.3523585,95.2032075 40.770283,95.130566 40.1891509,94.985283 L40.625,92.8777358 Z M13.5175472,78.1974528 L15.2618868,76.8899057 C15.9156604,77.7616038 16.7156604,78.6333019 17.4420755,79.5059434 L15.8430189,80.959717 C15.0439623,80.0870755 14.2449057,79.2153774 13.5175472,78.1974528 Z M19.3313208,81.5408491 C19.7671698,81.9040566 20.1313208,82.3399057 20.5671698,82.7031132 L21.874717,83.7936792 L20.4945283,85.4653774 L19.1133962,84.3021698 C18.6775472,83.8663208 18.2416981,83.5031132 17.8049057,83.0672642 L19.3313208,81.5408491 Z M23.9824528,85.3922642 L25.3635849,86.4101887 L26.8164151,87.3545283 L25.6541509,89.1715094 L24.2003774,88.2262264 L22.6739623,87.2092453 L23.9824528,85.3922642 Z M7.70330189,62.2095283 C7.84858491,62.7180189 7.99481132,63.2991509 8.21273585,63.8085849 L6.17783019,64.4623585 C5.95896226,63.880283 5.81462264,63.2991509 5.59575472,62.7906604 C5.4504717,62.2095283 5.30518868,61.6274528 5.15990566,61.0463208 L7.26745283,60.5378302 C7.41273585,61.1189623 7.55801887,61.6274528 7.70330189,62.2095283 Z M9.8840566,67.8777358 C10.1019811,68.3871698 10.3199057,68.8956604 10.6104717,69.4041509 L8.64820755,70.349434 C8.35764151,69.84 8.13971698,69.3315094 7.92179245,68.7503774 C7.63122642,68.1692453 7.41235849,67.6598113 7.19443396,67.0786792 L9.23028302,66.2796226 C9.44820755,66.8607547 9.66613208,67.3692453 9.8840566,67.8777358 Z M11.8458491,71.8023585 C12.4269811,72.820283 13.0090566,73.7646226 13.6628302,74.7099057 L11.8458491,75.9448113 C11.1920755,74.9278302 10.5383019,73.9099057 9.95622642,72.8919811 L11.8458491,71.8023585 Z M6.83132075,42.2240566 C6.61339623,43.3136792 6.46811321,44.4042453 6.32283019,45.5665094 L4.14264151,45.3495283 C4.28792453,44.1863208 4.36056604,43.0231132 4.65113208,41.8608491 L6.83132075,42.2240566 Z M6.03207547,50.0001887 L6.10471698,51.7445283 L3.9245283,51.8171698 L3.85188679,50.0001887 L3.9245283,48.1832075 L6.10471698,48.3284906 L6.03207547,50.0001887 Z M6.25,54.3606604 C6.39528302,55.5229245 6.54056604,56.6861321 6.75943396,57.7766981 L4.57830189,58.1399057 C4.36037736,56.9766981 4.28773585,55.814434 4.06981132,54.5785849 L6.25,54.3606604 Z M13.6631132,25.2908491 C13.0093396,26.2351887 12.4272642,27.1804717 11.8461321,28.1983962 L9.95650943,27.1078302 C10.5376415,26.0899057 11.1914151,25.0729245 11.8461321,24.055 L13.6631132,25.2908491 Z M9.8840566,32.1221698 C9.66613208,32.6306604 9.44820755,33.2117925 9.23028302,33.7212264 L7.19443396,32.9212264 C7.41235849,32.3400943 7.63122642,31.8316038 7.92179245,31.2504717 C8.13971698,30.7410377 8.35764151,30.1599057 8.64820755,29.6514151 L10.6104717,30.5957547 C10.3199057,31.1042453 10.1019811,31.6136792 9.8840566,32.1221698 Z M7.77613208,37.8631132 C7.63084906,38.4451887 7.48556604,38.9536792 7.34028302,39.5348113 L5.23273585,39.0263208 C5.30537736,38.4451887 5.52330189,37.8631132 5.74122642,37.3546226 C5.88650943,36.7734906 6.03179245,36.1923585 6.24971698,35.610283 L8.28556604,36.265 C8.06669811,36.7734906 7.92141509,37.2819811 7.77613208,37.8631132 Z M25.4362264,13.5900943 L24.0550943,14.6080189 L22.7466038,12.8627358 L24.2003774,11.7731132 L25.7267925,10.8287736 L26.89,12.7183962 L25.4362264,13.5900943 Z M19.1134906,15.770283 L20.4946226,14.6080189 L21.8748113,16.279717 L20.5672642,17.3693396 C20.1314151,17.7325472 19.7672642,18.1683962 19.3314151,18.5316038 L17.805,17.0061321 C18.2417925,16.570283 18.6776415,16.1334906 19.1134906,15.770283 Z M13.5903774,21.7296226 C14.3167925,20.785283 15.1167925,19.9126415 15.9158491,18.9683019 L17.5149057,20.4211321 C16.7884906,21.2937736 15.9884906,22.0928302 15.334717,23.0381132 L13.5903774,21.7296226 Z M42.2966981,6.75867925 C41.715566,6.83132075 41.2061321,6.90396226 40.625,7.04924528 L40.1891509,4.94169811 C40.770283,4.79641509 41.3523585,4.72377358 41.9334906,4.57849057 C42.5146226,4.43320755 43.0957547,4.36056604 43.6768868,4.28792453 L43.9674528,6.46811321 C43.3863208,6.54075472 42.8778302,6.68603774 42.2966981,6.75867925 Z M38.0090566,7.77632075 C36.9184906,8.06688679 35.8279245,8.43009434 34.7383019,8.79424528 L34.0118868,6.75839623 C35.1741509,6.39518868 36.264717,5.95933962 37.4269811,5.66877358 L38.0090566,7.77632075 Z M30.7414151,10.4650943 L29.215,11.2650943 L28.1980189,9.3754717 L29.7970755,8.50283019 C30.305566,8.28490566 30.8866981,7.99433962 31.3951887,7.77641509 L32.2678302,9.73867925 C31.7593396,9.95660377 31.2499057,10.2471698 30.7414151,10.4650943 Z M62.8634906,5.66886792 L62.2823585,7.77641509 C61.1917925,7.48584906 60.0295283,7.19528302 58.9389623,6.97735849 L59.3748113,4.86886792 C60.5380189,5.15943396 61.7012264,5.37735849 62.8634906,5.66886792 Z M56.25,6.54084906 L54.5783019,6.32292453 L52.9075472,6.17764151 L52.9801887,3.99745283 L54.7962264,4.14273585 L56.6132075,4.43330189 L56.25,6.54084906 Z M50.145566,6.10462264 C48.9823585,6.17726415 47.8927358,6.10462264 46.7295283,6.24990566 L46.5842453,4.06971698 C47.8200943,3.92443396 48.9823585,3.92443396 50.145566,3.92443396 L50.145566,6.10462264 Z M78.2700943,16.4971698 C77.8342453,16.1339623 77.3983962,15.7698113 76.9625472,15.4066038 C76.5257547,15.0433962 76.0172642,14.6801887 75.5814151,14.3896226 L76.8899057,12.645283 C77.3983962,12.9358491 77.9068868,13.2990566 78.2700943,13.6632075 C78.7059434,14.0990566 79.2153774,14.3896226 79.6512264,14.8254717 L78.2700943,16.4971698 Z M71.4387736,9.22962264 C72.0208491,9.52018868 72.5293396,9.81075472 73.0378302,10.1013208 C73.5463208,10.3918868 74.0548113,10.6833962 74.5642453,11.0466038 L73.4010377,12.8635849 C72.9651887,12.5730189 72.4566981,12.2815094 71.9482075,11.9909434 C71.4387736,11.7730189 70.930283,11.4098113 70.4217925,11.1918868 L71.4387736,9.22962264 Z M68.895566,7.99415094 L68.0229245,9.95641509 C67.0059434,9.44792453 65.9880189,9.08471698 64.8983962,8.64792453 L65.6248113,6.61396226 C66.7153774,7.04981132 67.8776415,7.48566038 68.895566,7.99415094 Z M89.5346226,30.8866981 C89.0261321,29.8687736 88.5176415,28.8517925 87.9365094,27.9065094 L89.8261321,26.8168868 C90.4072642,27.8348113 90.9883962,28.924434 91.4968868,29.9423585 L89.5346226,30.8866981 Z M88.2992453,24.4188679 L86.4822642,25.654717 C85.8284906,24.709434 85.1737736,23.7650943 84.4473585,22.8924528 L86.1916981,21.5113208 C86.9190566,22.4566038 87.6454717,23.4009434 88.2992453,24.4188679 Z M81.9041509,16.7878302 C82.34,17.1510377 82.7758491,17.5868868 83.14,18.0963208 C83.5758491,18.5321698 84.0116981,18.9680189 84.3749057,19.4038679 L82.7758491,20.8576415 C82.4126415,20.4217925 81.9767925,20.0585849 81.6135849,19.6217925 C81.1767925,19.1859434 80.8135849,18.7500943 80.3777358,18.3868868 L81.9041509,16.7878302 Z M93.75,46.8751887 C93.6773585,46.3657547 93.6773585,45.7846226 93.604717,45.2034906 L95.7849057,44.985566 C95.8575472,45.6393396 95.9301887,46.2214151 95.9301887,46.6572642 C96.0028302,47.3110377 96.0028302,47.8921698 96.0028302,48.4742453 L93.8226415,48.5459434 C93.8226415,48.0374528 93.8226415,47.4563208 93.75,46.8751887 Z M92.9507547,40.8430189 L92.5875472,39.1713208 L94.6950943,38.6628302 L95.0583019,40.4071698 C95.2035849,40.9883019 95.2762264,41.5703774 95.4215094,42.1515094 L93.2413208,42.514717 C93.1686792,41.9335849 93.0960377,41.4241509 92.9507547,40.8430189 Z M91.2791509,35.0292453 L90.6253774,33.4301887 L92.660283,32.6311321 L93.3140566,34.3018868 L93.8951887,35.9735849 L91.7876415,36.6273585 L91.2791509,35.0292453 Z M91.2791509,65.0438679 L91.7876415,63.4448113 L93.8951887,64.0985849 L93.3140566,65.770283 L92.660283,67.4419811 L90.6253774,66.6419811 L91.2791509,65.0438679 Z" id="Combined-Shape"></path>
        </g>
    </g>
</svg>