<?xml version="1.0" encoding="UTF-8"?>
<svg width="100px" height="100px" viewBox="0 0 100 100" version="1.1" xmlns="http://www.w3.org/2000/svg" xmlns:xlink="http://www.w3.org/1999/xlink">
    <!-- Generator: sketchtool 48.2 (47327) - http://www.bohemiancoding.com/sketch -->
    <title>7FE62A21-9F48-4D4C-B36A-89ADD276E690</title>
    <desc>Created with sketchtool.</desc>
    <defs></defs>
    <g id="-g-Nano-grafin_Raduga_site_v01_04" stroke="none" stroke-width="1" fill="none" fill-rule="evenodd" transform="translate(-870.000000, -216.000000)">
        <g id="Page-1-Copy-2" transform="translate(470.000000, 216.000000)" fill="#81D4FA" fill-rule="nonzero">
            <path d="M450,100 C422.385763,100 400,77.6142375 400,50 C400,22.3857625 422.385763,0 450,0 C477.614237,0 500,22.3857625 500,50 C500,77.6142375 477.614237,100 450,100 Z M450,98.5465116 C476.811498,98.5465116 498.546512,76.811498 498.546512,50 C498.546512,23.188502 476.811498,1.45348837 450,1.45348837 C423.188502,1.45348837 401.453488,23.188502 401.453488,50 C401.453488,76.811498 423.188502,98.5465116 450,98.5465116 Z M493.895349,64.0988372 L493.313953,65.7703488 L492.659884,67.4418605 L490.697674,66.6424419 L491.27907,65.0436047 L491.860465,63.4447674 L493.895349,64.0988372 Z M495.421512,57.8488372 C495.203488,59.0116279 494.985465,60.1744186 494.622093,61.3372093 L492.514535,60.8284884 C492.805233,59.7383721 493.09593,58.5755814 493.241279,57.4854651 L495.421512,57.8488372 Z M496.075581,51.4534884 C496.075581,52.1075581 496.002907,52.6889535 496.002907,53.125 C495.930233,53.7790698 495.930233,54.3604651 495.857558,54.9418605 L493.677326,54.7238372 C493.75,54.2151163 493.75,53.6337209 493.822674,53.0523256 C493.895349,52.5436047 493.895349,51.9622093 493.895349,51.380814 L496.075581,51.4534884 Z M484.375,80.7412791 C484.011628,81.1773256 483.575581,81.6133721 483.139535,82.122093 C482.776163,82.5581395 482.340116,82.9215116 481.90407,83.3575581 L480.377907,81.7587209 C480.813953,81.3226744 481.25,80.9593023 481.613372,80.5232558 C481.976744,80.0872093 482.412791,79.7238372 482.776163,79.2877907 L484.375,80.7412791 Z M488.299419,75.6540698 C487.645349,76.5988372 486.991279,77.6162791 486.19186,78.5610465 L484.447674,77.1802326 C485.174419,76.3081395 485.828488,75.3633721 486.482558,74.4186047 L488.299419,75.6540698 Z M491.497093,70.130814 C490.988372,71.1482558 490.406977,72.2383721 489.825581,73.255814 L487.936047,72.1656977 C488.517442,71.2209302 489.026163,70.2034884 489.534884,69.1860465 L491.497093,70.130814 Z M468.895349,92.0784884 C467.877907,92.5872093 466.715116,92.9505814 465.625,93.4593023 L464.898256,91.4244186 C465.915698,90.9883721 467.005814,90.625 468.023256,90.1162791 L468.895349,92.0784884 Z M474.563953,89.0261628 C474.055233,89.3168605 473.546512,89.6075581 473.037791,89.9709302 C472.456395,90.2616279 471.947674,90.5523256 471.438953,90.8430233 L470.421512,88.880814 C471.002907,88.6627907 471.438953,88.372093 471.947674,88.0813953 C472.456395,87.7906977 472.892442,87.5 473.401163,87.2093023 L474.563953,89.0261628 Z M479.723837,85.247093 C479.287791,85.6104651 478.851744,85.9738372 478.415698,86.3372093 C477.906977,86.7005814 477.47093,87.0639535 476.962209,87.4273256 L475.65407,85.6831395 C476.162791,85.3924419 476.598837,85.0290698 477.034884,84.6656977 C477.47093,84.3023256 477.906977,83.9389535 478.343023,83.5755814 L479.723837,85.247093 Z M450.218023,96.0755814 C448.982558,96.0755814 447.819767,96.0755814 446.656977,95.9302326 L446.802326,93.75 C447.965116,93.8953488 449.055233,93.8953488 450.218023,93.8953488 L450.218023,96.0755814 Z M456.613372,95.6395349 L454.796512,95.8575581 L453.052326,96.002907 L452.906977,93.8226744 L454.578488,93.6773256 L456.322674,93.4593023 L456.613372,95.6395349 Z M462.863372,94.2587209 C461.700581,94.622093 460.537791,94.9127907 459.375,95.0581395 L458.938953,92.9505814 C460.101744,92.7325581 461.19186,92.5145349 462.281977,92.1511628 L462.863372,94.2587209 Z M431.395349,92.2238372 C430.886628,91.9331395 430.305233,91.7151163 429.796512,91.4244186 L428.197674,90.625 L429.215116,88.7354651 L430.741279,89.5348837 C431.25,89.8255814 431.758721,90.0436047 432.267442,90.2616279 L431.395349,92.2238372 Z M437.5,94.4040698 C436.337209,94.0406977 435.174419,93.6773256 434.084302,93.3139535 L434.811047,91.2790698 C435.901163,91.6424419 436.991279,92.005814 438.081395,92.2965116 L437.5,94.4040698 Z M443.75,95.6395349 C443.168605,95.6395349 442.587209,95.494186 442.005814,95.3488372 C441.424419,95.2034884 440.843023,95.130814 440.261628,94.9854651 L440.697674,92.877907 C441.27907,92.9505814 441.787791,93.0959302 442.369186,93.1686047 C442.950581,93.3139535 443.459302,93.3866279 444.040698,93.4593023 L443.75,95.6395349 Z M415.843023,80.9593023 C415.116279,80.0872093 414.31686,79.2151163 413.517442,78.1976744 L415.261628,76.8895349 C415.915698,77.7616279 416.715116,78.6337209 417.44186,79.505814 L415.843023,80.9593023 Z M420.494186,85.4651163 L419.113372,84.3023256 C418.677326,83.8662791 418.241279,83.502907 417.805233,83.0668605 L419.331395,81.5406977 C419.767442,81.9040698 420.130814,82.3401163 420.56686,82.7034884 L421.875,83.7936047 L420.494186,85.4651163 Z M425.726744,89.1715116 L424.200581,88.2267442 L422.747093,87.2093023 L424.055233,85.3924419 L425.436047,86.4098837 L426.889535,87.3546512 L425.726744,89.1715116 Z M406.25,64.4622093 C406.031977,63.880814 405.886628,63.2994186 405.668605,62.7906977 C405.523256,62.2093023 405.377907,61.627907 405.232558,61.0465116 L407.340116,60.5377907 C407.485465,61.119186 407.630814,61.627907 407.776163,62.2093023 C407.921512,62.7180233 408.06686,63.2994186 408.284884,63.8081395 L406.25,64.4622093 Z M408.648256,70.3488372 C408.357558,69.8401163 408.139535,69.3313953 407.921512,68.75 C407.630814,68.1686047 407.412791,67.6598837 407.194767,67.0784884 L409.229651,66.2790698 C409.447674,66.8604651 409.665698,67.369186 409.883721,67.877907 C410.101744,68.3866279 410.319767,68.8953488 410.610465,69.4040698 L408.648256,70.3488372 Z M411.84593,75.9447674 C411.19186,74.9273256 410.537791,73.9098837 409.956395,72.8924419 L411.84593,71.8023256 C412.427326,72.8197674 413.008721,73.7645349 413.662791,74.7093023 L411.84593,75.9447674 Z M404.142442,45.3488372 C404.287791,44.1860465 404.43314,43.0232558 404.651163,41.8604651 L406.831395,42.2238372 C406.613372,43.3139535 406.468023,44.4040698 406.322674,45.5668605 L404.142442,45.3488372 Z M403.924419,51.8168605 L403.924419,50 L403.924419,48.1831395 L406.104651,48.3284884 L406.104651,50 L406.104651,51.744186 L403.924419,51.8168605 Z M404.651163,58.1395349 C404.43314,56.9767442 404.287791,55.8139535 404.142442,54.5784884 L406.322674,54.3604651 C406.468023,55.5232558 406.613372,56.6860465 406.831395,57.7761628 L404.651163,58.1395349 Z M410.02907,27.1075581 C410.610465,26.0901163 411.264535,25.0726744 411.918605,24.0552326 L413.735465,25.2906977 C413.081395,26.2354651 412.5,27.1802326 411.918605,28.1976744 L410.02907,27.1075581 Z M407.194767,32.9215116 C407.412791,32.3401163 407.630814,31.8313953 407.921512,31.25 C408.139535,30.7412791 408.357558,30.1598837 408.648256,29.6511628 L410.610465,30.5959302 C410.319767,31.1046512 410.101744,31.6133721 409.883721,32.122093 C409.665698,32.630814 409.447674,33.2122093 409.229651,33.7209302 L407.194767,32.9215116 Z M405.232558,39.0261628 C405.377907,38.4447674 405.523256,37.8633721 405.741279,37.3546512 C405.886628,36.7732558 406.031977,36.1918605 406.25,35.6104651 L408.284884,36.2645349 C408.06686,36.7732558 407.921512,37.2819767 407.776163,37.8633721 C407.630814,38.4447674 407.485465,38.9534884 407.340116,39.5348837 L405.232558,39.0261628 Z M422.747093,12.8633721 L424.200581,11.7732558 L425.726744,10.8284884 L426.889535,12.7180233 L425.436047,13.5901163 L424.055233,14.6075581 L422.747093,12.8633721 Z M417.877907,17.005814 C418.313953,16.5697674 418.75,16.1337209 419.186047,15.7703488 L420.56686,14.6075581 L421.947674,16.2790698 L420.639535,17.369186 C420.203488,17.7325581 419.840116,18.1686047 419.40407,18.5319767 L417.877907,17.005814 Z M413.590116,21.7296512 C414.31686,20.7848837 415.116279,19.9127907 415.915698,18.9680233 L417.514535,20.4215116 C416.787791,21.2936047 415.988372,22.0930233 415.334302,23.0377907 L413.590116,21.7296512 Z M440.261628,4.94186047 C440.843023,4.79651163 441.424419,4.72383721 442.005814,4.57848837 C442.587209,4.43313953 443.168605,4.36046512 443.75,4.2877907 L444.040698,6.46802326 C443.459302,6.54069767 442.950581,6.68604651 442.369186,6.75872093 C441.787791,6.83139535 441.27907,6.90406977 440.697674,7.0494186 L440.261628,4.94186047 Z M434.084302,6.75872093 C435.174419,6.39534884 436.337209,5.95930233 437.5,5.66860465 L438.081395,7.77616279 C436.991279,8.06686047 435.901163,8.43023256 434.811047,8.79360465 L434.084302,6.75872093 Z M428.270349,9.375 L429.869186,8.50290698 C430.377907,8.28488372 430.959302,7.99418605 431.468023,7.77616279 L432.340116,9.73837209 C431.831395,9.95639535 431.322674,10.247093 430.813953,10.4651163 L429.287791,11.2645349 L428.270349,9.375 Z M459.447674,4.86918605 C460.610465,5.15988372 461.773256,5.37790698 462.936047,5.66860465 L462.354651,7.77616279 C461.264535,7.48546512 460.101744,7.19476744 459.011628,6.97674419 L459.447674,4.86918605 Z M453.052326,3.99709302 L454.869186,4.14244186 L456.613372,4.43313953 L456.322674,6.54069767 L454.578488,6.32267442 L452.906977,6.17732558 L453.052326,3.99709302 Z M446.656977,4.06976744 C447.819767,3.9244186 449.055233,3.9244186 450.218023,3.9244186 L450.218023,6.10465116 C449.055233,6.17732558 447.965116,6.10465116 446.802326,6.25 L446.656977,4.06976744 Z M476.962209,12.6453488 C477.47093,12.9360465 477.906977,13.2994186 478.343023,13.6627907 C478.77907,14.0988372 479.287791,14.3895349 479.723837,14.8255814 L478.343023,16.497093 C477.906977,16.1337209 477.47093,15.7703488 477.034884,15.4069767 C476.598837,15.0436047 476.090116,14.6802326 475.65407,14.3895349 L476.962209,12.6453488 Z M471.511628,9.22965116 C472.020349,9.52034884 472.52907,9.81104651 473.110465,10.1017442 C473.619186,10.3924419 474.127907,10.6831395 474.636628,11.0465116 L473.473837,12.8633721 C473.037791,12.5726744 472.52907,12.2819767 472.020349,11.9912791 C471.511628,11.7732558 471.002907,11.4098837 470.494186,11.1918605 L471.511628,9.22965116 Z M465.625,6.61337209 C466.787791,7.0494186 467.877907,7.48546512 468.895349,7.99418605 L468.023256,9.95639535 C467.005814,9.44767442 465.988372,9.08430233 464.898256,8.64825581 L465.625,6.61337209 Z M489.825581,26.8168605 C490.479651,27.8343023 490.988372,28.9244186 491.497093,29.9418605 L489.534884,30.8866279 C489.026163,29.869186 488.517442,28.8517442 487.936047,27.9069767 L489.825581,26.8168605 Z M486.19186,21.5116279 C486.991279,22.4563953 487.645349,23.4011628 488.299419,24.4186047 L486.482558,25.6540698 C485.828488,24.7093023 485.174419,23.7645349 484.447674,22.8924419 L486.19186,21.5116279 Z M481.90407,16.7877907 C482.340116,17.1511628 482.776163,17.5872093 483.139535,18.0959302 C483.575581,18.5319767 484.011628,18.9680233 484.375,19.4040698 L482.776163,20.8575581 C482.412791,20.4215116 481.976744,20.0581395 481.613372,19.622093 C481.177326,19.1860465 480.813953,18.75 480.377907,18.3866279 L481.90407,16.7877907 Z M495.857558,44.9854651 C495.930233,45.6395349 495.930233,46.2209302 496.002907,46.6569767 C496.075581,47.3110465 496.075581,47.8924419 496.075581,48.4738372 L493.895349,48.5465116 C493.895349,48.0377907 493.895349,47.4563953 493.822674,46.875 C493.75,46.3662791 493.75,45.7848837 493.677326,45.2034884 L495.857558,44.9854651 Z M494.694767,38.6627907 L495.05814,40.4069767 C495.203488,40.9883721 495.276163,41.5697674 495.421512,42.1511628 L493.241279,42.5145349 C493.168605,41.9331395 493.09593,41.4244186 492.950581,40.8430233 L492.587209,39.1715116 L494.694767,38.6627907 Z M492.659884,32.630814 L493.313953,34.3023256 L493.895349,35.9738372 L491.860465,36.627907 L491.27907,35.0290698 L490.697674,33.4302326 L492.659884,32.630814 Z M455.448775,81.3450499 L457.162511,81.3450499 L461.695082,90 L438.410129,90 L442.835799,81.3450499 L444.5509,81.3450499 C443.231217,79.533958 440.721965,75.6080446 438.354532,69.2253274 C435.302191,60.9965166 431.949824,46.9555332 433.312619,26.7936749 L434.019572,21.9154511 C434.893899,18.8647682 436.672009,16.1027047 439.147513,13.9949602 C442.173519,11.4188066 446.044006,10 450.045778,10 C453.999171,10 457.833179,11.3889692 460.841823,13.9106121 C463.313036,15.981825 465.106752,18.7083131 466.013071,21.7259071 L466.482032,23.7575281 C466.619365,24.607894 466.689007,25.4693533 466.689007,26.3181891 C466.689007,26.4015808 466.686081,26.4842075 466.683155,26.5670254 L466.679838,26.6814021 L466.687446,26.7938661 C468.050046,46.9559157 464.697875,60.9968991 461.645533,69.2253274 C459.858449,74.0427287 457.987483,77.4384544 456.730809,79.4411943 C456.570262,79.7294312 456.395865,79.9998805 456.212104,80.2456565 C455.924759,80.6782988 455.667259,81.0453371 455.448775,81.3450499 Z M456.209178,82.875173 L443.799081,82.875173 L440.938498,88.4698769 L459.139402,88.4698769 L456.209178,82.875173 Z M455.039117,79.2380704 C455.212734,78.9957372 455.373086,78.7272006 455.516076,78.4403025 C455.731439,78.0086165 455.91676,77.5122828 456.066968,76.9652638 C456.405229,75.7319846 456.569677,74.2458525 456.569677,72.4219458 C456.569677,72.1767436 456.553486,71.9007476 456.521493,71.601226 C456.288769,69.4221394 455.224829,66.1384953 453.359325,61.8411445 L453.173613,61.4167266 C453.11197,61.2763378 453.050326,61.1370966 452.988292,60.9980467 C451.832667,58.4016191 450.677236,56.0836738 449.93517,54.6401939 C449.206564,56.0576617 448.073763,58.3291295 446.932963,60.8838613 C446.870929,61.0229112 446.808895,61.1625349 446.747057,61.3029237 C446.684828,61.4438863 446.622599,61.5852314 446.560955,61.7275329 C444.683942,66.035212 443.605566,69.3349224 443.35587,71.5346657 C443.319391,71.8571391 443.300663,72.1553218 443.300663,72.4219458 C443.300663,73.6712913 443.403273,74.8070252 443.605956,75.7975886 C443.930756,77.387004 444.527491,78.6514595 445.37958,79.5561448 C446.176267,80.4019203 447.191048,80.9554423 448.48147,81.2476958 L448.536871,81.2607019 C448.564572,81.2673962 448.592468,81.2740905 448.620949,81.2798284 C448.653721,81.2865227 448.735263,81.2999113 448.92234,81.3131086 C449.034313,81.321333 449.160332,81.3276448 449.29825,81.3326177 C449.706152,81.3471539 450.232465,81.348684 450.705912,81.3375906 C450.840124,81.3341478 450.969459,81.32994 451.088455,81.3249671 C451.487774,81.3071794 451.630959,81.2857577 451.67407,81.2775333 C451.704892,81.271604 451.734739,81.2649097 451.764585,81.2584067 L451.817451,81.2465483 C453.109629,80.9720824 454.094563,80.403833 454.829411,79.509476 C454.901394,79.4218765 454.971816,79.332173 455.039117,79.2380704 Z M445.221374,59.5977928 C444.850536,60.8672212 444.532563,62.0492413 444.268041,63.1400278 C444.589915,62.346659 444.941441,61.5180973 445.321642,60.6568293 L445.514377,60.2230394 C445.578751,60.0788252 445.643321,59.9355675 445.707501,59.7934573 C447.423967,55.9985607 449.06416,52.9417573 449.245579,52.605704 L449.93517,51.3282425 L450.624761,52.605704 C450.809692,52.9482603 452.481682,56.0641648 454.21707,59.9139545 C454.28086,60.0554909 454.34465,60.1979836 454.408439,60.3412414 C454.472424,60.4844991 454.536408,60.6287132 454.600393,60.7740749 C454.960892,61.5934559 455.294861,62.3824256 455.602299,63.1400278 C455.347531,62.0901721 455.043214,60.9555858 454.690323,59.7402855 C454.640384,59.5683379 454.589664,59.3958165 454.538749,59.2234864 C454.488225,59.0528777 454.43731,58.8824602 454.38581,58.7116603 C452.876124,53.7062451 450.966533,48.6512921 449.93517,46.0166114 C448.915707,48.6203071 447.031866,53.6058307 445.528812,58.5645772 C445.476532,58.736716 445.425227,58.9080898 445.374118,59.0798461 L445.373922,59.0800374 C445.322423,59.25275 445.271703,59.4252714 445.221374,59.5977928 Z M449.211831,43.6282805 L449.622465,42.6310228 C444.7054,42.5110994 440.184533,40.3046619 437.125169,36.5937308 C438.715616,42.5461009 441.165956,50.1930824 444.525931,56.5247318 C444.824005,55.5892528 445.146075,54.6126517 445.487846,53.6106124 C447.322333,48.2289781 449.193299,43.6728453 449.211831,43.6282805 Z M455.392593,56.6773616 C458.771296,50.3594833 461.236265,42.698922 462.832956,36.7482732 C459.726774,40.4163608 455.162405,42.5770859 450.249436,42.6350393 L450.658704,43.628663 C450.677041,43.6728453 452.547812,48.2289781 454.382494,53.6106124 C454.743383,54.6692663 455.082034,55.6969352 455.392593,56.6773616 Z M458.102578,73.6468093 C458.852057,72.0640882 459.553742,70.3916637 460.1971,68.6530613 C462.820666,61.5636185 465.783663,49.7242909 465.403657,32.9705906 C464.582,36.4495167 463.654612,39.824777 462.643148,43.0162313 C460.642457,49.3293279 458.419185,54.6277617 456.034586,58.766936 C457.425082,63.4535118 458.130278,67.0353387 458.130278,69.4142976 C458.130278,70.1544946 458.114477,70.8688708 458.083265,71.5377259 C458.114477,71.8517837 458.130278,72.1492013 458.130278,72.4219458 C458.130278,72.8419646 458.12111,73.2506987 458.102578,73.6468093 Z M441.794098,71.4715481 C441.758399,70.8164641 441.740062,70.124466 441.740062,69.4142976 C441.740062,67.0100916 442.460084,63.3781532 443.880427,58.6169839 C441.527625,54.4999964 439.333224,49.2520567 437.356723,43.0162313 C436.15545,39.2257338 435.231769,35.6553828 434.595629,32.9660002 C434.214647,49.7395922 437.184081,61.5934559 439.821107,68.7022165 C440.419403,70.3153488 441.068418,71.8728229 441.759374,73.353982 C441.746499,73.0494875 441.740062,72.73849 441.740062,72.4219458 C441.740062,72.1339001 441.758399,71.8142957 441.794098,71.4715481 Z M450.045778,11.5301231 C441.729138,11.5301231 434.963345,18.1639718 434.963345,26.3181891 C434.963345,26.7120045 434.982463,27.1259028 435.022453,27.5834096 C435.124087,28.7539538 435.368907,29.9105356 435.750084,31.021405 C437.820026,37.0533415 443.565185,41.1060638 450.045778,41.1060638 C456.215811,41.1060638 461.866553,37.3088721 464.106797,31.6571711 C464.712115,30.1304908 465.050766,28.5229052 465.11358,26.8789792 L465.11475,26.8522021 C465.121578,26.6747078 465.128405,26.4972135 465.128405,26.3181891 C465.128405,18.1639718 458.362418,11.5301231 450.045778,11.5301231 Z M445.249807,27.3894996 L441,23.1398861 L446.873505,22.2643207 L449.5,16.804878 L452.126688,22.2643207 L458,23.1398861 L453.750193,27.3894996 L454.753376,33.3902439 L449.5,30.5571024 L444.246624,33.3900463 L445.249807,27.3894996 Z M452.094333,26.8377274 L454.689245,24.2434303 L451.103476,23.7090431 L449.5,20.3760864 L447.896524,23.7090431 L444.310755,24.2434303 L446.905667,26.8377274 L446.292856,30.5009966 L449.5,28.7713994 L452.707144,30.5009966 L452.094333,26.8377274 Z" id="Combined-Shape"></path>
        </g>
    </g>
</svg>