<?xml version="1.0" encoding="UTF-8"?>
<svg width="52px" height="52px" viewBox="0 0 52 52" version="1.1" xmlns="http://www.w3.org/2000/svg" xmlns:xlink="http://www.w3.org/1999/xlink">
    <!-- Generator: sketchtool 48.2 (47327) - http://www.bohemiancoding.com/sketch -->
    <title>C2C355B2-9EBC-448D-937A-FB550BCEE7AF</title>
    <desc>Created with sketchtool.</desc>
    <defs></defs>
    <g id="-g-Nano-grafin_Raduga_site_v01_04" stroke="none" stroke-width="1" fill="none" fill-rule="evenodd" transform="translate(-540.000000, -844.000000)">
        <g id="Page-1" transform="translate(540.000000, 844.000000)" fill="#81D4FA">
            <path d="M46.4257713,33.0046918 L51.0976252,43.9896871 C51.2472399,44.3376281 51.3461545,44.735275 51.3461545,45.1324248 C51.3461545,46.7235095 50.0542992,48.0153648 48.4632146,48.0153648 L41.4049823,48.0153648 L41.4049823,51.3456575 L0,51.3456575 L0,43.5920402 C0,38.4723365 3.47941028,34.1479266 8.44999639,33.0543976 L14.9117583,31.6124306 L14.9117583,29.5749874 C12.4264653,27.7855764 10.7866689,24.8529306 10.7866689,21.5221408 L10.7866689,19.2853771 L9.44411361,17.2971426 C8.15225828,15.3591111 7.45587917,13.1223473 7.45587917,10.7861719 C7.45587917,4.82146853 12.3270536,0 18.2425481,0 L23.2131342,0 C26.14578,0 28.5808701,2.18705789 28.978517,5.02029197 C31.8117511,5.41793886 33.9993061,7.853029 33.9993061,10.7861719 C33.9993061,13.1223473 33.302927,15.3591111 32.0110716,17.2971426 L30.6690134,19.2853771 L30.6690134,21.5221408 C30.6690134,24.8529306 29.02872,27.7855764 26.5434269,29.5749874 L26.5434269,31.6124306 L33.0051888,33.0543976 C35.092835,33.5514563 36.9816577,34.5947823 38.4226306,36.136161 L39.7646889,32.9544889 L39.7646889,21.5221408 L38.1248925,21.5221408 L38.1248925,19.8823444 L48.0660648,19.8823444 L48.0660648,21.5723437 L46.4257713,21.5723437 L46.4257713,33.0046918 Z M48.5134175,46.4252743 C49.1595937,46.4252743 49.7058611,45.8780128 49.7058611,45.1826278 C49.7058611,44.9838043 49.6566523,44.8346867 49.6064494,44.6855691 L46.0778303,36.4841021 L40.113127,36.4841021 L36.5840108,44.6855691 C36.5338079,44.8346867 36.4845991,45.0330131 36.4845991,45.1826278 C36.4845991,45.8780128 37.0308665,46.4252743 37.7272456,46.4252743 L48.5134175,46.4252743 Z M24.057935,48.0653689 L24.057935,46.4250755 L29.8735208,46.4250755 L29.8735208,48.0653689 L24.057935,48.0653689 Z M39.7646889,49.7058611 L39.8148918,49.7058611 L39.8148918,48.0655677 L37.7272456,48.0655677 C36.1366581,48.0655677 34.8443057,46.7727183 34.8443057,45.1826278 C34.8443057,44.7844838 34.9432204,44.3868369 35.092835,44.0388959 L37.7272456,37.8256633 C36.4343962,36.2355728 34.6454823,35.1420438 32.6572478,34.694194 L30.072046,34.0977237 L30.8176339,37.8758662 L27.8854851,38.6214541 L29.2772493,40.7091003 L21.5728408,47.5685091 L21.5728408,49.7058611 L31.514013,49.7058611 L31.514013,46.3750714 L33.1543064,46.3750714 L33.1543064,49.7058611 L39.7646889,49.7058611 Z M1.69049634,43.5920402 L1.69049634,49.7058611 L8.30137587,49.7058611 L8.30137587,46.3750714 L9.99137514,46.3750714 L9.99137514,49.7058611 L19.9325474,49.7058611 L19.9325474,47.5685091 L12.2281389,40.7091003 L13.619903,38.6214541 L10.6867601,37.8758662 L11.4323481,34.0977237 L8.84764328,34.694194 C4.62264508,35.6391024 1.69049634,39.2676303 1.69049634,43.5920402 Z M15.3094052,33.2532211 L13.1720532,33.7000768 L12.5755829,36.6332196 L16.2543136,37.5771339 L14.3654909,40.460571 L20.7278411,46.1265421 L27.0896943,40.5102768 L25.2013686,37.6273369 L28.8796024,36.6824284 L28.283132,33.7502797 L26.14578,33.2532211 L20.7278411,44.0890988 L15.3094052,33.2532211 Z M22.8646961,36.136161 C22.2682258,36.3344874 21.5226379,36.4841021 20.7278411,36.4841021 C19.9325474,36.4841021 19.1869595,36.3344874 18.5904891,36.136161 L20.7278411,40.410368 L22.8646961,36.136161 Z M20.7278411,31.513516 C19.2366653,31.513516 17.8449012,31.1655749 16.502843,30.6685163 L16.502843,32.2089009 L17.198725,33.5514563 C17.4969602,33.7999856 18.6899008,34.8433116 20.6781353,34.8433116 C22.6663697,34.8433116 23.8588133,33.8491944 24.1575456,33.5514563 L24.8529306,32.1596921 L24.8529306,30.6188104 C23.610284,31.1655749 22.219017,31.513516 20.7278411,31.513516 Z M12.4766682,22.0191994 C12.7251975,26.3938123 16.3035224,29.8235167 20.8272529,29.8235167 C25.2505774,29.8235167 28.8293994,26.3938123 29.0779288,22.0191994 C28.0346027,22.7647873 26.7919562,23.2126371 25.449898,23.2126371 C23.8588133,23.2126371 22.4178404,22.6658727 21.2741086,21.5723437 L20.2799913,21.5723437 C19.1367565,22.6161668 17.6455807,23.2126371 16.1051961,23.2126371 C14.7631378,23.2126371 13.5204913,22.7647873 12.4766682,22.0191994 Z M9.1463755,10.7861719 C9.1463755,12.7744063 9.69264292,14.663229 10.7866689,16.3532283 L10.7866689,14.1164646 L12.4766682,14.1164646 L12.4766682,14.5633202 C12.9737268,14.3147909 13.5204913,14.1164646 14.1169616,14.1164646 L27.3884265,14.1164646 C27.9843998,14.1164646 28.5316613,14.2655821 29.02872,14.5633202 L29.02872,14.1164646 L30.6690134,14.1164646 L30.6690134,16.3532283 C31.7123394,14.663229 32.3088097,12.7744063 32.3088097,10.7861719 C32.3088097,8.49970225 30.4696929,6.66058539 28.1837203,6.66058539 L27.3382236,6.66058539 L27.3382236,5.81558575 C27.3382236,3.52911614 25.4991068,1.68999928 23.2131342,1.68999928 L18.2425481,1.68999928 C13.2222561,1.68999928 9.1463755,5.76587989 9.1463755,10.7861719 Z M12.4264653,17.3970514 L12.4264653,19.6338151 C13.271962,20.8764617 14.6140202,21.5723437 16.0549931,21.5723437 C17.2484309,21.5723437 18.3419598,21.124991 19.1869595,20.2794943 L19.5344034,19.9320503 L21.8705789,19.9320503 L22.219017,20.2794943 C23.0640166,21.124991 24.1575456,21.5723437 25.3499892,21.5723437 C26.7919562,21.5723437 28.1340145,20.8267558 28.978517,19.6338151 L28.978517,17.3970514 C28.978517,16.5023459 28.2329291,15.756758 27.3382236,15.756758 L14.0667587,15.756758 C13.1720532,15.756758 12.4264653,16.5023459 12.4264653,17.3970514 Z M44.735275,21.5723437 L41.4551852,21.5723437 L41.4551852,33.302927 L40.809009,34.7941028 L45.3814512,34.7941028 L44.735275,33.302927 L44.735275,21.5723437 Z M48.910965,19.0869513 C47.5192009,19.0869513 46.4256719,17.9934223 46.4256719,16.6016582 C46.4256719,15.2098941 47.5192009,14.1163651 48.910965,14.1163651 C50.3027291,14.1163651 51.396258,15.2098941 51.396258,16.6016582 C51.396258,17.9934223 50.3027291,19.0869513 48.910965,19.0869513 Z M48.910965,15.7566586 C48.4139064,15.7566586 48.0659654,16.1543055 48.0659654,16.6016582 C48.0659654,17.0987168 48.4636122,17.4466578 48.910965,17.4466578 C49.4080236,17.4466578 49.7559646,17.049011 49.7559646,16.6016582 C49.7559646,16.1045996 49.3578207,15.7566586 48.910965,15.7566586 Z M40.6099868,15.7566586 C38.7708699,15.7566586 37.2796941,14.2654827 37.2796941,12.4263659 C37.2796941,10.587249 38.7708699,9.09607317 40.6099868,9.09607317 C42.4491036,9.09607317 43.9402795,10.587249 43.9402795,12.4263659 C43.9402795,14.2654827 42.4491036,15.7566586 40.6099868,15.7566586 Z M40.6099868,10.7860725 C39.7152813,10.7860725 38.9696934,11.5316604 38.9696934,12.4263659 C38.9696934,13.3210714 39.7152813,14.0666593 40.6099868,14.0666593 C41.5046923,14.0666593 42.2502802,13.3210714 42.2502802,12.4263659 C42.2502802,11.5316604 41.5046923,10.7860725 40.6099868,10.7860725 Z" id="Combined-Shape"></path>
        </g>
    </g>
</svg>