<?xml version="1.0" encoding="UTF-8"?>
<svg width="218px" height="62px" viewBox="0 0 218 62" version="1.1" xmlns="http://www.w3.org/2000/svg" xmlns:xlink="http://www.w3.org/1999/xlink">
    <!-- Generator: sketchtool 48.2 (47327) - http://www.bohemiancoding.com/sketch -->
    <title>2E912324-B0FD-4422-BF3A-C8902DD72A9A</title>
    <desc>Created with sketchtool.</desc>
    <defs>
        <rect id="path-1" x="0" y="0" width="218" height="62"></rect>
        <linearGradient x1="100%" y1="100%" x2="0%" y2="0%" id="linearGradient-3">
            <stop stop-color="#A96B09" offset="0%"></stop>
            <stop stop-color="#DDBE52" offset="18.0285395%"></stop>
            <stop stop-color="#CFA253" offset="29.5958227%"></stop>
            <stop stop-color="#FFD96B" offset="44.1605548%"></stop>
            <stop stop-color="#C49231" offset="64.4710619%"></stop>
            <stop stop-color="#F1CF6F" offset="82.7706473%"></stop>
            <stop stop-color="#87541E" offset="100%"></stop>
        </linearGradient>
    </defs>
    <g id="button/gold/hover" stroke="none" stroke-width="1" fill="none" fill-rule="evenodd">
        <g id="button/gold">
            <g>
                <mask id="mask-2" fill="white">
                    <use xlink:href="#path-1"></use>
                </mask>
                <g id="Rectangle"></g>
                <path d="M28.748,51.6128 C27.881,49.7788 29.186,47.2128 32.424,47.5598 C33.06,44.0998 31.526,41.0778 29.274,39.9518 C25.546,38.0888 22.849,36.7878 21.653,32.3388 C21.124,30.3758 21.115,28.3598 21.583,26.4688 C22.276,23.6758 24.006,21.1568 26.636,19.4598 C26.87,19.3088 27.13,19.1558 27.414,18.9998 C30.45,17.3388 33.959,17.0258 37.18,17.8628 C38.782,18.2788 40.313,18.9788 41.681,19.9408 C41.032,16.9488 40.898,14.2538 41.234,11.8778 L43.535,13.0718 C43.4,14.6698 43.493,16.4348 43.834,18.3618 C44.476,22.0018 45.559,23.5708 46.823,26.6858 C48.228,30.1528 48.45,33.8208 47.61,37.2118 C46.61,41.2438 44.113,44.8808 40.314,47.3308 C39.119,48.0998 37.826,48.8138 36.468,49.2378 C36.53,48.2918 36.59,47.1428 36.65,46.1978 C37.414,45.9038 38.202,45.5668 38.896,45.1208 C42.108,43.0478 44.219,39.9798 45.061,36.5848 C45.905,33.1808 45.479,29.4418 43.617,26.0388 C43.442,25.7188 43.242,25.3858 43.02,25.0398 C41.495,22.6768 39.124,21.0778 36.522,20.4008 C33.922,19.7258 31.099,19.9728 28.668,21.3018 C28.474,21.4088 28.269,21.5318 28.054,21.6698 C26.01,22.9888 24.667,24.9388 24.133,27.0958 C23.809,28.4018 23.779,29.7848 24.067,31.1528 C24.559,32.7098 25.437,33.7518 26.47,34.3348 C30.7,36.7208 33.939,32.8628 32.024,30.4818 C27.564,30.4308 29.003,25.0968 32.823,26.6438 C33.754,27.0208 34.511,27.9028 34.534,28.9718 C36.387,28.3708 37.329,30.1368 36.922,31.2238 C38.994,31.2058 40.273,32.6128 40.771,33.3288 C40.177,34.9968 39.658,35.8098 37.951,36.5008 C39.002,41.3368 33.304,40.6478 32.831,40.0828 C34.629,41.9038 35.241,44.2748 35.247,46.5308 C35.254,48.6128 35.044,51.2628 32.857,52.4648 C31.317,53.3138 29.349,52.8798 28.748,51.6128 Z M12.0326,52.2803 C15.3006,54.8463 19.0756,56.6873 23.0536,57.7183 C30.0186,59.5293 37.5916,58.8623 44.1196,55.2903 C44.6716,54.9873 45.2256,54.6573 45.7776,54.3003 C47.9836,52.8783 50.2126,50.8583 51.7996,48.9643 C52.0316,49.9263 52.4956,50.7503 53.1056,51.3883 C52.7246,51.8083 52.3456,52.2293 51.9636,52.6493 C50.6186,54.1343 48.9616,55.3723 47.1956,56.5103 C46.6246,56.8783 46.0186,57.2393 45.3736,57.5923 C38.2406,61.4963 29.9806,62.2293 22.3946,60.2583 C17.8966,59.0893 13.6316,56.9683 9.9776,53.9963 C9.9436,53.9673 9.8896,53.9213 9.8206,53.8613 C10.3036,53.2893 10.7346,52.6763 11.1076,52.0253 C11.1726,51.9113 11.2376,51.7953 11.3006,51.6813 C11.6366,51.9593 11.9186,52.1903 12.0326,52.2803 Z M46.4428,43.0962 C46.3858,43.3892 46.3398,43.6812 46.3068,43.9732 C46.1528,45.2992 46.2278,46.6592 46.5088,47.9822 C46.7518,49.1282 47.1488,50.2462 47.6818,51.2912 C47.2688,51.6312 46.8488,51.9682 46.4218,52.2992 C46.1438,52.5162 45.8658,52.7282 45.5858,52.9362 C44.8218,51.5572 44.2648,50.0622 43.9388,48.5272 C43.7898,47.8262 43.6898,47.1162 43.6388,46.4042 C44.7198,45.4002 45.6568,44.2892 46.4428,43.0962 Z M108.4711,48.544 C108.1261,47.781 107.9851,46.969 107.8271,46.128 C114.6211,44.375 121.4971,40.85 127.5631,36.886 C128.0861,37.377 128.9651,38.484 129.0261,39.019 C122.9441,42.964 115.7611,46.699 108.4711,48.544 Z M96.7431,59.709 C95.1101,58.801 93.6681,57.331 92.2341,55.87 C92.4831,58.302 91.0021,59.279 89.4551,59.377 C87.3721,59.506 84.9581,57.641 86.4231,55.351 C87.9621,57.683 92.1611,55.594 88.2321,52.218 C87.7371,51.906 87.2111,51.648 86.6431,51.461 C85.6231,51.129 84.4251,51.017 82.9471,51.231 C77.0841,52.08 72.4881,56.971 66.9771,58.946 C61.7711,60.814 55.1451,61.258 50.3211,58.106 C49.8061,57.77 49.3171,57.398 48.8551,56.997 C49.1101,56.806 49.3611,56.615 49.6081,56.423 C50.0671,56.067 50.5201,55.705 50.9641,55.337 C52.4391,56.5 54.2161,57.293 56.2321,57.527 C57.4201,57.664 58.6951,57.609 60.0431,57.323 C62.8321,56.732 64.6731,55.077 65.5911,53.109 C66.5491,51.053 66.5621,48.514 65.3931,46.538 C64.1661,44.462 61.6151,43.347 59.2591,43.729 C57.8001,43.966 56.4151,44.758 55.7351,46.103 C56.9951,46.214 57.9861,47.274 57.9861,48.565 C57.9861,49.929 56.8791,51.037 55.5141,51.037 C53.3591,51.037 52.4641,48.337 52.8611,46.499 C53.1541,45.136 53.9461,43.819 54.8891,42.974 C56.0281,41.955 57.4521,41.365 58.8371,41.139 C59.5611,41.021 60.2811,41.002 60.9461,41.07 C61.0131,41.077 61.0791,41.085 61.1471,41.092 C61.2801,40.877 61.4541,40.65 61.7101,40.426 C63.2171,39.053 65.9811,40.426 66.8301,42.1 C68.1631,40.344 72.6261,39.287 73.9191,41.649 C74.7661,43.156 72.7221,44.041 71.7131,42.312 C69.2541,42.882 69.0151,44.645 68.9821,46.947 C68.9331,50.406 68.8951,53.634 66.5751,56.405 C69.0391,55.512 70.9431,54.229 72.8061,52.973 C75.6131,51.081 78.3371,49.244 82.5751,48.63 C84.4851,48.354 86.0711,48.512 87.4541,48.964 C88.8401,49.416 89.9891,50.15 91.0381,51.03 C91.8371,51.7 92.6451,52.531 93.4891,53.398 C95.9871,55.967 98.4361,58.901 101.6781,57.65 C102.8681,57.191 103.6021,55.869 102.9861,54.638 C102.5861,55.13 102.2371,55.445 101.2941,55.445 C100.3521,55.445 99.3201,54.47 99.3201,53.267 C99.3201,51.234 101.5631,50.576 103.0321,51.202 C104.6621,51.897 105.6551,53.421 105.7371,55.032 C105.9881,59.934 100.4921,61.793 96.7431,59.709 Z M102.7528,10.375 C106.5928,12.118 108.6658,14.662 110.2448,17.809 C112.8558,23.013 112.4508,29.466 109.0468,34.218 C108.4808,35.009 107.8318,35.751 107.1058,36.43 C107.0628,34.705 107.2008,34.427 107.1088,32.399 C109.7638,28.464 110.0228,23.21 107.9028,18.981 C106.5738,16.333 104.8508,14.169 101.5588,12.691 C102.1028,11.895 102.4298,11.155 102.7528,10.375 Z M55.6508,30.0371 C55.8028,30.9191 55.8888,31.8111 55.9078,32.7151 C53.5768,33.5391 51.6328,34.8151 50.1128,36.3491 C49.6278,36.8371 49.1878,37.3511 48.7918,37.8851 C48.8238,37.7651 48.8548,37.6471 48.8848,37.5271 C49.2148,36.1921 49.3928,34.8191 49.4118,33.4311 C51.1378,31.9831 53.2278,30.8011 55.6508,30.0371 Z M95.5819,0 C95.6469,0.045 95.7119,0.095 95.7809,0.152 C96.4519,0.709 96.5539,1.849 95.7559,2.741 C94.4059,4.251 92.4159,3.537 91.7229,2.274 C91.3139,1.525 91.1619,0.747 91.2229,0 L95.5819,0 Z M185.2113,14.561 C185.2743,15.727 185.5553,16.852 186.0483,17.852 C182.3433,15.97 178.1613,14.968 174.0663,14.866 C170.1253,14.766 166.3403,15.45 162.6163,16.748 C162.4973,16.389 161.6813,14.252 161.7213,14.226 C163.6113,13.053 165.1043,11.785 166.1253,10.499 C167.3043,9.017 168.5673,5.92 166.8533,4.353 C166.3223,3.869 165.5963,3.682 164.8563,4.005 C164.2783,4.256 163.8953,4.853 163.8223,5.296 C162.8183,4.56 162.7023,3.23 163.1423,2.252 C163.7813,0.82 165.6033,-0.088 167.5513,0.811 C168.4653,1.233 170.2403,2.684 170.0713,5.759 C169.9423,8.115 169.1973,10.761 166.6723,12.904 C169.2203,12.385 171.8143,12.153 174.4763,12.25 C178.1453,12.383 181.8153,13.153 185.2113,14.561 Z M192.8393,53.7412 C193.3043,54.5202 193.8043,55.2532 194.3433,55.9372 C191.1663,59.2192 186.1793,61.5112 180.7523,61.7612 L178.8383,61.7612 C178.6643,61.7532 178.4983,61.7552 178.3203,61.7422 C174.0793,61.4452 170.4473,59.7152 167.8663,57.0452 C165.2773,54.3642 163.7593,50.7452 163.7593,46.6852 C163.7593,46.3242 163.7733,45.9392 163.8013,45.5332 C164.0423,42.0742 165.7153,38.9502 168.1913,36.6902 C170.7063,34.3922 174.0693,33.0122 177.4823,33.0122 C177.8033,33.0122 178.1383,33.0242 178.4843,33.0482 L178.4843,33.0492 C183.3513,33.3922 187.5703,36.2352 190.0183,40.4292 C191.9893,43.8062 193.1573,47.2532 195.2463,50.8762 C195.9243,52.0502 196.7633,53.1332 197.7283,54.0792 C200.0303,56.3352 203.0523,57.8132 206.3013,57.9042 C209.4763,57.9932 212.5063,56.6202 214.3013,53.8942 C215.8683,51.5112 216.0913,46.6612 212.6073,45.2962 C211.4773,44.8672 209.8643,45.0902 209.3363,46.2412 L209.3303,46.2832 C211.2033,46.2862 212.2323,48.6012 210.7013,49.8262 C209.1573,51.0642 207.1223,49.8432 206.6243,48.3402 C205.3523,44.4962 209.3753,41.6102 212.9263,42.7512 C219.1343,44.7452 219.0293,51.8452 215.9073,55.9792 C213.6753,58.9372 210.1573,60.5302 206.4953,60.5182 C201.4083,60.5002 196.5253,57.5052 193.7263,53.2162 C191.9493,50.4972 190.7923,47.7252 189.5323,45.0072 C189.3503,44.6152 189.2113,44.3822 189.1763,45.1002 C189.0153,47.3942 188.1153,49.8352 186.3663,51.5892 C184.4783,53.4842 181.9293,54.2102 179.3103,54.0282 C177.1023,53.8742 175.2403,53.1122 173.9123,51.8492 C171.3873,49.4492 170.8213,44.8272 173.5893,42.3812 C174.5933,41.4952 175.9303,40.9452 177.3603,40.9452 C177.6343,40.9452 177.9093,40.9672 178.1873,41.0112 C179.6253,41.1482 180.9583,41.9232 181.6503,43.4782 C182.3443,45.0402 181.7203,46.9592 179.7713,47.2892 C178.5863,47.4902 177.5453,46.3662 177.4973,45.4242 C177.4503,44.4922 177.7423,44.1252 178.2063,43.7072 C174.4253,42.8342 173.5993,47.0162 175.1963,49.2902 C176.0993,50.5732 177.6793,51.2812 179.4853,51.4072 C179.6853,51.4202 179.9083,51.4282 180.1573,51.4282 C182.0633,51.4282 183.4943,50.7532 184.5073,49.7402 C187.4863,46.7512 187.1333,41.1872 184.2833,38.2752 C182.8223,36.7822 180.7413,35.8412 178.3033,35.6702 L178.2993,35.6702 C178.0483,35.6532 177.7763,35.6432 177.4823,35.6432 C174.6603,35.6432 171.9813,36.7872 169.9573,38.6322 C167.9613,40.4562 166.6153,42.9572 166.4233,45.7082 C166.4013,46.0172 166.3903,46.3432 166.3903,46.6852 C166.3903,50.0442 167.6353,53.0272 169.7593,55.2262 C171.8963,57.4372 174.9303,58.8712 178.4943,59.1212 C178.8493,59.1462 179.2273,59.1582 179.6293,59.1582 C180.0263,59.1582 180.3623,59.1512 180.6393,59.1392 C185.5203,58.9152 190.0463,56.7772 192.8393,53.7412 Z M77.8881,17.4331 C80.2241,13.6861 83.8041,10.9691 87.8441,9.5631 C90.9031,8.4971 94.2301,8.1811 97.4821,8.7341 C97.3971,9.4531 97.1171,10.4181 96.5641,11.1651 C94.1441,10.9361 90.9771,11.2501 88.7071,12.0401 C85.2171,13.2551 82.1291,15.5951 80.1181,18.8211 C78.2551,21.8101 77.1931,25.6041 77.6091,29.7061 C77.9661,33.2321 79.4211,36.9991 82.4011,40.7031 L82.4051,40.7001 C88.1441,46.3951 95.4271,47.9821 102.7751,47.1161 C102.8551,47.7261 103.0341,48.6861 103.3191,49.6381 C94.8951,50.7831 86.9361,49.0431 80.3511,42.3521 L80.3561,42.3471 C80.2111,42.1681 80.0701,41.9881 79.9321,41.8071 C78.6581,40.5351 75.2651,37.1161 75.0481,36.9271 C73.3511,35.4431 71.6031,34.2181 69.7481,33.3251 C67.1601,32.0781 64.3331,31.4671 61.0951,31.6861 C61.0741,30.7811 60.9831,29.9101 60.8201,29.0741 C64.5771,28.7991 67.8671,29.5041 70.8891,30.9601 C71.8061,31.4031 72.6971,31.9141 73.5641,32.4871 C73.7241,32.5921 75.2181,33.7731 75.9191,34.3201 C75.4431,32.8471 75.1431,31.3901 74.9981,29.9631 C74.5201,25.2421 75.7421,20.8751 77.8881,17.4331 Z M79.6039,3.856 C80.8819,3.098 81.7899,2.004 82.4019,0.727 C85.2459,3.436 83.2039,7.053 79.7429,7.925 C77.4929,8.493 74.8429,7.785 73.3219,7.063 C74.8709,8.247 76.1109,10.163 76.4329,12.422 C76.8339,15.247 75.8179,18.068 72.1969,17.991 C70.9599,17.964 69.6119,17.184 69.0959,15.89 C68.8219,15.201 68.7249,13.5 69.8269,12.771 C70.4669,12.118 72.4759,12.418 72.3009,13.873 C72.2149,14.585 73.8749,14.925 74.2489,11.807 C74.5019,9.705 72.7619,8.072 70.9919,7.127 C69.6169,6.392 67.7499,5.605 66.0749,4.932 C64.6749,4.397 63.2859,3.828 61.8919,3.282 C63.5569,4.821 63.6259,6.304 63.6779,7.821 C63.7229,9.159 63.7619,10.191 64.9159,11.388 C64.4809,12.424 61.8749,12.15 61.5509,11.252 C61.2599,12.064 60.2509,12.619 59.1019,12.537 C57.4739,13.852 57.6039,15.693 58.9339,16.505 C59.4299,16.26 59.8499,16.335 60.1239,16.543 C60.2849,16.663 60.3869,16.843 60.4249,17.032 C60.6329,18.062 59.2159,18.184 58.5609,18.025 C57.5589,17.781 56.6889,16.809 56.1949,15.907 C54.8189,13.393 56.0879,10.602 57.9899,9.221 C60.4829,7.413 61.8559,3.643 58.0679,2.467 C55.9309,1.804 53.7609,2.282 51.6289,2.956 C48.7419,3.87 46.5429,5.485 45.1669,7.749 L42.9269,6.769 C44.5939,3.842 47.3099,1.775 50.8989,0.64 C51.8199,0.349 52.7029,0.139 53.5579,0 L59.0139,0 C60.9629,0.313 62.7779,0.922 64.5479,1.611 C65.4169,1.917 66.2769,2.246 67.1229,2.58 C68.3809,3.077 69.6159,3.654 70.9119,4.045 C72.8369,4.626 74.8249,4.96 76.9759,4.732 C77.3179,4.696 77.6429,4.642 77.9529,4.57 C78.5239,4.402 79.0769,4.168 79.6039,3.856 Z M186.432,13.002 L188.839,13.664 C188.791,14.156 188.811,14.664 188.908,15.18 C189.132,16.374 189.787,17.386 190.937,17.799 C190.909,17.182 190.957,16.722 191.623,16.077 C192.291,15.431 193.638,15.404 194.396,16.243 C195.679,17.663 194.749,19.483 193.072,20.23 C192.088,20.668 191.074,20.668 190.166,20.372 L190.158,20.4 C188.197,19.679 186.862,17.897 186.464,15.785 C186.284,14.833 186.284,13.9 186.432,13.002 Z M5.9711,50.606 C4.9641,49.439 2.8411,45.808 2.1031,44.457 C1.2741,42.943 0.5801,41.399 0.0001,39.838 L0.0001,35.336 L0.8871,32.942 L0.9041,33.047 C1.4541,36.491 2.6101,39.922 4.4051,43.203 C4.9361,44.172 6.7361,47.059 7.2681,47.885 C6.9971,48.794 6.5551,49.7 5.9711,50.606 Z M1.414,22.8618 C1.414,23.1408 1.405,23.4698 1.388,23.8488 C1.251,26.8228 0.763,29.4698 0,31.8558 L0,14.1558 C0.935,16.6878 1.32,19.2348 1.398,21.7948 C1.409,21.9058 1.416,22.0148 1.422,22.1228 L1.407,22.1528 C1.411,22.3888 1.414,22.6258 1.414,22.8618 Z M11.663,10.5947 C13.192,11.8197 12.165,14.1357 10.292,14.1377 L10.298,14.1807 C10.825,15.3317 12.438,15.5547 13.569,15.1257 C14.984,14.5727 15.787,13.5417 16.138,12.3547 C16.65,10.6197 16.194,8.5487 15.262,7.1347 C13.468,4.4107 9.626,3.0367 6.452,3.1257 C4.08,3.1917 1.886,4.1617 0,5.6257 L0,2.5537 C2.034,1.2997 4.296,0.5187 6.648,0.5107 C10.31,0.4997 14.232,1.8917 16.464,4.8477 C18.144,7.0727 19.067,10.0417 18.593,12.6187 C18.187,14.8287 16.812,16.9907 13.947,17.7917 C10.357,18.7937 6.314,15.9247 7.586,12.0817 C8.083,10.5797 10.119,9.3577 11.663,10.5947 Z M197.3236,52.0029 C196.7876,51.1719 196.1786,50.4089 195.7406,49.4759 C197.4356,46.0769 198.3346,42.3719 198.4286,38.8729 C198.2526,36.6349 197.2236,34.7259 195.1706,35.1459 C193.4326,35.5019 193.6216,37.1809 194.1176,37.8079 C191.1136,38.4109 189.9366,33.5799 192.8976,32.1919 C193.8056,31.7659 196.1416,31.2739 197.8926,33.4339 C197.0026,28.8459 194.8656,24.7009 191.4206,21.5439 C192.4216,21.5389 193.4486,21.2499 194.3096,20.7029 C198.7746,25.3579 200.7416,31.4299 201.0326,37.7889 C201.2616,42.7449 200.0746,47.8239 197.3236,52.0029 Z M170.0902,32.188 C165.1292,31.421 162.5902,27.731 160.7672,23.304 C160.6012,24.049 160.3792,24.786 160.1092,25.504 L160.1292,25.51 C158.7542,30.622 155.0482,33.92 151.4952,37.082 L151.1752,37.368 C149.0072,39.3 147.1252,40.998 145.8062,43.592 C144.3172,46.517 144.1462,50.086 145.6672,53.044 C147.0942,55.815 149.7882,57.505 152.8532,57.773 C155.8272,58.033 158.6942,56.59 159.9052,53.807 C160.9442,51.423 160.3692,48.769 158.3612,47.085 C157.4052,46.284 156.0162,46.077 154.8202,46.34 C154.3732,46.439 153.9582,46.604 153.5822,46.827 L153.5862,46.839 C153.3052,46.943 152.7242,47.544 152.6812,47.948 C154.1182,48.356 154.9182,50.273 153.5662,51.307 C152.6862,51.979 151.1782,52.028 150.3112,51.027 C149.8572,50.504 149.5742,49.808 149.5382,49.151 C149.4562,47.642 150.1742,46.21 151.4742,45.131 C151.6572,44.963 151.8612,44.808 152.0892,44.667 C152.1872,44.605 152.2862,44.545 152.3892,44.489 C152.5502,44.393 152.7152,44.302 152.8872,44.216 L152.8922,44.235 C153.3222,44.039 153.7782,43.886 154.2562,43.782 C156.2372,43.343 158.4742,43.751 160.0472,45.07 C162.9482,47.505 163.8132,51.406 162.3112,54.856 C160.6552,58.656 156.7132,60.751 152.6252,60.394 C148.6662,60.047 145.1742,57.819 143.3332,54.247 C143.2832,54.149 143.2362,54.051 143.1892,53.953 C142.3712,56.529 140.7452,59.337 137.5482,59.47 C133.4762,59.638 131.0692,55.971 133.1632,52.904 C134.0022,51.677 135.9212,51.013 137.1572,52.525 C137.8902,53.419 137.6712,54.539 136.9232,55.073 C136.1752,55.607 135.7052,55.571 135.0902,55.432 C135.5632,57.057 137.1732,57.481 138.5102,56.78 C140.0322,55.982 140.7562,53.783 141.3242,51.241 C141.5942,50.038 141.8012,48.803 142.0452,47.58 C142.5322,45.132 143.2502,42.871 144.6002,40.766 C145.9082,38.72 147.4992,37.122 149.4292,35.404 L149.6392,35.216 C146.6362,35.867 143.4292,35.525 140.6412,34.124 C140.1142,33.86 139.6042,33.558 139.1112,33.22 C139.8282,32.63 140.5422,32.048 141.2542,31.478 C141.4382,31.585 141.6222,31.686 141.8132,31.781 C145.4172,33.592 149.9492,33.184 153.2062,30.818 C160.6032,25.445 160.2022,14.556 153.2032,9.469 C149.8982,7.065 146.5322,6.133 143.4182,6.119 C139.8452,6.101 136.5832,7.278 134.1192,8.822 C133.6562,8.043 133.1432,7.334 132.5842,6.69 C135.4332,4.873 139.2392,3.476 143.4292,3.497 C147.0552,3.515 150.9522,4.585 154.7452,7.341 C157.8662,9.61 159.8952,12.71 161.1002,16.336 C161.4462,17.38 161.4972,17.536 161.5392,17.666 C163.3572,23.216 165.3902,28.81 170.4912,29.598 C172.9682,29.981 175.5502,29.385 177.1042,27.299 C178.2342,25.781 178.6832,23.631 177.9422,21.846 C177.3142,20.332 174.5832,18.638 173.2212,20.25 C173.8282,20.423 174.2562,20.622 174.6252,21.489 C174.9952,22.355 174.5972,23.508 173.4912,23.98 C171.6202,24.778 170.1352,23.116 170.0402,21.556 C169.8432,18.228 172.6992,16.344 175.4182,16.782 C177.5332,17.123 179.4862,18.715 180.3662,20.838 C181.4582,23.467 180.8852,26.612 179.2092,28.862 C177.0652,31.743 173.5462,32.722 170.0902,32.188 Z M131.7787,33.9473 C133.3867,32.7693 134.9177,31.5773 136.3527,30.3953 C143.4037,24.5963 150.0537,19.5963 156.8307,16.3203 C157.1897,17.0933 157.2607,18.2243 157.3047,19.0523 C150.7657,22.2233 144.9037,26.7563 138.0187,32.4203 C136.4687,33.6953 135.1337,34.8233 133.3847,36.0933 C133.0107,35.2953 132.3517,34.5863 131.7787,33.9473 Z M128.4809,4.9522 C129.2199,5.3892 129.9179,5.9032 130.5669,6.4962 L130.5649,6.4972 C131.7299,7.5772 132.8829,9.0722 133.6579,10.7382 C134.1639,11.8062 134.5809,12.9932 134.8919,14.3052 C134.9819,14.6852 135.0559,15.0682 135.1179,15.4522 L135.1679,15.3492 C136.1579,13.1682 138.0309,11.4282 140.3749,10.7242 C145.1709,9.3402 148.6999,13.6022 146.5259,17.3152 C145.7369,18.6642 143.6459,19.4562 142.3489,17.8892 C141.0569,16.3292 142.4579,14.3292 144.2979,14.6982 C143.9899,13.3562 142.4569,12.9292 141.2469,13.3352 C137.4319,14.6132 134.8879,20.3632 136.7949,26.1952 C136.9789,26.6542 137.1939,27.1152 137.4419,27.5792 L137.3969,27.5382 C137.4379,27.6092 137.4799,27.6792 137.5219,27.7512 C136.8579,28.2872 136.1919,28.8322 135.5209,29.3832 L135.4659,29.4282 C134.8689,28.4962 134.3579,27.4532 133.9499,26.2972 C132.5979,22.4662 133.2519,18.5522 132.2839,14.6852 C132.1009,13.9582 131.8809,13.2792 131.6269,12.6472 C130.9189,11.0052 129.6519,9.2422 128.2599,7.9802 C127.9039,7.6982 127.5319,7.4422 127.1449,7.2132 C123.7629,5.2142 118.9649,4.8552 115.6479,7.1972 C113.1169,8.9842 111.5479,12.1372 113.0549,15.1032 C113.3729,15.7292 113.8209,16.2652 114.4049,16.5982 C114.9109,16.8862 115.5479,17.0352 116.3279,16.9732 C116.9039,16.9282 117.4539,16.6772 117.8289,16.1542 L117.8339,16.1392 L117.8429,16.1142 C117.2249,16.0042 116.7839,15.8482 116.3279,15.0302 C115.8709,14.2062 116.1479,13.0182 117.1989,12.4342 C118.9759,11.4472 120.6369,12.9442 120.8819,14.4882 C121.0749,15.7072 120.8159,16.7962 120.2519,17.6602 C119.5209,19.0312 117.9539,19.4832 116.5249,19.5942 C115.4059,19.6822 114.4299,19.4812 113.5779,19.0482 C109.7149,17.0872 108.9299,12.2992 110.8909,8.7232 C111.6829,7.2782 112.8279,5.9732 114.1379,5.0482 C118.2889,2.1172 124.2209,2.4322 128.4809,4.9522 Z M7.0961,54.7022 C5.1021,56.2772 2.5971,57.2792 0.0001,57.5272 L0.0001,54.9262 C2.0321,54.6662 3.9731,53.8652 5.5301,52.6352 C6.4781,51.8872 7.2821,50.9812 7.8721,49.9492 C11.1671,44.1932 10.8921,38.7582 10.1771,33.9322 C8.9681,28.8362 9.6731,23.8942 11.7631,19.1782 C13.0851,19.1322 13.7591,19.0712 15.1661,18.6452 C13.8751,20.5382 13.3051,21.9452 12.7631,24.1322 C11.6121,28.7752 12.1921,33.8722 14.7301,38.5082 C14.9711,38.9492 15.2421,39.4022 15.5411,39.8682 C17.3251,42.6332 19.8511,44.7292 22.7151,46.0482 C24.3231,46.7902 26.5291,47.4972 28.0591,47.5382 C27.3651,48.3952 27.1221,49.2522 26.9741,50.1102 C25.3021,49.7652 22.8571,49.0422 21.1961,48.2302 C18.0651,46.7002 15.3071,44.3492 13.3311,41.2872 C13.2541,41.1662 13.1771,41.0432 13.1001,40.9192 C12.9301,44.2012 12.1191,47.6822 10.0301,51.3342 C9.2861,52.6312 8.2801,53.7682 7.0961,54.7022 Z M96.1508,7.211 C96.3198,5.178 100.5668,4.54 101.1568,6.909 C101.6178,3.885 100.9018,1.51 99.5468,0 L102.9378,0 C103.3018,0.788 103.5448,1.645 103.6558,2.544 C103.7888,5.989 102.0608,10.215 100.3568,12.422 C100.1978,12.69 100.0178,12.95 99.8168,13.198 C98.3248,15.046 96.1548,16.734 94.1918,17.865 C96.9308,17.877 99.1748,18.842 100.9358,20.352 C104.5428,23.447 105.5978,28.133 105.7998,32.65 C105.9748,36.512 105.5418,40.546 106.1808,44.369 C106.6958,51.994 113.2818,57.849 120.2848,56.808 C126.7908,55.84 130.1948,51.698 131.1998,47.371 C132.0848,43.564 131.4688,40.918 129.7838,37.677 C128.3268,35.522 125.9538,33.88 123.2608,33.536 C120.5528,33.189 116.4518,34.023 116.6508,37.31 C117.0608,36.827 117.6848,36.36 118.6278,36.381 C119.5698,36.403 120.4528,37.244 120.4258,38.446 C120.3798,40.479 118.0468,41.144 116.5888,40.585 C113.1828,39.274 113.3378,34.745 115.8208,32.982 C113.8558,31.369 113.0798,28.059 116.2288,28.947 C115.7258,27.754 115.8328,25.731 116.4258,24.618 C117.7048,22.219 121.1988,22.527 120.6918,25.202 C120.4818,26.31 119.2548,27.039 118.4558,25.752 C117.4098,26.679 118.0948,29.016 120.7118,29.753 C121.7918,30.058 123.8738,30.482 125.5938,31.214 C122.4078,24.389 123.7238,15.779 128.6088,10.124 C129.1248,10.716 129.5848,11.4 129.9798,12.179 C130.0218,12.263 130.0628,12.348 130.1038,12.433 C126.2578,17.34 125.3438,24.498 128.0198,30.18 C129.9228,34.223 133.1158,36.591 134.0198,41.243 C134.5388,43.916 134.2898,46.524 133.5078,48.913 C131.8218,54.068 127.3088,58.663 120.7168,59.438 C111.8288,60.483 104.3318,53.946 103.5908,44.8 C103.3148,41.408 103.2418,37.946 103.2248,34.562 C103.2038,30.927 102.9088,27.051 100.7238,23.994 C100.6448,23.892 100.5688,23.797 100.5158,23.758 C100.3428,23.632 100.3458,23.806 100.4488,24.073 C101.4488,27.203 99.9558,30.84 96.1148,30.766 C94.7728,30.739 93.3088,29.96 92.7498,28.665 C92.4528,27.976 92.3468,26.275 93.5428,25.546 C94.2378,24.893 96.4168,25.194 96.2268,26.648 C96.1418,27.294 97.8168,27.632 98.3948,25.371 C99.0798,22.685 96.8928,20.56 94.3308,20.495 C93.9228,20.484 93.4978,20.502 93.0588,20.55 C90.9988,20.774 89.3588,21.769 88.2328,23.204 C86.9958,24.778 86.3628,26.882 86.4508,29.101 C86.4618,29.369 86.4838,29.627 86.5158,29.875 C86.8278,32.3 88.1568,34.341 90.0828,35.753 C92.0578,37.201 94.6588,37.994 97.4558,37.881 C98.9768,37.821 100.4548,37.413 101.8428,36.794 C101.8088,37.744 101.7918,38.692 101.7948,39.638 C100.3998,40.137 99.0308,40.444 97.5598,40.502 C94.1568,40.639 90.9708,39.659 88.5318,37.871 C86.0428,36.047 84.3248,33.386 83.9138,30.203 C83.8718,29.87 83.8438,29.536 83.8298,29.204 C83.7698,27.7 83.9738,26.229 84.4198,24.873 L84.4168,24.872 C84.5878,24.348 84.7938,23.851 85.0318,23.381 C85.3488,22.742 85.7268,22.139 86.1618,21.585 C86.6648,20.929 87.2238,20.345 87.8058,19.83 C88.7798,18.969 89.8208,18.3 90.7878,17.813 C93.1048,16.643 94.7878,15.519 95.9848,14.369 C97.8808,12.544 100.5548,6.955 96.1508,7.211 Z M39.1449,9.7881 C32.8319,8.1481 24.8009,9.3041 19.6579,13.6641 C20.1599,12.5571 20.0369,11.2881 20.0139,10.0931 C22.9129,8.3071 26.6529,7.0411 29.7309,6.6261 C31.6249,5.8831 33.1369,4.3791 32.4919,2.6871 C31.8609,1.0311 30.2339,1.4871 29.6949,2.0781 C29.3989,1.2901 29.5299,0.5711 29.9139,0.0001 L35.0619,0.0001 C35.7379,1.0281 36.5419,4.1901 33.6229,6.4001 C35.7079,6.4371 37.7839,6.7251 39.8019,7.2491 C45.9309,8.8411 51.5229,12.6201 55.1239,18.2061 C59.2419,24.5941 60.8089,32.4211 59.0539,39.8721 C58.7769,39.9031 58.4969,39.9441 58.2169,39.9981 C57.4159,40.1501 56.7399,40.3191 56.1699,40.5121 C56.2639,40.1941 56.3499,39.8731 56.4299,39.5491 C58.1269,32.7051 56.7049,25.5031 52.9149,19.6241 C49.6829,14.6131 44.6569,11.2201 39.1449,9.7881 Z" id="Combined-Shape" fill="url(#linearGradient-3)" mask="url(#mask-2)" transform="translate(109.000118, 30.880600) scale(-1, 1) translate(-109.000118, -30.880600) "></path>
            </g>
        </g>
    </g>
</svg>