<?xml version="1.0" encoding="UTF-8"?>
<svg width="66px" height="65px" viewBox="0 0 66 65" version="1.1" xmlns="http://www.w3.org/2000/svg" xmlns:xlink="http://www.w3.org/1999/xlink">
    <!-- Generator: sketchtool 48.2 (47327) - http://www.bohemiancoding.com/sketch -->
    <title>8D5A82F5-C67A-46F3-9054-5330169ED920</title>
    <desc>Created with sketchtool.</desc>
    <defs></defs>
    <g id="Palette" stroke="none" stroke-width="1" fill="none" fill-rule="evenodd" transform="translate(-1926.000000, -440.000000)">
        <g id="Group-Copy" transform="translate(1929.000000, 203.000000)" fill="#81D4FA">
            <g id="Menu/Kachestvo/Active" transform="translate(0.000000, 240.000000)">
                <path d="M43.1769426,53.3788989 C30.0159426,60.9128989 13.1819426,56.3338989 5.6489426,43.1758989 C1.9989426,36.8008989 1.0509426,29.3868989 2.9779426,22.2988989 C4.4059426,17.0478989 7.2879426,12.4438989 11.2759426,8.92589889 C12.6219426,12.1908989 12.7149426,13.6928989 10.6649426,21.2588989 C10.2919426,22.6078989 9.8509426,24.7078989 9.8699426,27.0208989 C9.8159426,29.4818989 10.2629426,31.9988989 11.1669426,34.3088989 C12.5939426,37.8698989 15.1159426,41.0118989 18.2599426,43.1478989 C21.3109426,45.2838989 24.9349426,46.3908989 28.7419426,46.3908989 C30.0559426,46.3908989 31.3909426,46.2588989 32.7329426,45.9918989 L32.8359426,45.9658989 C32.8569426,45.9598989 32.8749426,45.9518989 32.8949426,45.9448989 C34.2199426,45.7718989 41.4489426,44.9718989 43.5279426,47.8888989 C43.5279426,47.8888989 46.7329426,42.9818989 41.4739426,41.6918989 C45.4909426,38.7968989 47.7309426,35.5468989 48.4919426,33.6798989 L48.7589426,33.0268989 L48.2339426,32.5568989 C48.1399426,32.4728989 45.9139426,30.4828989 44.7879426,29.7258989 L43.9549426,29.1658989 L43.3989426,30.0008989 C43.2329426,30.2498989 43.0549426,30.5378989 42.8569426,30.8578989 C41.3519426,33.3008989 38.8349426,37.3828989 31.4519426,40.0888989 C27.9889426,40.7828989 24.5649426,40.1148989 21.7679426,38.1878989 C21.6289426,38.0998989 21.4899426,37.9888989 21.3459426,37.8768989 C21.1839426,37.7508989 21.0159426,37.6218989 20.8389426,37.5008989 C18.4069426,35.4458989 16.7279426,32.6798989 16.2289426,29.9028989 C15.7529426,27.2268989 16.3859426,24.5458989 18.0199426,22.3408989 C18.4049426,21.8288989 18.7679426,21.3458989 19.1979426,20.9508989 C20.4759426,19.6188989 22.2519426,18.9098989 23.9509426,19.0588989 C24.9849426,19.1488989 26.4459426,19.5958989 27.5309426,21.2088989 C28.3119426,22.4018989 28.2259426,23.1178989 28.1529426,23.3708989 C28.1289426,23.4538989 28.0989426,23.5188989 28.0689426,23.5668989 C27.2719426,22.8328989 26.1859426,22.6388989 25.1019426,23.0528989 C23.6709426,23.5958989 22.5229426,25.0588989 22.4909426,26.3538989 C22.0779426,29.1188989 24.5899426,31.1318989 25.9459426,31.5408989 C28.2789426,32.3458989 31.1529426,31.5358989 32.9119426,29.5848989 C34.6149426,27.7748989 35.4179426,25.6898989 35.2339426,23.5568989 C35.0769426,21.7438989 34.2079426,19.9288989 32.8399426,18.4668989 C36.7389426,19.8998989 40.1299426,22.6098989 43.2539426,25.4268989 C47.9229426,29.6378989 51.8269426,32.9208989 55.5039426,35.7308989 C55.7329426,35.9228989 55.9519426,36.0938989 56.1679426,36.2518989 C56.1279426,36.4098989 56.0939426,36.5688989 56.0509426,36.7278989 C54.1239426,43.8158989 49.5519426,49.7298989 43.1769426,53.3788989 M51.0639426,12.4408989 C50.8969426,12.9878989 50.6409426,13.7078989 50.2609426,14.4838989 C49.2569426,16.5428989 47.6899426,18.6448989 47.6739426,18.6658989 L51.6749426,21.6648989 C51.7409426,21.5768989 53.1249426,19.7228989 54.2849426,17.5848989 C56.0569426,21.2498989 56.9779426,25.1988989 57.0179426,29.1978989 C54.8829426,27.4868989 52.7889426,25.6508989 50.7489426,23.8598989 C48.8899426,22.2268989 46.9669426,20.5378989 45.0449426,18.9748989 C37.9769426,13.1378989 31.4259426,10.6948989 24.9979426,11.5318989 C22.0679426,11.8938989 19.3819426,12.9638989 17.0809426,14.6688989 C17.8749426,11.0508989 17.6059426,8.14589889 16.2769426,5.42289889 C20.4579426,3.12289889 24.9899426,2.01889889 29.4689426,2.01889889 C37.7079426,2.01889889 45.7519426,5.72889889 51.0639426,12.4408989 M57.7199426,13.3658989 C53.4059426,5.83289889 46.4179426,0.428898892 38.0409426,-1.84910111 C29.6669426,-4.12310111 20.9019426,-3.00510111 13.3679426,1.30789889 C5.8339426,5.62089889 0.430942598,12.6088989 -1.8470574,20.9858989 C-4.1250574,29.3628989 -3.0040574,38.1258989 1.3089426,45.6598989 C7.3059426,56.1338989 18.2859426,62.0068989 29.5699426,62.0068989 C35.0399426,62.0068989 40.5829426,60.6258989 45.6609426,57.7188989 C53.1959426,53.4048989 58.5989426,46.4168989 60.8759426,38.0398989 C63.1539426,29.6618989 62.0319426,20.8998989 57.7199426,13.3658989" id="Fill-10"></path>
            </g>
        </g>
    </g>
</svg>