<?xml version="1.0" encoding="UTF-8"?>
<svg width="65px" height="65px" viewBox="0 0 65 65" version="1.1" xmlns="http://www.w3.org/2000/svg" xmlns:xlink="http://www.w3.org/1999/xlink">
    <!-- Generator: sketchtool 48.2 (47327) - http://www.bohemiancoding.com/sketch -->
    <title>1DFE2FF6-4B02-409E-8CF5-EA6556DF045C</title>
    <desc>Created with sketchtool.</desc>
    <defs></defs>
    <g id="Palette" stroke="none" stroke-width="1" fill="none" fill-rule="evenodd" transform="translate(-1926.000000, -360.000000)">
        <g id="Group-Copy" transform="translate(1929.000000, 203.000000)" fill="#56A21E">
            <g id="Menu/RADUGA/Active" transform="translate(0.000000, 160.000000)">
                <path d="M44.447,52.565 C37.707,47.782 29.587,46.092 22.721,45.672 C24.965,43.782 26.833,41.538 28.545,39.225 C33.649,34.181 40.175,32.921 43.703,35.48 C46.672,37.688 45.237,39.838 44.295,39.318 C42.259,38.149 40.523,41.025 41.096,42.438 C41.509,44.569 44.056,45.492 45.229,45.455 C47.471,45.467 49.488,43.884 50.273,41.988 C52.582,36.736 48.519,32.034 44.019,30.951 C41.88,30.435 39.346,30.425 37.341,30.601 C38.093,30.146 38.901,29.71 39.787,29.302 C44.136,27.327 48.801,26.481 53.26,26.872 C54.594,26.989 56.005,27.248 56.916,27.454 C56.966,28.13 57,28.811 57,29.5 C57,39.154 51.994,47.657 44.447,52.565 M12.307,50.94 C17.986,50.332 29.907,49.896 39.271,55.2 C36.233,56.359 32.94,57 29.5,57 C22.998,57 17.019,54.726 12.307,50.94 M29.5,2 C41.7,2 52.065,9.989 55.652,21.008 C55.135,20.957 54.504,20.901 53.717,20.84 C48.176,20.405 42.449,21.427 37.163,23.806 C34.818,24.896 32.799,26.118 31.046,27.511 C31.04,26.136 30.942,24.793 30.858,23.629 C30.809,22.958 30.766,22.364 30.752,21.882 C30.67,19.651 31.628,18.252 32.551,17.686 C32.726,17.578 32.902,17.498 33.074,17.445 C32.891,18.242 33.138,18.863 33.302,19.163 C33.883,20.222 35.258,20.825 36.648,20.629 C38.523,20.352 39.697,18.883 39.712,16.796 C39.73,14.108 37.846,10.922 35.013,10.463 C33.196,10.167 30.7,10.539 28.662,13.683 C27.352,12.527 25.824,12.135 24.385,12.637 C23.228,13.041 22.351,13.973 21.941,15.147 C19.502,13.878 16.68,13.654 14.549,14.638 C13.325,15.203 11.884,16.349 11.169,18.685 L11.018,18.688 L11.154,18.735 C10.958,19.391 10.818,20.139 10.757,20.993 C10.675,22.809 11.58,24.773 13.009,25.88 C14.189,26.794 15.623,27.056 17.044,26.624 C18.177,26.291 19.09,25.562 19.612,24.571 C20.084,23.674 20.183,22.639 19.897,21.771 C19.826,21.517 19.737,21.275 19.632,21.046 C20.915,21.517 21.953,22.344 22.732,23.52 C26.046,28.646 24.582,34.711 21.654,38.47 C18.18,42.038 14.785,44.364 8.65,44.942 C8.013,45.002 7.457,45.092 6.941,45.199 C3.831,40.744 2,35.333 2,29.5 C2,14.336 14.337,2 29.5,2 M29.5,-3 C11.579,-3 -3,11.579 -3,29.5 C-3,47.42 11.579,62 29.5,62 C47.421,62 62,47.42 62,29.5 C62,11.579 47.421,-3 29.5,-3" id="Fill-8"></path>
            </g>
        </g>
    </g>
</svg>