<?xml version="1.0" encoding="UTF-8"?>
<svg width="66px" height="66px" viewBox="0 0 66 66" version="1.1" xmlns="http://www.w3.org/2000/svg" xmlns:xlink="http://www.w3.org/1999/xlink">
    <!-- Generator: sketchtool 48.2 (47327) - http://www.bohemiancoding.com/sketch -->
    <title>958691D5-28DD-44E1-A090-4989C96A7F1C</title>
    <desc>Created with sketchtool.</desc>
    <defs></defs>
    <g id="Palette" stroke="none" stroke-width="1" fill="none" fill-rule="evenodd" transform="translate(-1926.000000, -520.000000)">
        <g id="Group-Copy" transform="translate(1929.000000, 203.000000)" fill="#3D4FBC">
            <g id="Menu/Catalog/Active" transform="translate(0.000000, 320.000000)">
                <path d="M43.1769426,53.3796763 C40.5379426,54.8916763 37.7199426,55.9316763 34.8209426,56.5036763 C32.8699426,53.1226763 31.9229426,51.1986763 31.7509426,48.2756763 C32.7179426,49.7196763 34.0249426,50.8526763 35.5119426,51.4716763 C37.6999426,52.3826763 40.1269426,52.1266763 42.3529426,50.7486763 C44.1759426,49.5956763 45.8569426,47.2436763 45.5059426,44.6276763 C45.3649426,43.1216763 43.8299426,40.4376763 41.2689426,40.3526763 C40.0439426,40.1436763 38.4509426,40.9446763 37.6689426,42.1856763 C37.0829426,43.1126763 37.0469426,44.1476763 37.5439426,45.0226763 C37.5009426,45.0336763 37.4489426,45.0436763 37.3889426,45.0476763 C37.1529426,45.0636763 36.4979426,45.0016763 35.5839426,44.0976763 C34.2929426,42.7906763 34.1539426,41.3626763 34.2629426,40.3956763 C34.4449426,38.8026763 35.4289426,37.2966763 36.8839426,36.3736763 C37.3789426,36.0816763 37.8899426,35.7786763 38.4029426,35.5346763 C40.8099426,34.4626763 43.4149426,34.3776763 45.7379426,35.2926763 C47.7449426,36.0886763 50.9269426,40.6646763 52.8859426,44.0246763 C50.5099426,47.8626763 47.2049426,51.0736763 43.1769426,53.3796763 M5.6489426,43.1766763 C1.9989426,36.8016763 1.0509426,29.3876763 2.9779426,22.2996763 C4.5569426,16.4926763 7.9129426,11.4766763 12.5799426,7.84567635 C9.4439426,11.6466763 8.5299426,17.3326763 10.4359426,21.7406763 C14.2089426,30.9096763 23.7279426,33.7286763 30.7009426,33.5936763 C29.0179426,35.2376763 27.8109426,37.2716763 26.9339426,39.8806763 C24.7699426,46.3726763 26.0189426,51.3496763 28.8929426,57.0166763 C26.6909426,56.9626763 24.4799426,56.6446763 22.2999426,56.0516763 C15.2119426,54.1236763 9.2979426,49.5516763 5.6489426,43.1766763 M35.8769426,2.77567635 C42.3129426,5.85267635 45.7009426,11.5216763 44.5099426,15.6946763 C43.4519426,19.2396763 40.9409426,18.6286763 41.1069426,17.5656763 C41.5079426,15.2516763 38.2119426,14.6076763 37.0799426,15.6296763 C35.2199426,16.7476763 35.2259426,19.4556763 35.6619426,20.5456763 C36.4179426,22.6556763 38.5959426,24.0096763 40.6469426,24.0966763 C46.3709426,24.4666763 49.3989426,19.0396763 48.8739426,14.4416763 C48.6369426,12.3576763 47.8469426,10.0966763 47.0349426,8.30867635 C49.5539426,10.3926763 51.7069426,12.9306763 53.3799426,15.8526763 C57.0309426,22.2276763 57.9789426,29.6416763 56.0509426,36.7296763 C55.9949426,36.9336763 55.9299426,37.1326763 55.8699426,37.3346763 C53.7929426,34.0776763 50.9049426,31.3476763 47.8609426,29.8456763 C46.7729426,29.3086763 45.6829426,29.0746763 44.6299426,28.8496763 L44.1609426,28.7486763 C42.3089426,28.3966763 40.3949426,28.2756763 38.6349426,28.3996763 C34.9359426,28.6336763 32.0389426,28.4866763 29.7709426,27.9456763 C27.1519426,27.3326763 23.7819426,25.2336763 23.5839426,23.6586763 C23.4799426,22.8266763 24.4599426,22.1296763 25.3009426,21.6916763 L26.3119426,21.1646763 L25.6579426,20.2316763 C24.3709426,18.3936763 21.8079426,18.5106763 19.9729426,19.3986763 C18.8739426,19.9296763 18.0589426,20.6786763 17.5849426,21.5406763 C14.9999426,17.2166763 15.6689426,13.2206763 17.7279426,10.9476763 C18.2189426,10.4046763 18.9409426,10.0306763 19.6539426,9.96567635 C19.4089426,10.2746763 19.1899426,10.6636763 19.0079426,11.1646763 C18.7119426,11.9816763 18.7759426,12.9176763 19.1829426,13.7336763 C19.6579426,14.6866763 20.5399426,15.4006763 21.6559426,15.7396763 C23.1399426,16.2096763 24.6059426,15.9846763 25.7799426,15.1076763 C27.0089426,14.1866763 27.7519426,12.6636763 27.7189426,11.1316763 C27.6419426,8.19767635 25.9289426,5.78967635 23.1359426,4.69167635 C21.7009426,4.12867635 20.1589426,4.01267635 18.6509426,4.26067635 C22.0949426,2.77067635 25.7629426,2.00267635 29.4719426,2.00267635 C31.6079426,2.00267635 33.7539426,2.26967635 35.8769426,2.77567635 M57.7199426,13.3676763 C53.4059426,5.83367635 46.4179426,0.430676348 38.0409426,-1.84732365 C29.6639426,-4.12532365 20.9019426,-3.00332365 13.3679426,1.30967635 C5.8339426,5.62267635 0.430942598,12.6106763 -1.8470574,20.9876763 C-4.1250574,29.3636763 -3.0040574,38.1266763 1.3089426,45.6606763 C5.6219426,53.1946763 12.6119426,58.5986763 20.9889426,60.8756763 C23.8239426,61.6476763 26.7039426,62.0286763 29.5659426,62.0286763 C35.1559426,62.0286763 40.6779426,60.5716763 45.6609426,57.7196763 C53.1959426,53.4056763 58.5989426,46.4176763 60.8759426,38.0406763 C63.1539426,29.6636763 62.0319426,20.9016763 57.7199426,13.3676763" id="Fill-12"></path>
            </g>
        </g>
    </g>
</svg>