<?xml version="1.0" encoding="UTF-8"?>
<svg width="65px" height="65px" viewBox="0 0 65 65" version="1.1" xmlns="http://www.w3.org/2000/svg" xmlns:xlink="http://www.w3.org/1999/xlink">
    <!-- Generator: sketchtool 48.2 (47327) - http://www.bohemiancoding.com/sketch -->
    <title>07F48343-2BEA-4E86-813D-7E6FC23DE9D2</title>
    <desc>Created with sketchtool.</desc>
    <defs></defs>
    <g id="Palette" stroke="none" stroke-width="1" fill="none" fill-rule="evenodd" transform="translate(-1926.000000, -280.000000)">
        <g id="Group-Copy" transform="translate(1929.000000, 203.000000)" fill="#FF9300">
            <g id="Menu/Nano-grafin/Active" transform="translate(0.000000, 80.000000)">
                <path d="M29.5,57 C26.014,57 22.68,56.341 19.607,55.152 C21.393,53.104 25.012,49.564 30.436,47.038 C30.963,46.962 39.032,45.848 41.247,48.957 C41.247,48.957 43.11,46.103 41.664,44.175 C44.841,43.964 48.337,44.2 52.152,45.068 C47.187,52.269 38.888,57 29.5,57 M2.503,34.717 C3.061,35.078 3.798,35.51 4.765,36.076 C8.795,38.434 13.34,39.63 17.758,39.63 C21.073,39.63 24.317,38.956 27.217,37.594 C27.86,37.359 29.072,36.584 31.16,35.235 C33.171,33.935 35.925,32.154 36.944,31.845 C40.185,30.853 43.011,30.536 45.831,30.85 C46.335,30.906 46.786,30.962 47.186,31.061 C47.954,31.28 48.737,31.617 49.5,32.052 C51.138,33.024 52.459,34.5 53.428,36.437 L54.035,37.65 L55.015,36.712 C55.618,36.133 56.095,35.511 56.471,34.863 C56.079,36.84 55.472,38.738 54.68,40.539 C31.873,34.596 18.431,48.667 15.022,52.866 C8.627,48.889 3.978,42.363 2.503,34.717 M29.5,2 C44.652,2 56.982,14.32 56.999,29.469 C56.094,26.852 53.61,24.695 50.492,23.906 C48.335,23.376 45.963,23.538 43.854,24.006 C45.046,22.273 45.865,20.242 46.204,18.092 C46.634,15 46.018,12.338 44.469,10.598 C43.136,9.102 41.14,8.333 38.684,8.393 C36.607,8.46 34.061,9.677 33.055,12.23 C32.513,13.546 32.365,16.715 34.431,18.181 C35.294,18.999 36.875,19.172 38.174,18.575 C39.224,18.092 39.846,17.198 39.906,16.124 C40.214,16.426 40.679,17.211 40.88,18.978 C41.256,22.299 37.558,24.591 36.418,25.213 C35.701,25.602 34.158,26.517 32.372,27.577 C30.387,28.754 27.992,30.175 26.022,31.294 C26.589,29.788 26.627,28.35 26.66,27.089 C26.717,25.132 26.755,23.839 28.273,22.216 L28.717,21.742 L28.464,21.144 C28.017,20.085 26.74,19.489 25.086,19.522 C24.27,19.543 23.313,19.728 22.567,20.146 C21.731,19.258 20.412,18.708 18.974,18.701 C18.166,17.953 17.738,17.059 17.791,16.207 C17.827,15.619 18.088,15.096 18.534,14.699 C19.612,14.988 20.384,14.611 20.796,14.317 C21.201,14.012 21.529,13.52 21.663,12.978 C21.813,12.201 21.598,11.493 21.06,10.984 C20.115,10.089 18.426,10.089 17.593,10.299 C15.278,10.854 13.731,13.317 13.307,14.07 C10.916,18.439 13.079,23.313 16.326,25.681 C18.425,27.213 19.67,29.237 19.425,30.718 C19.194,32.11 17.657,32.868 16.33,33.286 C13.774,34.326 5.311,29.512 2.385,24.939 C4.564,11.94 15.891,2 29.5,2 M29.5,-3 C11.579,-3 -3,11.58 -3,29.5 C-3,47.42 11.579,62 29.5,62 C47.421,62 62,47.42 62,29.5 C62,11.58 47.421,-3 29.5,-3" id="Fill-6"></path>
            </g>
        </g>
    </g>
</svg>