<?xml version="1.0" encoding="UTF-8"?>
<svg width="65px" height="65px" viewBox="0 0 65 65" version="1.1" xmlns="http://www.w3.org/2000/svg" xmlns:xlink="http://www.w3.org/1999/xlink">
    <!-- Generator: sketchtool 48.2 (47327) - http://www.bohemiancoding.com/sketch -->
    <title>096A3DA6-19C5-4E25-9297-0CD87CF11A0C</title>
    <desc>Created with sketchtool.</desc>
    <defs></defs>
    <g id="Palette" stroke="none" stroke-width="1" fill="none" fill-rule="evenodd" transform="translate(-1926.000000, -200.000000)">
        <g id="Group-Copy" transform="translate(1929.000000, 203.000000)" fill="#CB0028">
            <g id="Menu/Home/Active">
                <path d="M29.5,57 C21.109,57 13.589,53.218 8.54,47.274 C9.536,47.846 10.668,48.442 11.992,49.067 C14.027,50.027 17.189,51.045 19.511,51.488 L20.006,51.582 L20.097,51.086 C20.309,49.919 20.605,48.951 21.362,48.017 L22.001,47.228 L20.986,47.202 C19.198,47.157 14.826,45.645 11.433,44.174 C8.825,43.045 6.091,40.98 3.395,38.129 C2.494,35.414 2,32.514 2,29.5 C2,14.336 14.337,2 29.5,2 C32.356,2 35.111,2.438 37.703,3.25 C37.501,5.562 37.579,8.028 37.976,10.634 C36.647,9.924 35.261,9.373 33.83,8.989 C29.287,7.812 24.585,8.366 20.566,10.558 C20.189,10.772 19.814,10.989 19.502,11.197 C16.047,13.448 13.592,16.862 12.591,20.813 C11.927,23.466 11.965,26.255 12.695,28.864 C14.322,34.992 18.11,36.866 22.905,39.238 L22.99,39.28 C25.09,40.349 27.026,43.218 26.635,47.129 C24.788,47.159 23.241,47.887 22.304,49.198 C21.339,50.545 21.177,52.314 21.879,53.814 C22.308,54.729 23.143,55.431 24.231,55.791 C24.754,55.963 25.309,56.048 25.87,56.048 C26.787,56.048 27.719,55.821 28.546,55.376 C30.264,54.407 31.17,52.88 31.636,51.248 L31.598,51.712 L33.025,51.25 C34.586,50.745 36.269,49.914 38.177,48.706 C43.09,45.532 46.554,40.693 47.924,35.099 C49.161,30.476 48.814,25.56 46.922,20.884 L46.922,20.883 C46.475,19.779 46.047,18.823 45.643,17.921 C44.575,15.538 43.732,13.656 43.127,10.385 C42.812,8.666 42.661,6.986 42.675,5.369 C51.203,10.044 57,19.107 57,29.5 C57,44.664 44.663,57 29.5,57 M30.374,40.04 C31.376,40.035 32.445,39.85 33.327,39.41 C34.396,38.877 36.033,37.552 35.657,34.515 C37.607,33.52 38.351,32.256 39.085,30.153 L39.257,29.661 L38.951,29.238 C38.209,28.21 36.69,26.585 34.333,26.214 C34.277,25.423 33.94,24.637 33.366,24.047 C32.73,23.394 31.902,23.067 30.984,23.098 C30.585,21.866 29.625,20.819 28.377,20.331 C26.495,19.574 24.668,19.834 23.484,21.025 C22.474,22.044 22.16,23.529 22.686,24.807 C22.957,25.467 23.852,26.949 26.445,27.152 C26.991,28.148 26.6,29.21 26.044,29.865 C25.096,30.983 23.042,31.759 20.396,30.275 C19.194,29.583 18.312,28.408 17.772,26.782 C17.465,25.2 17.5,23.608 17.874,22.063 C18.554,19.395 20.143,17.181 22.548,15.603 C22.685,15.494 22.883,15.384 23.106,15.294 L23.221,15.24 C25.972,13.706 29.292,13.326 32.569,14.169 C35.808,15.003 38.548,16.973 40.298,19.736 C40.628,20.229 40.837,20.577 41.013,20.927 C43.199,24.927 43.831,29.497 42.794,33.793 C41.763,38.016 39.105,41.708 35.316,44.188 C34.585,44.661 33.685,45.086 32.641,45.452 L32.052,45.658 C31.896,43.578 31.327,41.681 30.374,40.04 M29.5,-3 C11.579,-3 -3,11.58 -3,29.5 C-3,47.42 11.579,62 29.5,62 C47.421,62 62,47.42 62,29.5 C62,11.58 47.421,-3 29.5,-3" id="Fill-1"></path>
            </g>
        </g>
    </g>
</svg>