<?xml version="1.0" encoding="UTF-8"?>
<svg width="200px" height="51px" viewBox="0 0 200 51" version="1.1" xmlns="http://www.w3.org/2000/svg" xmlns:xlink="http://www.w3.org/1999/xlink">
    <!-- Generator: sketchtool 48.2 (47327) - http://www.bohemiancoding.com/sketch -->
    <title>5B969CA7-0483-49D7-8AC1-35E6434E5C9D</title>
    <desc>Created with sketchtool.</desc>
    <defs></defs>
    <g id="Symbols" stroke="none" stroke-width="1" fill="none" fill-rule="evenodd">
        <g id="Logo/RADUGA/B">
            <g id="Logo/RADUGA/W">
                <path d="M140.2,1.5 L145.7,1.5 L145.7,44.9 C145.7,45.8 145.8,47.6 146.9,48.3 C147.4,48.6 148,48.7 148.6,48.7 C149.2,48.7 149.8,48.6 150.3,48.3 C151.3,47.7 151.5,45.9 151.5,44.9 L151.5,1.5 L156.9,1.5 L156.9,44.4 C156.9,46 156.6,48 155.1,49.2 C153.5,50.5 150.8,50.7 148.6,50.7 C146.5,50.7 143.8,50.5 142.2,49.3 C140.6,48.1 140.3,46.1 140.3,44.4 L140.3,1.5 L140.2,1.5 Z" id="Shape" fill="#000000"></path>
                <path d="M175.9,2.4 C177.5,3.6 177.8,5.6 177.8,7.2 L177.8,16.2 L172.4,16.2 L172.4,13.6 L172.4,6.8 C172.4,5.2 172.1,3 169.6,3 C167,3 166.8,5.2 166.8,6.8 L166.8,44.9 C166.8,46.6 167.1,48.6 169.6,48.6 C172.2,48.6 172.4,46.5 172.4,44.9 L172.4,25.9 L169.8,25.9 L169.8,22.9 L177.8,22.9 L177.8,44.3 C177.8,45.9 177.5,48 176,49.2 C174.5,50.4 171.6,50.6 169.5,50.6 C167.4,50.6 164.7,50.4 163.1,49.2 C161.5,48 161.2,46 161.2,44.3 L161.2,7.2 C161.2,5.6 161.5,3.5 163.1,2.3 C164.7,1.1 167.5,0.9 169.5,0.9 C171.5,1 174.4,1.2 175.9,2.4" id="Shape" fill="#000000"></path>
                <path d="M82.3,3.3 L82.3,22.8 L84.2,22.8 C85.1,22.8 86.6,22.7 87.2,22.2 C87.9,21.5 88,20.5 88,19.6 L88,6.6 C88,5.9 87.9,4.6 87.3,4 C86.6,3.4 85.1,3.3 84.2,3.3 L82.3,3.3 Z M86.8,50.1 C87.3,49.2 87.8,48 88,46.2 L88,28.7 C88,28 87.9,26.7 87.3,26.1 C86.6,25.5 85.1,25.4 84.2,25.4 L82.3,25.4 L82.3,45.1 C82.4,47.5 82.9,48.9 83.5,50 C80.9,50 78.1,50 75.6,50 C76.2,48.9 76.7,47.5 76.8,45.3 L76.8,1.3 L85.1,1.3 C87.1,1.3 89.9,1.4 91.5,2.5 C93.2,3.6 93.4,5.8 93.4,7.4 L93.4,18.3 C93.4,19.5 93.3,21.1 92.7,22.2 C92.2,23 91.5,23.6 90.5,24 C91.4,24.4 92.2,25 92.7,25.9 C93.3,27 93.4,28.6 93.4,29.8 L93.4,45.7 C93.6,47.7 94,49 94.6,50 C92.1,50.1 89.3,50.1 86.8,50.1 Z" id="Shape" fill="#000000"></path>
                <path d="M103.8,23 C105.6,23 107.6,23 109.6,23 L109.6,3.7 C106.4,3.7 103.8,3.9 103.8,7.4 C103.8,13.3 103.8,17 103.8,23 Z M108.5,50.2 C109,49.3 109.5,48.1 109.6,46.4 C109.6,39 109.6,33.3 109.6,25.9 C107.6,25.9 105.7,25.9 103.8,25.9 L103.8,46 C104,47.9 104.4,49.1 105,50.1 L103.8,50.1 L103.7,50.1 C101.7,50.1 99.3,50.1 97.3,50.1 C97.8,49.1 98.3,47.9 98.5,46.1 L98.5,7.7 C98.5,6.1 98.8,4 100.3,2.8 C101.9,1.6 104.8,1.4 106.8,1.4 L115,1.4 L115,45.7 C115.1,47.8 115.6,49.1 116.2,50.1 C113.7,50.2 110.9,50.2 108.5,50.2 Z" id="Shape" fill="#000000"></path>
                <path d="M125.2,3.5 L125.2,48.2 L127.1,48.2 C128,48.2 129.5,48.1 130.1,47.6 C130.8,46.9 130.9,45.9 130.9,45 L130.9,6.8 C130.9,6.1 130.8,4.8 130.2,4.2 C129.5,3.6 128,3.5 127.1,3.5 L125.2,3.5 Z M118.5,50.2 C119.2,49 119.7,47.5 119.7,44.9 L119.7,1.5 L127.8,1.5 C129.8,1.5 132.8,1.6 134.4,2.7 C136.1,3.8 136.3,6 136.3,7.6 L136.3,44 C136.3,45.6 136.1,47.8 134.4,48.9 C132.8,50 129.9,50.2 127.8,50.2 L118.5,50.2 Z" id="Shape" fill="#000000"></path>
                <path d="M187.6,23 C189.4,23 191.4,23 193.4,23 L193.4,3.7 C190.2,3.7 187.6,3.9 187.6,7.4 C187.6,13.3 187.6,17 187.6,23 Z M192.3,50.2 C192.8,49.3 193.3,48.1 193.4,46.4 C193.4,39 193.4,33.3 193.4,25.9 C191.5,25.9 189.5,25.9 187.6,25.9 L187.6,46 C187.8,47.9 188.2,49.1 188.8,50.1 L187.6,50.1 L187.5,50.1 C185.5,50.1 183.1,50.1 181.1,50.1 C181.6,49.1 182.1,47.9 182.3,46.1 L182.3,7.7 C182.3,6.1 182.6,4 184.1,2.8 C185.7,1.6 188.6,1.4 190.6,1.4 L198.8,1.4 L198.8,45.7 C198.9,47.8 199.4,49.1 200,50.1 C197.5,50.2 194.7,50.2 192.3,50.2 Z" id="Shape" fill="#000000"></path>
                <rect id="Rectangle-path" fill="#BA2921" x="0" y="1.5" width="4" height="48.8"></rect>
                <rect id="Rectangle-path" fill="#D48729" x="8.1" y="1.5" width="4" height="48.8"></rect>
                <rect id="Rectangle-path" fill="#E8BF00" x="12.1" y="1.5" width="4" height="48.8"></rect>
                <rect id="Rectangle-path" fill="#FCF500" x="16.1" y="1.5" width="4" height="48.8"></rect>
                <rect id="Rectangle-path" fill="#CFDE21" x="20.1" y="1.5" width="4" height="48.8"></rect>
                <rect id="Rectangle-path" fill="#8CBA52" x="28.2" y="1.5" width="4" height="48.8"></rect>
                <rect id="Rectangle-path" fill="#70B073" x="32.2" y="1.5" width="4" height="48.8"></rect>
                <rect id="Rectangle-path" fill="#59A385" x="36.2" y="1.5" width="4" height="48.8"></rect>
                <rect id="Rectangle-path" fill="#0091AD" x="40.3" y="1.5" width="4" height="48.8"></rect>
                <rect id="Rectangle-path" fill="#A6C936" x="24.2" y="1.5" width="4" height="48.8"></rect>
                <rect id="Rectangle-path" fill="#146BB0" x="44.3" y="1.5" width="4" height="48.8"></rect>
                <rect id="Rectangle-path" fill="#245499" x="48.3" y="1.5" width="4" height="48.8"></rect>
                <rect id="Rectangle-path" fill="#264282" x="52.3" y="1.5" width="4" height="48.8"></rect>
                <rect id="Rectangle-path" fill="#292B75" x="56.4" y="1.5" width="4" height="48.8"></rect>
                <rect id="Rectangle-path" fill="#5C3073" x="64.4" y="1.5" width="4" height="48.8"></rect>
                <rect id="Rectangle-path" fill="#C75C1F" x="4" y="1.5" width="4" height="48.8"></rect>
                <rect id="Rectangle-path" fill="#452670" x="60.4" y="1.5" width="4" height="48.8"></rect>
            </g>
        </g>
    </g>
</svg>