<?xml version="1.0" encoding="UTF-8"?>
<svg width="160px" height="152px" viewBox="0 0 160 152" version="1.1" xmlns="http://www.w3.org/2000/svg" xmlns:xlink="http://www.w3.org/1999/xlink">
    <!-- Generator: sketchtool 48.2 (47327) - http://www.bohemiancoding.com/sketch -->
    <title>BB9B0149-3448-4052-B569-8B10466BC423</title>
    <desc>Created with sketchtool.</desc>
    <defs></defs>
    <g id="Symbols" stroke="none" stroke-width="1" fill="none" fill-rule="evenodd">
        <g id="Logo/Raduga-nano-filter" fill="#000000" fill-rule="nonzero">
            <g id="Shape">
                <path d="M64.5896629,16.5869663 C65.4238202,15.9874157 66.1824719,15.3501124 66.531236,15.0588764 C66.5957771,14.9581338 66.7145225,14.9060276 66.8323596,14.9267416 C66.8924916,14.9367026 66.9455197,14.9718399 66.9781319,15.0233329 C67.0107442,15.0748259 67.0198436,15.1377847 67.0031461,15.1964045 C66.9213483,15.548764 64.792809,16.9698876 64.4773034,17.1874157 C64.218427,17.367191 63.8642697,17.5991011 63.4750562,17.8121348 C62.6308215,18.3613444 61.6406203,18.6432745 60.6337079,18.6211236 C60.0660597,18.6463461 59.5089904,18.4617229 59.068764,18.1024719 C58.6692509,17.7563095 58.4473001,17.248333 58.4647191,16.72 C58.4826271,16.0139415 58.7497776,15.3369903 59.2188764,14.8089888 C59.5883404,14.2729122 60.1789893,13.9310618 60.8278652,13.8777528 L61.0130337,13.8777528 L62.0539326,12.7146067 C62.4916854,12.2516854 62.9150562,11.7662921 63.3321348,11.2835955 C63.4693991,10.7407668 63.7162572,10.2317556 64.0575281,9.78786517 C64.2890057,9.42173883 64.6702093,9.17637395 65.0993258,9.11730337 C65.1961708,9.10680324 65.2927204,9.13952384 65.3632276,9.20673949 C65.4337347,9.27395514 65.4710303,9.36883141 65.4651685,9.46606742 C65.4651685,10.0404494 64.2067416,11.1424719 63.7573034,11.5289888 C63.7145807,11.7209117 63.6913914,11.9166656 63.6880899,12.1132584 C63.7891188,12.8928448 64.0286921,13.6480942 64.3955056,14.3433708 C64.6134226,14.7743978 64.7406853,15.2455146 64.7694382,15.7276404 C64.7713329,16.0244799 64.7100512,16.3183257 64.5896629,16.5896629 L64.5896629,16.5869663 Z M63.2476404,12.0952809 C62.6579775,12.785618 62.051236,13.4642697 61.4444944,14.138427 C61.5687535,14.271638 61.6378239,14.4470446 61.6377528,14.6292135 C61.6377528,15.3734831 60.8170787,15.6467416 60.2175281,15.7644944 C59.8935303,15.828083 59.5992787,15.9960463 59.3797753,16.2426966 C59.1679407,16.4486316 59.042848,16.7277589 59.0301124,17.0229213 C59.0234476,17.3050205 59.1479464,17.5742697 59.367191,17.7519101 C59.6137702,17.954909 59.9262255,18.0604466 60.2453933,18.0485393 C61.0672892,17.9844603 61.8189592,17.5607618 62.2993258,16.8907865 C62.9241711,16.2000879 63.2757165,15.3052451 63.2880899,14.3739326 C63.2880899,14.1357303 63.2782022,13.8975281 63.2602247,13.6602247 C63.2332584,13.3078652 63.2323596,12.9411236 63.2323596,12.5923596 C63.2359551,12.4296629 63.2386517,12.2624719 63.2476404,12.0961798 L63.2476404,12.0952809 Z M105.348315,6.23820225 L105.754607,6.23820225 C105.961116,6.21462098 106.167095,6.28659181 106.31398,6.4336524 C106.460866,6.58071298 106.532591,6.78677736 106.508764,6.99325843 C106.50767,7.29236924 106.3728,7.57530014 106.141124,7.76449438 C105.904357,7.97306387 105.598178,8.08559675 105.282697,8.08 C105.021766,8.11775812 104.75797,8.03338854 104.567377,7.85122029 C104.376785,7.66905203 104.280585,7.40933663 104.306517,7.14696629 C104.313917,6.64767859 104.562421,6.18282312 104.973483,5.89932584 C105.411457,5.56421482 105.950211,5.3876937 106.501573,5.39865169 C107.100674,5.38596739 107.677392,5.62629567 108.090201,6.06065982 C108.503009,6.49502396 108.713697,7.08321806 108.670562,7.68089888 C108.670562,9.73932584 107.294382,11.6934831 105.973933,13.1496629 C104.509663,14.7595506 102.634607,16.1240449 100.37573,16.1240449 C99.244689,16.1663577 98.1471071,15.7357929 97.3465169,14.9357303 C96.559136,14.1173274 96.1374668,13.0145002 96.1779775,11.8795506 C96.2557776,9.98242316 96.9636358,8.16533409 98.1896629,6.71550562 C100.532135,3.72224719 104.497079,1.52719101 107.723146,1.52719101 C111.048989,1.52719101 112.998652,3.84089888 112.998652,6.96629213 C112.942489,8.8759503 112.401481,10.7399381 111.426517,12.3829213 C110.293183,14.4480914 108.899309,16.3591548 107.279101,18.0692135 C109.822607,15.9239922 112.220422,13.6117597 114.456629,11.1478652 C119.580225,5.39955056 125.529888,0.00179775281 132.826966,0.00179775281 C133.153258,0.00179775281 134.080066,0.00179775281 134.08,0.50247191 C134.082309,0.637487148 134.02379,0.76638561 133.920627,0.853516634 C133.817463,0.940647658 133.680591,0.976776296 133.547865,0.951910112 L133.315056,0.951910112 C132.913277,0.906527146 132.509473,0.881326941 132.105169,0.876404494 C129.293483,0.876404494 126.315506,2.25438202 123.939775,3.65662921 C120.19236,5.87955056 117.365393,9.0094382 114.373034,12.1348315 C112.961798,13.6107865 111.516404,15.0741573 110.011685,16.4557303 C109.027731,17.3917688 107.973895,18.251485 106.859326,19.0274157 C106.375682,19.3850166 105.856368,19.6916649 105.309663,19.9424719 C105.249281,19.9466071 105.18999,19.9248637 105.146598,19.8826717 C105.103205,19.8404798 105.079807,19.7818224 105.082247,19.7213483 L105.082247,19.6710112 L105.114607,19.6314607 C105.21618,19.5038202 105.318652,19.3761798 105.420225,19.2476404 C108.026966,16.138427 111.212584,10.7325843 111.212584,6.51865169 C111.212584,4.04674157 110.245393,2.02426966 107.639551,2.02426966 C106.484555,2.07897573 105.355523,2.38577786 104.331685,2.92314607 C103.070122,3.53400337 101.908459,4.33259022 100.886292,5.29168539 C99.7870965,6.30455386 98.8727537,7.50116882 98.1842697,8.82786517 C97.5725781,9.93693718 97.2310505,11.1746282 97.1874157,12.4404494 C97.1416208,13.3041325 97.451885,14.148831 98.0458427,14.7775281 C98.6839624,15.3664579 99.5328564,15.6727598 100.4,15.6269663 C102.779326,15.6269663 104.727191,13.8930337 106.141124,12.1429213 C107.105618,10.9420225 108.133933,9.32853933 108.133933,7.72764045 C108.183395,7.26471409 108.03394,6.80256099 107.72278,6.45625634 C107.41162,6.10995168 106.968033,5.9120797 106.502472,5.91191011 C106.210981,5.91483942 105.922597,5.97215039 105.652135,6.08089888 C105.545829,6.12179282 105.443771,6.17297211 105.347416,6.23370787 L105.348315,6.23820225 Z M71.8696629,9.15325843 C71.8554484,9.5092435 71.6923748,9.84289212 71.4202247,10.072809 C71.1639569,10.3355815 70.8146121,10.4870073 70.4476404,10.494382 C70.2488698,10.523751 70.0475489,10.4609418 69.9007405,10.3237573 C69.753932,10.1865728 69.677638,9.9899658 69.6934831,9.78966292 C69.7130259,9.43806818 69.8809756,9.11131779 70.1555056,8.89078652 C70.4191924,8.6294279 70.7730928,8.47918109 71.1442697,8.47101124 C71.3357791,8.44308211 71.5295912,8.50381614 71.6709132,8.63604317 C71.8122352,8.76827021 71.8857087,8.95762017 71.8705618,9.1505618 L71.8696629,9.15325843 Z M56.0674157,12.0889888 C55.4777528,12.7793258 54.8710112,13.4579775 54.2642697,14.1321348 C54.3885288,14.2653458 54.4575992,14.4407525 54.4575281,14.6229213 C54.4575281,15.367191 53.6368539,15.6404494 53.0373034,15.7582022 C52.7133055,15.8217908 52.4190539,15.9897542 52.1995506,16.2364045 C51.9873343,16.4420722 51.8621697,16.7213597 51.8498876,17.0166292 C51.8432229,17.2987283 51.9677216,17.5679776 52.1869663,17.745618 C52.4336278,17.9484686 52.7460252,18.0539866 53.0651685,18.0422472 C53.8870645,17.9781681 54.6387344,17.5544697 55.1191011,16.8844944 C55.7439464,16.1937958 56.0954918,15.298953 56.1078652,14.3676404 C56.1078652,14.1294382 56.0979775,13.891236 56.08,13.6539326 C56.0539326,13.301573 56.051236,12.9348315 56.051236,12.5860674 C56.051236,12.421573 56.051236,12.254382 56.0638202,12.0880899 L56.0674157,12.0889888 Z M41.534382,3.18921348 C44.9986517,5.5388764 43.2251685,9.82831461 39.0957303,10.1842697 C39.8110457,10.6286177 40.2393649,11.4169436 40.2229213,12.2588764 C40.2229213,13.971236 39.0301124,15.4516854 39.0301124,17.1208989 C39.0941318,18.082798 39.9211322,18.8135424 40.8835955,18.7586517 C41.6721311,18.7190815 42.4160812,18.38101 42.9644944,17.8130337 C42.8305235,17.5602039 42.7627982,17.277551 42.7676404,16.9914607 C42.8924923,16.1913222 43.2150461,15.4349892 43.7060674,14.7910112 L45.9217978,11.3860674 L46.0116854,11.4013483 C46.2436769,11.4445888 46.4787073,11.4695345 46.7146067,11.4759551 C47.0049438,11.4759551 47.3303371,11.4346067 47.6188764,11.4049438 L47.9235955,11.3734831 L44.5276404,16.4853933 C44.2591252,16.8495482 44.0947523,17.2799006 44.0521348,17.7303371 C44.0269639,17.840413 44.0576699,17.9558221 44.1342146,18.0388353 C44.2107592,18.1218485 44.323304,18.1617959 44.4350562,18.145618 C45.7078652,18.145618 48.0889888,14.4422472 48.6831461,13.5182022 L50.0808989,11.3842697 L50.1707865,11.4022472 C50.3904903,11.4464992 50.613688,11.4711653 50.8377528,11.4759551 C51.1585316,11.4702826 51.4787375,11.4465747 51.7968539,11.4049438 L52.1078652,11.3689888 L49.7653933,14.858427 C49.425618,15.3626966 48.2373034,17.1433708 48.2373034,17.7555056 C48.2192877,17.8675308 48.2577763,17.981223 48.3401367,18.0592676 C48.4224971,18.1373122 48.5380944,18.1696314 48.6489888,18.145618 C49.4822472,18.145618 50.9141573,16.4692135 51.4166292,15.8660674 C51.5550842,15.4766834 51.7627658,15.1155245 52.0296629,14.8 C52.3991269,14.2639234 52.9897758,13.922073 53.6386517,13.868764 L53.8238202,13.868764 L54.8647191,12.705618 C55.3024719,12.2426966 55.7258427,11.7573034 56.1429213,11.2746067 C56.279867,10.7318313 56.5264214,10.2228158 56.8674157,9.7788764 C57.0992679,9.41270661 57.4807546,9.16737122 57.9101124,9.10831461 C58.0069573,9.09781447 58.1035069,9.13053508 58.1740141,9.19775073 C58.2445212,9.26496638 58.2818168,9.35984265 58.2759551,9.45707865 C58.2759551,10.0314607 57.0175281,11.1334831 56.5680899,11.52 C56.5250709,11.711893 56.5015804,11.9076467 56.4979775,12.1042697 C56.5997402,12.8838127 56.8395938,13.6389862 57.2062921,14.334382 C57.4238996,14.7655275 57.5511448,15.2365793 57.5802247,15.7186517 C57.5813832,16.1343761 57.459059,16.5410807 57.228764,16.887191 C58.1402247,16.32 58.9878652,15.6898876 59.3689888,15.4067416 C59.4396393,15.3098564 59.5615443,15.2648508 59.6782022,15.2925843 C59.7369092,15.3064149 59.7870982,15.344287 59.8165054,15.3969464 C59.8459126,15.4496058 59.851829,15.5122016 59.832809,15.5694382 C59.7294382,15.9164045 57.5208989,17.207191 57.192809,17.4049438 C56.5797547,17.7923132 55.9205249,18.1012422 55.2305618,18.3244944 C54.6546815,18.5200139 54.0499369,18.6169553 53.4417978,18.611236 C52.8741496,18.6364585 52.3170803,18.4518353 51.8768539,18.0925843 C51.4800018,17.7490686 51.2582792,17.2455736 51.272809,16.7208989 L51.1919101,16.8107865 C50.6031461,17.44 49.4435955,18.6085393 48.5078652,18.6085393 C48.0894392,18.6126401 47.6887967,18.4395834 47.4049438,18.1321348 C47.1028928,17.8191659 46.9384852,17.3984377 46.9483146,16.9635955 C46.9508859,16.8261083 46.9726699,16.689656 47.0130337,16.5582022 C46.3838202,17.2970787 45.4058427,18.6094382 44.3164045,18.6094382 C43.938474,18.6182876 43.5712721,18.4833577 43.2889888,18.2319101 C42.6122552,18.8748572 41.7222562,19.2457702 40.7892135,19.2737079 C39.707351,19.2786439 38.7028684,18.7133877 38.145618,17.7860674 C37.0364045,16.0062921 37.9047191,13.9523596 38.574382,12.1797753 C38.7157992,11.8401055 38.7973039,11.4785044 38.8152809,11.1110112 C38.8128817,10.7781409 38.6544834,10.4656704 38.3874157,10.2669663 C38.0826966,10.2957303 37.731236,10.3388764 37.4337079,10.3388764 C37.1361798,10.3388764 35.9577528,10.3730337 35.9577528,9.8894382 C35.9577528,9.54337079 36.5357303,9.54157303 36.7667416,9.54157303 C37.31762,9.54428206 37.8642807,9.63782179 38.3847191,9.81842697 C40.3672213,9.58449629 41.8679433,7.91523165 41.8903371,5.91910112 C41.859404,5.0713492 41.5056927,4.26745995 40.901573,3.67191011 L40.8476404,3.61258427 C38.5024719,5.26651685 36.6948315,8.08898876 35.3941573,10.5905618 C32.9914607,15.1901124 29.0355056,19.228764 23.5289888,19.228764 C22.4466652,19.2650217 21.3763705,18.9925377 20.4431461,18.4431461 C19.6839211,18.0444255 19.1972425,17.2687599 19.1685393,16.4116854 C19.1597798,15.9714165 19.3207035,15.5446469 19.6179775,15.2197753 C19.8861937,14.9014274 20.2803631,14.7164963 20.6966292,14.7137079 C20.9663513,14.6816966 21.2357414,14.7760319 21.4265683,14.9693188 C21.6173951,15.1626057 21.7082723,15.433182 21.672809,15.7024719 C21.6802062,16.0084771 21.5664955,16.3050294 21.3564045,16.5276404 C21.1503468,16.7484554 20.8601733,16.8713217 20.5582022,16.865618 C20.1833323,16.9213166 19.8316679,16.6701844 19.7626966,16.2975281 C19.7626966,16.3622472 19.7626966,16.4161798 19.7626966,16.4404494 C19.7870706,17.1203267 20.1812479,17.7324568 20.7901124,18.0359551 C21.6170403,18.4982975 22.5552872,18.7240738 23.5020225,18.6885393 C25.4725785,18.5996703 27.3474267,17.8134128 28.7919101,16.4701124 C30.8593258,14.7730337 32.6004494,11.8579775 34.1492135,9.70516854 C35.8363227,7.20748094 37.9504612,5.02670511 40.3946067,3.26292135 C38.7307865,2.05303371 36.4260674,1.76269663 34.4332584,1.76269663 C30.7954494,1.71096848 27.2760575,3.05490591 24.5986517,5.51820225 C23.018427,6.93393258 21.1829213,9.00044944 21.1829213,11.265618 C21.1459435,12.0715393 21.4857655,12.8488447 22.1024719,13.3689888 C22.8307486,13.9218384 23.7314346,14.1986051 24.6444944,14.1501124 C26.70927,14.0214157 28.6662112,13.1834524 30.1842697,11.7779775 C31.5011236,10.6903371 33.0444944,9.08134831 33.0444944,7.24314607 C33.0444944,6.01977528 32.3146067,5.5811236 31.1631461,5.5811236 C29.5542841,5.73108579 28.0527989,6.45391675 26.9321348,7.61797753 C25.9047191,8.54382022 24.6777528,9.91460674 24.6777528,11.3932584 C24.6770929,11.6429686 24.7776226,11.8822943 24.9564045,12.0566292 C25.1249941,12.2420362 25.3646968,12.3466813 25.6152809,12.3442697 C25.6968564,12.325263 25.7826615,12.3409868 25.8521967,12.3876844 C25.9217319,12.4343821 25.9687516,12.5078593 25.9820225,12.5905618 C25.9638852,12.6762361 25.9117066,12.7508599 25.8374638,12.797304 C25.763221,12.8437481 25.6732904,12.8580237 25.5883146,12.8368539 C25.1183831,12.8354821 24.6746777,12.6200816 24.3829213,12.2516854 C24.05091,11.8553088 23.8756665,11.3510042 23.8903371,10.8341573 C24.0764045,6.75775281 33.1532584,2.21033708 33.5820225,7.19370787 C33.5820225,9.22696629 32.0278652,10.9465169 30.5617978,12.167191 C28.9341831,13.6711216 26.8307085,14.5566612 24.6175281,14.6696629 C23.4812046,14.7236218 22.3678468,14.3372628 21.5092135,13.5910112 C20.7234549,12.8453608 20.2975539,11.7969892 20.3406742,10.7146067 C20.3406742,7.82202247 22.4880899,5.68089888 24.7316854,4.17977528 C27.5775077,2.2487085 30.9429676,1.22803624 34.3820225,1.25303371 C36.7144412,1.18226597 39.0232777,1.73720611 41.068764,2.86022472 C42.5182389,1.98238308 44.1720035,1.49867942 45.8660674,1.45707865 C46.9625959,1.41004153 48.0366543,1.7774741 48.8746067,2.48629213 C49.6461499,3.17961704 50.070236,4.17957781 50.0323596,5.21617978 C50.0267487,5.70946801 49.9597158,6.2001366 49.832809,6.67685393 C49.8148396,7.03081396 49.6292067,7.3550038 49.3330337,7.54966292 C49.2584315,7.55646914 49.1845228,7.53073866 49.1302762,7.4790752 C49.0760295,7.42741174 49.0467265,7.35484528 49.0498876,7.28 C49.0543239,7.22642332 49.0673755,7.17391336 49.0885393,7.12449438 C49.325776,6.54379258 49.4449492,5.92164722 49.4391011,5.29438202 C49.4758707,4.39224388 49.1232736,3.51779001 48.4710112,2.89348315 C47.7650739,2.26247477 46.8397598,1.93359611 45.8939326,1.97752809 C44.3621402,2.00938271 42.8633238,2.42838337 41.5370787,3.19550562 L41.534382,3.18921348 Z M78.0952809,12.2319101 C78.1193331,12.102208 78.0780405,11.9689741 77.9848534,11.8756075 C77.8916664,11.7822409 77.7585122,11.7406919 77.628764,11.7644944 C76.6930337,11.7644944 75.1388764,12.7847191 74.0710112,14.0179775 C73.1820089,14.9693876 72.6223512,16.1813491 72.4746067,17.4750562 C72.4390803,17.6539712 72.4920541,17.8390357 72.6168698,17.9720536 C72.7416856,18.1050715 72.9230089,18.1697008 73.1038202,18.145618 C73.9667416,18.145618 75.7483146,15.9532584 76.2373034,15.3474157 C76.7110112,14.7595506 78.0916854,13.0220225 78.0916854,12.2319101 L78.0952809,12.2319101 Z M77.5973034,11.2979775 C77.8233568,11.2608176 78.0547609,11.317953 78.2375404,11.4560568 C78.4203199,11.5941606 78.5384925,11.8011571 78.5644944,12.028764 L78.938427,11.3833708 L79.0382022,11.4022472 C79.5740566,11.4887871 80.1203255,11.4887871 80.6561798,11.4022472 L80.9680899,11.3617978 C80.1222472,12.6516854 77.1847191,16.3901124 77.1847191,17.7060674 C77.1577978,17.8189403 77.1870058,17.9378673 77.2631525,18.025427 C77.3392992,18.1129868 77.4530228,18.1584145 77.5685393,18.1474157 C78.189031,17.920663 78.744541,17.5453851 79.1865169,17.054382 C80.2764193,15.885748 81.3034838,14.6600516 82.2633708,13.3824719 C82.7892135,12.7532584 83.971236,11.2997753 84.8773034,11.2997753 C85.222216,11.3034912 85.5472349,11.4618761 85.7626966,11.731236 C86.0069928,12.0107731 86.1383839,12.3712974 86.131236,12.7424719 C86.1223889,13.0030891 86.0669841,13.2600211 85.9676404,13.5011236 C86.9150562,12.3982022 88.2768539,10.7694382 89.9226966,11.4552809 C90.5529298,11.7802253 90.844467,12.5221453 90.6040449,13.1892135 C90.4055759,13.6704457 90.1702708,14.1356466 89.9002247,14.5806742 C89.4957303,15.2665169 89.0220225,15.9649438 88.5698876,16.6804494 C88.3244222,17.0099592 88.146622,17.384806 88.0467416,17.7833708 C88.0335194,17.8921596 88.0745906,18.0005012 88.1566076,18.0731858 C88.2386245,18.1458704 88.3511177,18.1736198 88.4575281,18.1474157 C89.5937079,18.1474157 91.8732584,15.1029213 92.4934831,14.2723596 C92.5335831,14.1591434 92.6378228,14.081141 92.7577528,14.0746067 C92.8178222,14.0707585 92.876716,14.0925017 92.9198737,14.1344605 C92.9630314,14.1764194 92.9864246,14.2346776 92.9842697,14.2948315 C92.9842697,14.654382 91.2350562,16.5276404 90.9770787,16.8116854 C90.4080899,17.432809 89.2620225,18.6094382 88.3460674,18.6094382 C87.919323,18.6173208 87.5091724,18.4442478 87.2170787,18.1330337 C85.9964045,16.96 87.5838202,14.974382 88.3694382,13.9083146 C88.8114981,13.3718045 89.166952,12.7694739 89.4229213,12.1231461 C89.425603,12.0140333 89.3771801,11.909927 89.2920033,11.8416797 C89.2068265,11.7734324 89.094667,11.7488734 88.988764,11.7752809 C87.1011236,11.7752809 83.8516854,17.0786517 83.0094382,18.4521348 L82.967191,18.5213483 L80.9213483,18.5213483 L83.1838202,15.2152809 C83.5361798,14.7029213 84.9617978,12.6301124 84.9617978,12.0134831 C84.9617978,11.8651685 84.931236,11.7752809 84.7730337,11.7752809 C84.4569654,11.8610183 84.1746781,12.0413685 83.9640449,12.2921348 C82.5635955,13.6152809 81.3959551,15.3905618 80.0934831,16.8197753 C79.5244944,17.4417978 78.378427,18.6229213 77.4624719,18.6229213 C77.0417072,18.6333918 76.636265,18.4648114 76.3469663,18.1591011 C76.0481694,17.8396185 75.889013,17.4142308 75.9047191,16.9770787 C75.9058442,16.7849812 75.9296801,16.5936906 75.9757303,16.407191 C75.5330039,16.9725791 75.041532,17.4980389 74.5069663,17.9775281 C74.1047176,18.3599056 73.5804733,18.5881285 73.0265169,18.6220225 C72.3367313,18.5800463 71.7165037,18.1877133 71.3830483,17.5824253 C71.049593,16.9771372 71.0493754,16.2432384 71.3824719,15.6377528 L71.1703371,15.9074157 C70.4161798,16.8629213 68.6750562,18.6229213 67.3159551,18.6229213 C66.8822229,18.634176 66.4618195,18.4724824 66.1474157,18.1734831 C65.8323419,17.8762701 65.6593091,17.458571 65.6719101,17.025618 C65.8133888,16.2049988 66.143904,15.428565 66.6373034,14.7577528 L68.7946067,11.3923596 L68.8889888,11.4103371 C69.103141,11.4532581 69.3205513,11.4779159 69.5388764,11.4840449 C69.8798842,11.4791285 70.2204115,11.4566267 70.5591011,11.4166292 L70.865618,11.3851685 L67.5964045,16.2660674 C67.2647909,16.6965923 67.0446395,17.2023539 66.9555056,17.738427 C66.9454137,17.865997 66.997527,17.9905923 67.0954393,18.0729885 C67.1933516,18.1553846 67.3250184,18.1854457 67.4489888,18.1537079 C68.16,18.1537079 69.287191,17.1865169 70.188764,16.2588764 C72.0773034,14.3182022 74.588764,11.3042697 77.6035955,11.3042697 L77.5973034,11.2979775 Z M117.093933,16.0620225 C116.276854,15.1433708 117.278202,13.185618 118.449438,13.185618 C118.550388,13.183463 118.648822,13.21723 118.727191,13.2808989 C119.715955,9.72134831 115.331236,13.1910112 114.195955,14.9824719 C113.313258,16.3721348 112.77573,18.065618 114.093483,18.1231461 C115.279101,18.1231461 116.395506,16.9447191 117.093933,16.0620225 Z M126.756854,12.3865169 C126.586966,10.7802247 123.451685,13.5622472 123.133483,13.9146067 C122.402697,14.734382 121.272809,16.1617978 121.272809,17.1802247 C121.272809,18.6364045 122.782022,17.9235955 123.937978,16.7496629 C124.674157,16.0170787 126.702921,13.3078652 126.763146,12.3892135 L126.756854,12.3865169 Z M145.748315,12.2355056 C145.748315,10.7478652 142.536629,13.4939326 142.115955,13.9613483 C141.367191,14.7892135 140.128539,16.2894382 140.128539,17.4786517 C140.092584,17.657638 140.145409,17.8429624 140.27033,17.9760925 C140.395251,18.1092227 140.576843,18.1737199 140.757753,18.1492135 C141.620674,18.1492135 143.402247,15.9568539 143.891236,15.3510112 C144.374831,14.7658427 145.754607,13.0283146 145.754607,12.2382022 L145.748315,12.2355056 Z M146.222022,12.0323596 L146.595955,11.3869663 L146.69573,11.4058427 C147.231576,11.4924914 147.777862,11.4924914 148.313708,11.4058427 L148.625618,11.3653933 L146.067416,15.2692135 C145.523091,16.0068975 145.109025,16.8322943 144.843146,17.7096629 C144.816294,17.8223687 144.845398,17.9411079 144.921326,18.0286211 C144.997254,18.1161343 145.110701,18.1616967 145.226067,18.1510112 C145.846559,17.9242585 146.402069,17.5489806 146.844045,17.0579775 C147.726572,16.2008053 148.534579,15.2701088 149.259326,14.2759551 C149.299097,14.1628786 149.403015,14.0848516 149.522697,14.0782022 C149.582916,14.074088 149.642055,14.0957128 149.685416,14.1377028 C149.728777,14.1796928 149.75229,14.2381061 149.750112,14.298427 C149.750112,14.6579775 148.000899,16.531236 147.742921,16.8152809 C147.173933,17.4364045 146.027865,18.6130337 145.112809,18.6130337 C144.691755,18.6236469 144.28598,18.4550641 143.996404,18.1492135 C143.697367,17.8298214 143.537894,17.4044539 143.553258,16.967191 C143.554686,16.7750584 143.578824,16.5837682 143.625169,16.3973034 C143.185159,16.9658002 142.69609,17.4945716 142.163596,17.9775281 C141.761796,18.3600391 141.237778,18.5883019 140.684045,18.6220225 C139.55236,18.6220225 138.371236,17.8130337 138.951011,15.9523596 L138.795506,16.1474157 C138.048539,17.0831461 136.363146,18.574382 135.028315,18.574382 C134.416839,18.6533696 133.809671,18.4001544 133.435506,17.9101124 C133.147865,17.2458427 133.755506,16.2148315 134.181573,15.4408989 C134.306694,15.2398798 134.394399,15.0178749 134.440449,14.785618 C134.399044,14.6270353 134.284023,14.4979716 134.131236,14.4386517 C133.860679,14.5500325 133.573114,14.6144762 133.280899,14.6292135 C133.054351,14.6623527 132.828249,14.5662938 132.694831,14.3802247 L130.346966,18.2453933 L130.131236,18.5896629 L130.033258,18.5680899 C129.806044,18.5196063 129.574352,18.4952019 129.342022,18.4952809 C129.051021,18.5021654 128.760727,18.5270821 128.472809,18.5698876 L128.16809,18.6103371 C128.815281,17.5847191 129.246742,16.9402247 129.84809,15.9460674 C129.077753,16.9231461 127.659326,18.4629213 126.238202,18.6220225 C125.695507,18.6622916 125.173639,18.405168 124.874888,17.9503194 C124.576137,17.4954708 124.54747,16.9144055 124.8,16.4323596 C123.969438,17.4364045 122.711011,18.6220225 121.796854,18.6220225 C120.088989,18.6220225 119.369888,17.0220225 120.221124,15.4894382 C119.592928,16.2617505 118.570019,16.5935715 117.60809,16.3370787 C116.806292,17.3662921 115.450787,18.6220225 114.069213,18.6220225 C111.462472,18.5591011 111.836404,16.1420225 113.061573,14.3649438 C114.347865,12.5006742 117.135281,10.312809 118.895281,11.3006742 C119.264983,11.541311 119.467669,11.9696283 119.419326,12.4080899 C119.283875,13.723916 118.75513,14.9684092 117.902022,15.9793258 C118.02451,16.0220214 118.153435,16.0433061 118.283146,16.0422472 C119.500225,16.0422472 121.390562,13.7267416 121.820225,13.3177528 C122.708499,12.3314126 123.871936,11.6338515 125.160449,11.3150562 C126.134831,11.0885393 127.197303,11.1676404 127.317753,12.1519101 L131.709663,5.38786517 L131.799551,5.40404494 C132.084522,5.45359427 132.373225,5.47855507 132.662472,5.47865169 L133.768989,5.47865169 L133.613483,5.70516854 C131.467865,8.83505618 129.258427,11.9892135 127.20809,15.1829213 C126.647756,15.9659346 126.206699,16.8277524 125.899326,17.7402247 C125.837303,18.4305618 127.028315,17.9451685 128.101573,16.9860674 C129.502276,15.7147743 130.755684,14.290105 131.838202,12.7388764 L136.669663,5.33662921 L136.759551,5.35370787 C137.301656,5.4584215 137.858793,5.4584215 138.400899,5.35370787 L138.729888,5.29617978 L138.550112,5.57573034 L132.986966,13.9011236 C133.071105,13.8851894 133.156619,13.8776617 133.242247,13.8786517 C133.512473,13.8759238 133.781472,13.9153487 134.039551,13.9955056 C134.869586,13.4240645 135.624559,12.7506288 136.286742,11.9910112 C136.654851,11.6262139 137.125011,11.381731 137.635056,11.2898876 C137.963256,11.2037228 138.312852,11.2736869 138.582614,11.4795211 C138.852376,11.6853552 139.012172,12.0040676 139.01573,12.3433708 C138.992424,12.8212033 138.797771,13.2746503 138.467416,13.6206742 C138.197364,13.9940708 137.777851,14.231073 137.318652,14.2696629 C137.134886,14.3025996 136.946076,14.2507573 136.804896,14.1285987 C136.663715,14.0064401 136.585276,13.8270409 136.591461,13.6404494 C136.718999,13.14365 137.075997,12.7375598 137.55236,12.5474157 C137.730756,12.464322 137.843483,12.2839594 137.84,12.087191 C137.84,11.934382 137.690787,11.927191 137.570337,11.927191 C137.029611,12.0637734 136.549428,12.3757817 136.204944,12.814382 C135.74327,13.3415959 135.20839,13.7998919 134.616629,14.1752809 C136.245393,14.5150562 136.119551,15.4597753 135.145169,17.2773034 C135.006742,17.5307865 134.627416,18.1546067 135.184719,18.1546067 C136.505169,18.1546067 138.175281,15.8822472 139.746517,14.2067416 C140.263478,13.7059466 140.819878,13.24754 141.410337,12.8359551 C142.119551,12.2930337 145.997303,10.0979775 146.228315,12.0350562 L146.222022,12.0323596 Z M79.9559551,120.681348 C80.526867,120.678801 81.0429977,121.020702 81.2633273,121.547392 C81.4836568,122.074081 81.3647171,122.68165 80.9620498,123.08638 C80.5593826,123.491109 79.9524289,123.613151 79.4246207,123.395515 C78.8968126,123.177879 78.5522797,122.663502 78.5519101,122.092584 C78.5504182,121.315369 79.1787424,120.683827 79.9559551,120.681348 Z M79.9559551,125.674607 C80.77215,125.670968 81.5100192,126.159783 81.824972,126.912772 C82.1399247,127.665761 81.9698194,128.534355 81.3940965,129.112914 C80.8183736,129.691473 79.950626,129.865844 79.1960986,129.554595 C78.4415713,129.243347 77.949136,128.507888 77.948764,127.691685 C77.9462787,126.580515 78.8447857,125.677582 79.9559551,125.674607 Z M79.9559551,116.692135 C80.3845509,116.689952 80.7721927,116.946356 80.9378914,117.341632 C81.1035901,117.736908 81.0146622,118.193089 80.7126278,118.497185 C80.4105935,118.801281 79.9550281,118.89331 79.5586341,118.730304 C79.1622402,118.567298 78.9032051,118.18141 78.9024719,117.752809 C78.9015167,117.472454 79.0119721,117.203202 79.2095389,117.004287 C79.4071056,116.805371 79.6755999,116.693087 79.9559551,116.692135 Z M87.0804494,135.772584 C87.0623726,134.983909 87.6748811,134.323908 88.4627094,134.283146 C89.2505377,134.242383 89.9278899,134.835648 89.9913036,135.621977 C90.0547172,136.408306 89.4811881,137.102448 88.697009,137.188461 C87.91283,137.274474 87.2024731,136.721155 87.0939326,135.939775 C87.0939326,136.773034 85.7510112,139.558652 80.0970787,139.558652 C74.4431461,139.558652 73.1038202,136.772135 73.1038202,135.939775 C73.1038202,135.107416 73.1038202,135.827416 73.1137079,135.772584 C73.3213483,137.241348 76.3694382,138.406292 80.0970787,138.406292 C83.8247191,138.406292 86.872809,137.241348 87.0804494,135.772584 Z M90.7955056,136.821573 C90.7667638,138.056978 91.7261488,139.091028 92.9602425,139.154782 C94.1943362,139.218536 95.2551688,138.288852 95.3538837,137.057061 C95.4525986,135.825271 94.5533628,134.738508 93.3248662,134.604912 C92.0963696,134.471316 90.9845504,135.33938 90.8161798,136.563596 C90.8161798,135.291685 87.7959551,131.750112 80.0970787,131.750112 C72.3982022,131.750112 69.3788764,135.291685 69.3788764,136.563596 C69.2116893,135.17354 67.9666156,134.170335 66.5728067,134.302635 C65.1789978,134.434935 64.144907,135.654478 64.2422371,137.051165 C64.3395672,138.447851 65.5328127,139.512179 66.9314997,139.44988 C68.3301867,139.387581 69.4240825,138.221382 69.3968539,136.821573 C69.7177528,134.574382 74.3865169,132.956404 80.0934831,132.956404 C85.8004494,132.956404 90.4773034,134.569888 90.7955056,136.821573 Z M99.7752809,135.460674 C99.7265385,132.986606 101.658079,130.924278 104.130035,130.811051 C106.601991,130.697825 108.713976,132.574943 108.891609,135.043107 C109.069242,137.511271 107.247822,139.671475 104.785128,139.913394 C102.322434,140.155313 100.115479,138.390831 99.8094382,135.935281 C99.8094382,138.279551 95.0085393,144.604045 80.094382,144.490787 C65.1802247,144.377528 60.3793258,138.279551 60.3793258,135.935281 C60.0705379,138.428508 57.8308374,140.221291 55.3305018,139.976645 C52.8301662,139.732 50.9804461,137.539088 51.1607873,135.033293 C51.3411286,132.527498 53.4858057,130.622062 55.9954057,130.73798 C58.5050058,130.853898 60.4649018,132.948925 60.4134831,135.460674 C60.9995506,139.6 69.5883146,142.885393 80.0988764,142.885393 C90.6094382,142.885393 99.1910112,139.603596 99.7752809,135.460674 Z M109.378876,137.391461 C109.411236,137.625169 109.428315,134.604944 109.428315,138.095281 C109.428315,141.585618 101.393258,151.011236 80.0970787,151.011236 C58.8008989,151.011236 50.7622472,141.591011 50.7622472,138.102472 C50.7622472,134.613933 50.7820225,137.63236 50.8107865,137.398652 C51.6898876,143.557753 64.4665169,148.618427 80.0970787,148.618427 C95.7276404,148.618427 108.50427,143.550562 109.381573,137.395056 L109.378876,137.391461 Z M83.1110112,26.0458427 L90.1644944,26.0458427 L90.1644944,78.0080899 C90.1644944,79.12 90.3559551,81.2880899 91.6602247,82.021573 C93.032373,82.62324 94.5936944,82.62324 95.9658427,82.021573 C97.2692135,81.2880899 97.461573,79.1226966 97.461573,78.0080899 L97.461573,26.0458427 L104.401798,26.0458427 L104.401798,77.3420225 C104.401798,79.2692135 104.053933,81.6970787 102.115955,83.1262921 C100.091685,84.6382022 96.5330337,84.9096629 93.8121348,84.9096629 C91.1424719,84.9096629 87.5892135,84.64 85.5334831,83.2260674 L85.5226966,83.2188764 L85.512809,83.2116854 C83.491236,81.7177528 83.1110112,79.3626966 83.1110112,77.3420225 L83.1110112,26.0458427 Z M128.985169,27.1379775 C131.043596,28.5483146 131.399551,30.9680899 131.399551,32.9339326 L131.399551,43.7204494 L124.458427,43.7204494 L124.458427,32.4341573 C124.458427,30.4665169 124.093483,27.8858427 120.810787,27.8858427 C117.52809,27.8858427 117.162247,30.4665169 117.162247,32.4341573 L117.162247,78.007191 C117.162247,80.0008989 117.521798,82.4719101 120.810787,82.4719101 C124.099775,82.4719101 124.458427,80.0008989 124.458427,78.007191 L124.458427,55.2853933 L121.115506,55.2853933 L121.111011,51.7447191 L131.399551,51.7447191 L131.399551,77.3420225 C131.399551,79.2638202 131.046292,81.7842697 129.113708,83.2089888 C127.180225,84.654382 123.397753,84.9096629 120.810787,84.9096629 C118.140225,84.9096629 114.58427,84.64 112.531236,83.2260674 L112.520449,83.2188764 L112.510562,83.2116854 C110.485393,81.7177528 110.108764,79.3626966 110.108764,77.3420225 L110.108764,32.9375281 C110.108764,30.967191 110.468315,28.5429213 112.53573,27.1334831 C114.603146,25.7240449 118.148315,25.4669663 120.811685,25.4669663 C123.395056,25.4669663 127.040899,25.7159551 128.986067,27.141573 L128.985169,27.1379775 Z M8.62651685,28.2696629 L8.62651685,51.5820225 L11.0373034,51.5820225 C12.1429213,51.5820225 14.0808989,51.4786517 14.8934831,50.8134831 C15.6335986,49.9633752 16.0074559,48.8550515 15.9334831,47.7303371 L15.9334831,32.2022472 C15.9334831,31.3159551 15.8606742,29.7555056 15.0220225,29.0489888 C14.1833708,28.3424719 12.1977528,28.2660674 11.0373034,28.2660674 L8.62921348,28.2660674 L8.62651685,28.2696629 Z M14.4458427,84.2013483 C15.2856497,82.7786655 15.7941204,81.1850478 15.9334831,79.5388764 L15.9334831,58.6444944 C15.9334831,57.7573034 15.8606742,56.1968539 15.0220225,55.4903371 C14.1833708,54.7838202 12.1977528,54.7083146 11.0373034,54.7083146 L8.62921348,54.7083146 L8.62921348,78.2921348 C8.628835,80.3656059 9.17413777,82.4026636 10.2103371,84.1986517 L0,84.1986517 C0.985626916,82.5036157 1.5244298,80.5859476 1.5658427,78.625618 L1.5658427,25.84 L12.1968539,25.84 C14.8035955,25.84 18.3334831,26.0152809 20.4305618,27.3240449 C22.5977528,28.6723596 22.8889888,31.2791011 22.8889888,33.2386517 L22.8889888,46.3092135 C22.9978004,47.8951914 22.6969292,49.4825035 22.0152809,50.9186517 C21.3389931,51.9240759 20.3644264,52.6920974 19.228764,53.1146067 C20.3873019,53.5342502 21.3712028,54.331058 22.0224719,55.3770787 C22.8269663,56.6858427 22.8907865,58.6417978 22.8907865,60.0611236 L22.8907865,79.0777528 C22.9822192,80.8833937 23.5063011,82.6406096 24.4188764,84.2013483 L14.4467416,84.2013483 L14.4458427,84.2013483 Z M36.2283146,51.7519101 C38.5785768,51.7830712 41.0858427,51.7830712 43.7501124,51.7519101 L43.7501124,28.6417978 C39.6152809,28.6417978 36.2283146,28.9114607 36.2283146,33.0238202 L36.2283146,51.7519101 Z M42.2777528,84.3208989 C43.097592,82.9340444 43.6003972,81.3829609 43.7501124,79.7788764 L43.7501124,55.2853933 L36.2283146,55.2853933 L36.2283146,79.3833708 C36.3405667,81.1226677 36.8593371,82.8113653 37.7429213,84.3137079 L27.905618,84.3137079 C28.759356,82.8676443 29.2709824,81.2454442 29.4013483,79.571236 L29.4013483,33.5164045 C29.4013483,31.6467416 29.7366292,29.0498876 31.7159551,27.7123596 C33.7680899,26.3146067 37.4507865,26.0458427 40.1033708,26.0458427 L50.6966292,26.0458427 L50.6966292,79.0364045 C50.7716282,80.8952744 51.3015778,82.70735 52.24,84.3137079 L42.2786517,84.3137079 L42.2777528,84.3208989 Z M63.8094382,28.4755056 L63.8094382,81.8876404 L66.2166292,81.8876404 C67.3213483,81.8876404 69.2557303,81.7842697 70.0665169,81.12 C70.8065064,80.2712438 71.1804137,79.1640645 71.1065169,78.0404494 L71.1065169,32.3955056 C71.1065169,31.5101124 71.0337079,29.9523596 70.1959551,29.2494382 C69.3582022,28.5465169 67.3761798,28.4683146 66.2166292,28.4683146 L63.8094382,28.4683146 L63.8094382,28.4755056 Z M55.1658427,84.3146067 C56.2579969,82.4053107 56.8081153,80.2340524 56.7568539,78.0350562 L56.7568539,26.0458427 L67.1334831,26.0458427 C69.7402247,26.0458427 73.5011236,26.225618 75.592809,27.527191 C77.7555056,28.8755056 78.0476404,31.4822472 78.0476404,33.432809 L78.0476404,76.8422472 C78.0476404,78.7703371 77.7267416,81.4166292 75.592809,82.748764 C73.4588764,84.0808989 69.7833708,84.3137079 67.1334831,84.3137079 L55.1658427,84.3137079 L55.1658427,84.3146067 Z M143.994607,51.7465169 C146.345468,51.7776779 148.852734,51.7776779 151.516404,51.7465169 L151.516404,28.6364045 C147.381573,28.6364045 143.994607,28.9060674 143.994607,33.018427 L143.994607,51.7465169 Z M150.044045,84.3155056 C150.863884,82.9286511 151.366689,81.3775677 151.516404,79.7734831 L151.516404,55.2853933 L143.994607,55.2853933 L143.994607,79.3833708 C144.106783,81.1225571 144.62523,82.811205 145.508315,84.3137079 L135.671011,84.3137079 C136.523962,82.8672934 137.03553,81.2452799 137.166742,79.571236 L137.166742,33.5164045 C137.166742,31.6467416 137.501124,29.0498876 139.480449,27.7123596 C141.532584,26.3146067 145.21618,26.0458427 147.867865,26.0458427 L158.456629,26.0458427 L158.456629,79.0364045 C158.531883,80.8955157 159.06181,82.7078222 160,84.3146067 L150.044045,84.3146067 L150.044045,84.3155056 Z M124.484494,96.9060674 L124.484494,102.389213 C125.083388,102.432191 125.664921,102.176909 126.038652,101.706966 C126.49249,101.104406 126.722283,100.362587 126.688539,99.6089888 C126.724494,97.8058427 125.989813,96.9042697 124.484494,96.9042697 L124.484494,96.9060674 Z M121.53618,94.6696629 L124.484494,94.6696629 C125.743963,94.6741575 126.985098,94.9717468 128.109663,95.5388764 C129.287191,96.1177528 129.866966,97.3761798 129.848989,99.3141573 C129.869573,100.259563 129.575525,101.185024 129.013034,101.945169 C128.468071,102.682249 127.665971,103.187572 126.765843,103.360899 C127.412295,103.404277 128.029393,103.647034 128.532135,104.05573 C129.148157,104.62638 129.458409,105.454496 129.368989,106.289438 L129.368989,109.345618 C129.341375,109.739154 129.404734,110.133765 129.554157,110.498876 C129.746417,110.760336 130.053017,110.912967 130.377528,110.908764 L130.590562,112.398202 C130.001451,112.597762 129.377575,112.673949 128.757753,112.622022 C127.128989,112.442247 126.314607,111.358202 126.314607,109.369888 L126.314607,106.365843 C126.314607,104.99236 125.70367,104.396704 124.481798,104.578876 L124.481798,112.399101 L121.560449,112.399101 L121.53618,94.6696629 Z M119.165843,94.6696629 L119.165843,96.9788764 L114.995955,96.9788764 L114.995955,102.012584 L118.129438,102.012584 L118.129438,104.371236 L114.995955,104.371236 L114.995955,110.11236 L119.670112,110.11236 L119.670112,112.396404 L112.048539,112.396404 L112.048539,94.6696629 L119.166742,94.6696629 L119.165843,94.6696629 Z M110.234607,94.6696629 L110.234607,96.9788764 L107.39236,96.9788764 L107.39236,112.393708 L104.444045,112.393708 L104.444045,96.9788764 L101.629663,96.9788764 L101.629663,94.6696629 L110.234607,94.6696629 Z M101.489438,112.393708 L94.6894382,112.393708 L94.6894382,94.6696629 L97.6116854,94.6696629 L97.6116854,110.11236 L101.489438,110.11236 L101.489438,112.396404 L101.489438,112.393708 Z M88.6534831,94.6696629 L91.5748315,94.6696629 L91.5748315,112.393708 L88.6534831,112.393708 L88.6534831,94.6696629 Z M86.4961798,91.2494382 L86.4961798,93.9739326 L81.585618,93.9739326 L81.585618,100.015281 L85.3240449,100.015281 L85.3240449,102.828764 L81.585618,102.828764 L81.585618,112.393708 L78.1006742,112.393708 L78.1006742,91.2494382 L86.4961798,91.2494382 Z M68.451236,103.531685 L68.451236,105.679101 C68.451236,106.498876 68.4811985,107.25603 68.5411236,107.950562 C68.5808803,108.544632 68.7062188,109.129848 68.9132584,109.68809 C69.0082216,110.079196 69.3482412,110.361876 69.7501124,110.38382 C70.1709979,110.325974 70.5078855,110.005732 70.5869663,109.588315 C70.7856714,109.015606 70.9066014,108.418817 70.9465169,107.813933 C70.9986517,107.14427 71.0211236,106.364944 71.0130337,105.476854 C71.0049438,104.588764 70.9995506,103.942472 70.9995506,103.52809 C70.9995506,103.081049 71.0040449,102.423371 71.0130337,101.555056 C71.0220225,100.685843 70.9986517,99.9146067 70.9465169,99.2458427 C70.9067477,98.6357846 70.7817903,98.0342948 70.5752809,97.4588764 C70.5025611,97.0455534 70.1684286,96.7282005 69.7519101,96.6768539 C69.3542197,96.6910067 69.0158656,96.9710621 68.9276404,97.3591011 C68.7131815,97.9201237 68.5835179,98.5099715 68.5429213,99.1092135 C68.4829963,99.8049438 68.4530337,100.562097 68.4530337,101.380674 L68.4530337,103.52809 L68.451236,103.531685 Z M65.1577528,103.531685 C65.1577528,102.423071 65.1757303,101.579026 65.2116854,100.999551 C65.284295,99.3379485 65.7047387,97.710069 66.4458427,96.2211236 C67.1628161,95.1098104 68.3967346,94.4405327 69.7192481,94.4456277 C71.0417617,94.4507226 72.2704868,95.1294877 72.9788764,96.2462921 C73.7188104,97.7268154 74.1398664,99.3461202 74.2148315,100.999551 C74.2501873,101.579625 74.2678652,102.42367 74.2678652,103.531685 C74.2678652,104.657079 74.2501873,105.501124 74.2148315,106.06382 C74.1353856,107.152098 73.9438084,108.229268 73.6431461,109.278202 C73.4029364,110.189147 72.9320712,111.022835 72.2759551,111.698876 C71.5854714,112.33792 70.6652311,112.669427 69.7258427,112.617528 C68.3583756,112.723778 67.0587429,112.006471 66.4197753,110.792809 C65.7044615,109.314608 65.2939158,107.70758 65.2125843,106.067416 C65.1766292,105.502322 65.1586517,104.657079 65.1586517,103.531685 L65.1577528,103.531685 Z M53.7833708,94.741573 L56.4125843,94.741573 L59.2539326,103.231461 L59.2539326,94.741573 L62.1761798,94.741573 L62.1761798,112.465618 L59.5460674,112.465618 L56.7047191,102.610337 L56.7047191,112.465618 L53.7833708,112.465618 L53.7833708,94.741573 Z M45.3339326,106.781124 L47.5379775,106.781124 L46.4224719,99.8058427 L45.3339326,106.781124 Z M45.0148315,94.6669663 L48.0422472,94.6669663 L51.388764,112.391011 L48.414382,112.391011 L47.8831461,109.014831 L45.0148315,109.014831 L44.4044944,112.391011 L41.5361798,112.391011 L45.0148315,94.6669663 Z M29.5730337,91.338427 L32.7101124,91.338427 L36.1006742,101.466067 L36.1006742,91.338427 L39.585618,91.338427 L39.585618,112.482697 L36.4485393,112.482697 L33.0588764,100.726292 L33.0588764,112.482697 L29.5730337,112.482697 L29.5730337,91.338427 Z M68.3820225,124.237303 L65.6458427,124.237303 C65.2909784,124.250666 64.9431691,124.135793 64.6660674,123.913708 C64.4165449,123.716296 64.2733013,123.413856 64.2786517,123.09573 L64.2786517,121.573933 C64.2721448,121.255601 64.4139809,120.952331 64.6624719,120.753258 C64.9414859,120.532498 65.2903433,120.418976 65.6458427,120.433258 L68.3820225,120.433258 L68.3820225,121.193708 L65.6458427,121.193708 C65.5324554,121.168107 65.4136147,121.196826 65.3244313,121.271381 C65.2352478,121.345936 65.1859163,121.457803 65.1910112,121.573933 L65.1910112,123.09573 C65.1855421,123.211978 65.2347697,123.32409 65.3240563,123.398731 C65.4133428,123.473371 65.5324061,123.501945 65.6458427,123.475955 L68.3820225,123.475955 L68.3820225,124.237303 Z M62.6642697,124.237303 L61.752809,124.237303 L61.752809,120.433258 L62.6642697,120.433258 L62.6642697,124.237303 Z M59.6979775,124.237303 L58.7865169,124.237303 L58.7865169,121.573933 C58.7913131,121.457724 58.7417621,121.3459 58.6524552,121.271389 C58.5631483,121.196879 58.4442554,121.168167 58.3307865,121.193708 L56.9626966,121.193708 C56.8433306,121.187391 56.7256537,121.224065 56.6310112,121.297079 C56.548701,121.364931 56.502816,121.467341 56.5069663,121.573933 L56.5069663,124.237303 L55.5955056,124.237303 L55.5955056,120.433258 L56.5069663,120.433258 L56.5069663,120.492584 C56.6555098,120.452367 56.8088075,120.432411 56.9626966,120.433258 L58.3307865,120.433258 C58.6858317,120.419505 59.0339576,120.534058 59.3114607,120.755955 C59.560872,120.953455 59.7040879,121.255837 59.6988764,121.573933 L59.6988764,124.237303 L59.6979775,124.237303 Z M54.2022472,123.09573 C54.2122491,123.414921 54.0726082,123.720468 53.8247191,123.921798 C53.5435042,124.141896 53.1926787,124.253842 52.8359551,124.237303 L51.4678652,124.237303 C51.1121865,124.251814 50.7631531,124.137916 50.4844944,123.916404 C50.2355572,123.717684 50.0936117,123.414179 50.1006742,123.09573 L50.1006742,121.573933 C50.0995304,121.257027 50.2464937,120.957781 50.4979775,120.764944 C50.7703891,120.540488 51.1150547,120.422618 51.4678652,120.433258 L52.8359551,120.433258 C53.1901753,120.420733 53.53705,120.536251 53.8130337,120.758652 C54.0630302,120.954758 54.2072819,121.256224 54.2031461,121.573933 L54.2031461,123.09573 L54.2022472,123.09573 Z M53.2907865,123.09573 L53.2907865,121.573933 C53.2949368,121.467341 53.2490518,121.364931 53.1667416,121.297079 C53.072212,121.223849 52.9544524,121.187148 52.8350562,121.193708 L51.4669663,121.193708 C51.3489256,121.189473 51.2333415,121.228107 51.141573,121.302472 C51.0587162,121.367329 51.0105831,121.466915 51.011236,121.572135 L51.011236,123.093933 C51.0060679,123.210259 51.0555157,123.322327 51.144925,123.396923 C51.2343344,123.471519 51.3534484,123.500086 51.4669663,123.474157 L52.8350562,123.474157 C52.947201,123.499112 53.0645889,123.471 53.1532641,123.397953 C53.2419394,123.324906 53.2920086,123.215073 53.2889888,123.100225 L53.2907865,123.09573 Z M48.4853933,124.237303 L47.5730337,124.237303 L47.5730337,123.09573 C47.5769871,122.989372 47.5315247,122.887164 47.4498876,122.818876 C47.3549692,122.745729 47.2369631,122.709051 47.1173034,122.715506 L45.2934831,122.715506 L45.2934831,124.237303 L44.3820225,124.237303 L44.3820225,120.433258 L47.1173034,120.433258 C47.4695506,120.423949 47.8132118,120.542762 48.0844944,120.76764 C47.9082062,121.566229 48.0521446,122.402104 48.4853933,123.09573 L48.4853933,124.237303 Z M47.5730337,121.573933 C47.5731796,121.468215 47.5239798,121.368485 47.44,121.30427 C47.3494399,121.229338 47.2348045,121.189742 47.1173034,121.192809 L45.2934831,121.192809 L45.2934831,121.954157 L47.1173034,121.954157 C47.2349191,121.956972 47.3495676,121.917053 47.44,121.841798 C47.5217776,121.778744 47.5701416,121.681685 47.571236,121.578427 L47.5730337,121.573933 Z M42.988764,121.193708 L41.3932584,121.193708 L41.3932584,124.237303 L40.4817978,124.237303 L40.4817978,121.193708 L38.8853933,121.193708 L38.8853933,120.433258 L42.9878652,120.433258 L42.9878652,121.193708 L42.988764,121.193708 Z M37.4939326,124.237303 L34.7586517,124.237303 C34.4034934,124.250803 34.0553551,124.135927 33.7779775,123.913708 C33.528455,123.716296 33.3852114,123.413856 33.3905618,123.09573 L33.3905618,121.573933 C33.3839945,121.255388 33.5262306,120.951973 33.7752809,120.753258 C34.05418,120.532284 34.4031191,120.418735 34.7586517,120.433258 L37.4939326,120.433258 L37.4939326,121.193708 L34.7586517,121.193708 C34.6451828,121.168167 34.5262899,121.196879 34.436983,121.271389 C34.3476761,121.3459 34.2981252,121.457724 34.3029213,121.573933 L34.3029213,123.09573 C34.2977532,123.212057 34.3472011,123.324124 34.4366104,123.39872 C34.5260198,123.473316 34.6451338,123.501883 34.7586517,123.475955 L37.4939326,123.475955 L37.4939326,124.237303 Z M31.5541573,124.237303 L29.047191,124.237303 C28.6920098,124.250965 28.3438163,124.136071 28.0665169,123.913708 C27.8169943,123.716296 27.6737508,123.413856 27.6791011,123.09573 L27.6791011,121.573933 C27.672178,121.255513 27.814096,120.952067 28.0629213,120.753258 C28.3422112,120.532365 28.6913975,120.418839 29.047191,120.433258 L31.5505618,120.433258 L31.5505618,121.193708 L29.0435955,121.193708 C28.9299959,121.16784 28.8108303,121.1964 28.7212978,121.270952 C28.6317653,121.345503 28.5820979,121.457527 28.5869663,121.573933 L28.5869663,121.955056 L31.5532584,121.955056 L31.5532584,122.715506 L28.5869663,122.715506 L28.5869663,123.09573 C28.5820979,123.212136 28.6317653,123.32416 28.7212978,123.398711 C28.8108303,123.473263 28.9299959,123.501823 29.0435955,123.475955 L31.5505618,123.475955 L31.5505618,124.237303 L31.5541573,124.237303 Z M26.2876404,124.237303 L22.1842697,124.237303 L22.1842697,120.433258 L23.0957303,120.433258 L23.0957303,123.475955 L26.2876404,123.475955 L26.2876404,124.237303 Z M20.3478652,124.237303 L17.84,124.237303 C17.4851242,124.250747 17.1372874,124.135865 16.8602247,123.913708 C16.6104764,123.716391 16.4669148,123.413981 16.4719101,123.09573 L16.4719101,121.573933 C16.4653428,121.255388 16.6075789,120.951973 16.8566292,120.753258 C17.1355667,120.532356 17.4844785,120.418816 17.84,120.433258 L20.3478652,120.433258 L20.3478652,121.193708 L17.84,121.193708 C17.7265311,121.168167 17.6076382,121.196879 17.5183313,121.271389 C17.4290244,121.3459 17.3794735,121.457724 17.3842697,121.573933 L17.3842697,121.955056 L20.3505618,121.955056 L20.3505618,122.715506 L17.3842697,122.715506 L17.3842697,123.09573 C17.3791016,123.212057 17.4285494,123.324124 17.5179587,123.39872 C17.6073681,123.473316 17.7264821,123.501883 17.84,123.475955 L20.3478652,123.475955 L20.3478652,124.237303 Z M143.95236,124.237303 L143.040899,124.237303 L143.040899,123.09573 C143.044632,122.98922 142.998826,122.886986 142.916854,122.818876 C142.821935,122.745729 142.703929,122.709051 142.58427,122.715506 L140.764045,122.715506 L140.764045,124.237303 L139.852584,124.237303 L139.852584,120.433258 L142.587865,120.433258 C142.940138,120.423785 143.283855,120.542617 143.555056,120.76764 C143.378768,121.566229 143.522706,122.402104 143.955955,123.09573 L143.955955,124.237303 L143.95236,124.237303 Z M143.040899,121.573933 C143.040758,121.467868 142.990835,121.368021 142.906067,121.30427 C142.815947,121.229181 142.701528,121.18955 142.58427,121.192809 L140.764045,121.192809 L140.764045,121.954157 L142.587865,121.954157 C142.705226,121.957083 142.81963,121.917137 142.909663,121.841798 C142.991209,121.778649 143.039255,121.681563 143.04,121.578427 L143.040899,121.573933 Z M138.546517,123.09573 C138.556161,123.415046 138.416202,123.720562 138.16809,123.921798 C137.886875,124.141896 137.536049,124.253842 137.179326,124.237303 L135.812135,124.237303 C135.454648,124.252963 135.10353,124.139009 134.823371,123.916404 C134.574434,123.717684 134.432488,123.414179 134.439551,123.09573 L134.439551,121.573933 C134.438407,121.257027 134.58537,120.957781 134.836854,120.764944 C135.109541,120.540354 135.454536,120.422481 135.80764,120.433258 L137.174831,120.433258 C137.529075,120.420571 137.876005,120.536108 138.15191,120.758652 C138.402133,120.954663 138.546703,121.2561 138.542921,121.573933 L138.542921,123.09573 L138.546517,123.09573 Z M137.634157,123.09573 L137.634157,121.573933 C137.638111,121.467574 137.592648,121.365366 137.511011,121.297079 C137.416093,121.223931 137.298087,121.187253 137.178427,121.193708 L135.811236,121.193708 C135.692925,121.189499 135.577067,121.228118 135.484944,121.302472 C135.402412,121.36759 135.354361,121.467007 135.354607,121.572135 L135.354607,123.093933 C135.349738,123.210338 135.399406,123.322362 135.488938,123.396914 C135.578471,123.471465 135.697636,123.500025 135.811236,123.474157 L137.178427,123.474157 C137.290572,123.499112 137.40796,123.471 137.496635,123.397953 C137.58531,123.324906 137.635379,123.215073 137.63236,123.100225 L137.634157,123.09573 Z M133.58382,123.09573 C133.583691,123.413164 133.435427,123.712352 133.182921,123.904719 C132.911517,124.129381 132.56794,124.248164 132.21573,124.239101 L129.93618,124.239101 L129.93618,123.477753 L132.21573,123.477753 C132.333231,123.48082 132.447867,123.441224 132.538427,123.366292 C132.623305,123.302633 132.673258,123.202727 132.673258,123.096629 C132.673258,122.990531 132.623305,122.890625 132.538427,122.826966 C132.447867,122.752034 132.333231,122.712439 132.21573,122.715506 L130.848539,122.715506 C130.49633,122.724569 130.152753,122.605786 129.881348,122.381124 C129.628802,122.189786 129.480429,121.891225 129.480429,121.574382 C129.480429,121.257539 129.628802,120.958978 129.881348,120.76764 C130.152549,120.542617 130.496267,120.423785 130.848539,120.433258 L133.123596,120.433258 L133.123596,121.193708 L130.844944,121.193708 C130.727443,121.190641 130.612807,121.230237 130.522247,121.305169 C130.437704,121.369044 130.388011,121.468871 130.388011,121.574831 C130.388011,121.680792 130.437704,121.780619 130.522247,121.844494 C130.61268,121.91975 130.727328,121.959669 130.844944,121.956854 L132.212135,121.956854 C132.56423,121.947539 132.907794,122.065998 133.179326,122.290337 C133.431612,122.482885 133.579819,122.781957 133.580225,123.099326 L133.58382,123.09573 Z M128.395506,123.099326 C128.395377,123.41676 128.247112,123.715947 127.994607,123.908315 C127.723202,124.132977 127.379625,124.25176 127.027416,124.242697 L124.747865,124.242697 L124.747865,123.481348 L127.027416,123.481348 C127.144942,123.484579 127.259634,123.444964 127.350112,123.369888 C127.434655,123.306012 127.484348,123.206185 127.484348,123.100225 C127.484348,122.994265 127.434655,122.894437 127.350112,122.830562 C127.259634,122.755485 127.144942,122.71587 127.027416,122.719101 L125.662921,122.719101 C125.310468,122.727975 124.966673,122.609227 124.694831,122.384719 C124.442948,122.192956 124.295087,121.89455 124.295087,121.577978 C124.295087,121.261405 124.442948,120.963 124.694831,120.771236 C124.966471,120.546368 125.310405,120.427572 125.662921,120.436854 L127.942472,120.436854 L127.942472,121.197303 L125.662921,121.197303 C125.54542,121.194237 125.430785,121.233832 125.340225,121.308764 C125.255682,121.37264 125.205989,121.472467 125.205989,121.578427 C125.205989,121.684387 125.255682,121.784214 125.340225,121.84809 C125.430657,121.923345 125.545306,121.963265 125.662921,121.960449 L127.030112,121.960449 C127.382207,121.951134 127.725771,122.069594 127.997303,122.293933 C128.24959,122.486481 128.397796,122.785552 128.398202,123.102921 L128.395506,123.099326 Z M122.991461,124.244494 L120.483596,124.244494 C120.12872,124.257938 119.780883,124.143056 119.50382,123.920899 C119.253738,123.723848 119.110092,123.421262 119.115506,123.102921 L119.115506,121.581124 C119.108938,121.262579 119.251174,120.959164 119.500225,120.760449 C119.779162,120.539547 120.128074,120.426007 120.483596,120.440449 L122.991461,120.440449 L122.991461,121.200899 L120.483596,121.200899 C120.370127,121.175358 120.251234,121.20407 120.161927,121.27858 C120.07262,121.353091 120.023069,121.464915 120.027865,121.581124 L120.027865,121.962247 L122.994157,121.962247 L122.994157,122.722697 L120.027865,122.722697 L120.027865,123.102921 C120.022697,123.219248 120.072145,123.331315 120.161554,123.405911 C120.250964,123.480507 120.370078,123.509074 120.483596,123.483146 L122.991461,123.483146 L122.991461,124.244494 Z M117.590112,124.244494 L116.674157,124.244494 L116.674157,123.102921 C116.678308,122.99633 116.632423,122.89392 116.550112,122.826067 C116.455583,122.752837 116.337823,122.716137 116.218427,122.722697 L114.394607,122.722697 L114.394607,124.244494 L113.483146,124.244494 L113.483146,120.440449 L116.224719,120.440449 C116.576966,120.43114 116.920628,120.549953 117.19191,120.774831 C117.014865,121.573291 117.158512,122.409345 117.59191,123.102921 L117.59191,124.244494 L117.590112,124.244494 Z M116.678652,121.581124 C116.678864,121.475184 116.629259,121.375307 116.544719,121.311461 C116.454598,121.236372 116.340179,121.196741 116.222921,121.2 L114.399101,121.2 L114.399101,121.961348 L116.224719,121.961348 C116.34208,121.964274 116.456483,121.924328 116.546517,121.848989 C116.629171,121.783834 116.676434,121.683649 116.674157,121.578427 L116.678652,121.581124 Z M112.406292,121.581124 C112.406302,121.89859 112.258009,122.197836 112.005393,122.390112 C111.733908,122.61463 111.390386,122.733394 111.038202,122.724494 L109.213483,122.724494 L109.213483,124.246292 L108.302022,124.246292 L108.302022,120.442247 L111.037303,120.442247 C111.389551,120.432938 111.733212,120.55175 112.004494,120.776629 C112.257331,120.968723 112.405682,121.268086 112.405393,121.585618 L112.406292,121.581124 Z M111.493034,121.585618 C111.49318,121.4799 111.44398,121.380171 111.36,121.315955 C111.26944,121.241023 111.154805,121.201428 111.037303,121.204494 L109.213483,121.204494 L109.213483,121.965843 L111.037303,121.965843 C111.154919,121.968658 111.269568,121.928738 111.36,121.853483 C111.445738,121.788314 111.495174,121.6861 111.493034,121.578427 L111.493034,121.585618 Z M106.998652,124.248989 L106.087191,124.248989 L106.087191,121.585618 C106.091987,121.469409 106.042436,121.357585 105.953129,121.283074 C105.863822,121.208564 105.74493,121.179852 105.631461,121.205393 L104.491685,121.205393 C104.378217,121.179852 104.259324,121.208564 104.170017,121.283074 C104.08071,121.357585 104.031159,121.469409 104.035955,121.585618 L104.035955,124.248989 L103.123596,124.248989 L103.123596,121.585618 C103.128392,121.469409 103.078841,121.357585 102.989534,121.283074 C102.900227,121.208564 102.781334,121.179852 102.667865,121.205393 L101.52809,121.205393 C101.414621,121.179852 101.295728,121.208564 101.206421,121.283074 C101.117114,121.357585 101.067563,121.469409 101.07236,121.585618 L101.07236,124.248989 L100.16,124.248989 L100.16,120.444944 L101.07236,120.444944 L101.07236,120.498876 C101.221475,120.462235 101.37454,120.444121 101.52809,120.444944 L102.667865,120.444944 C102.990676,120.43561 103.30796,120.530134 103.573034,120.714607 C103.843192,120.530176 104.164705,120.435799 104.491685,120.444944 L105.631461,120.444944 C105.986235,120.431166 106.334087,120.545733 106.611236,120.76764 C106.860981,120.964874 107.004281,121.267432 106.998652,121.585618 L106.998652,124.248989 Z M98.8566292,123.107416 C98.8666311,123.426606 98.7269902,123.732154 98.4791011,123.933483 C98.1978862,124.153582 97.8470607,124.265527 97.4903371,124.248989 L96.1222472,124.248989 C95.7665685,124.2635 95.4175351,124.149601 95.1388764,123.92809 C94.8899392,123.729369 94.7479937,123.425865 94.7550562,123.107416 L94.7550562,121.585618 C94.7539124,121.268713 94.9008757,120.969466 95.1523596,120.776629 C95.4247711,120.552173 95.7694368,120.434304 96.1222472,120.444944 L97.4903371,120.444944 C97.8445807,120.432256 98.1915106,120.547793 98.4674157,120.770337 C98.7174122,120.966443 98.861664,121.267909 98.8575281,121.585618 L98.8575281,123.107416 L98.8566292,123.107416 Z M97.9451685,123.107416 L97.9451685,121.585618 C97.9493189,121.479027 97.9034338,121.376617 97.8211236,121.308764 C97.7265562,121.235606 97.6088244,121.198915 97.4894382,121.205393 L96.1213483,121.205393 C96.003284,121.200994 95.8876436,121.239647 95.7959551,121.314157 C95.7130982,121.379014 95.6649652,121.4786 95.665618,121.58382 L95.665618,123.105618 C95.6604499,123.221945 95.7098977,123.334012 95.7993071,123.408608 C95.8887164,123.483204 96.0078304,123.511771 96.1213483,123.485843 L97.4894382,123.485843 C97.6037919,123.511754 97.7236741,123.482391 97.8131093,123.406566 C97.9025445,123.33074 97.951124,123.217277 97.9442697,123.100225 L97.9451685,123.107416 Z M93.8948315,124.248989 L91.1586517,124.248989 C90.8037759,124.262432 90.4559391,124.14755 90.1788764,123.925393 C89.9293539,123.727982 89.7861103,123.425542 89.7914607,123.107416 L89.7914607,121.585618 C89.7845376,121.267198 89.9264556,120.963753 90.1752809,120.764944 C90.4542949,120.544184 90.8031523,120.430662 91.1586517,120.444944 L93.8948315,120.444944 L93.8948315,121.205393 L91.1586517,121.205393 C91.0451828,121.179852 90.9262899,121.208564 90.836983,121.283074 C90.7476761,121.357585 90.6981252,121.469409 90.7029213,121.585618 L90.7029213,123.107416 C90.6977532,123.223742 90.7472011,123.33581 90.8366104,123.410406 C90.9260198,123.485002 91.0451338,123.513569 91.1586517,123.48764 L93.8948315,123.48764 L93.8948315,124.248989 Z"></path>
            </g>
        </g>
    </g>
</svg>