<?xml version="1.0" encoding="UTF-8"?>
<svg width="268px" height="51px" viewBox="0 0 268 51" version="1.1" xmlns="http://www.w3.org/2000/svg" xmlns:xlink="http://www.w3.org/1999/xlink">
    <!-- Generator: sketchtool 48.2 (47327) - http://www.bohemiancoding.com/sketch -->
    <title>49E458CB-9126-4388-AC97-8341CFDFBB98</title>
    <desc>Created with sketchtool.</desc>
    <defs>
        <ellipse id="path-1" cx="72" cy="17" rx="72" ry="17"></ellipse>
        <radialGradient cx="48.6714691%" cy="88.3329504%" fx="48.6714691%" fy="88.3329504%" r="75.5658318%" gradientTransform="translate(0.486715,0.883330),scale(0.236111,1.000000),rotate(90.000000),scale(1.000000,3.558296),translate(-0.486715,-0.883330)" id="radialGradient-3">
            <stop stop-color="#232323" offset="0%"></stop>
            <stop stop-color="#909090" offset="100%"></stop>
        </radialGradient>
        <linearGradient x1="50%" y1="0%" x2="50%" y2="100%" id="linearGradient-4">
            <stop stop-color="#000000" stop-opacity="0" offset="0%"></stop>
            <stop stop-color="#000000" offset="100%"></stop>
        </linearGradient>
        <ellipse id="path-5" cx="72" cy="17" rx="72" ry="17"></ellipse>
        <path d="M2.06756487e-13,18.9996042 C2.06756487e-13,18.6502174 1.37837658e-13,17.9836827 0,17 C22.9473215,7.03967549 46.9473215,2.03967549 72,2 L72,35.9992084 C32.1894846,35.9361611 2.06756487e-13,28.3493335 2.06756487e-13,18.9996042 Z" id="path-6"></path>
        <filter x="-11.1%" y="-17.6%" width="122.2%" height="170.6%" filterUnits="objectBoundingBox" id="filter-7">
            <feOffset dx="0" dy="10" in="SourceAlpha" result="shadowOffsetOuter1"></feOffset>
            <feGaussianBlur stdDeviation="1" in="shadowOffsetOuter1" result="shadowBlurOuter1"></feGaussianBlur>
            <feColorMatrix values="0 0 0 0 0   0 0 0 0 0   0 0 0 0 0  0 0 0 0.3 0" type="matrix" in="shadowBlurOuter1"></feColorMatrix>
        </filter>
        <path d="M72,33.9992084 C32.1894846,33.9361611 0,26.3493335 0,16.9996042 C0,7.64987489 32.1894846,0.0630472207 72,0 L72,33.9992084 Z" id="path-8"></path>
        <path d="M2.33188469e-13,18.9996042 C2.33188469e-13,18.4897962 1.55458979e-13,17.8232615 0,17 C23.6303843,7.03859374 47.6303843,2.03859374 72,2 L72,35.9992084 C32.1894846,35.9361611 2.33188469e-13,28.3493335 2.33188469e-13,18.9996042 Z" id="path-9"></path>
        <filter x="-11.1%" y="-17.6%" width="122.2%" height="170.6%" filterUnits="objectBoundingBox" id="filter-10">
            <feOffset dx="0" dy="10" in="SourceAlpha" result="shadowOffsetOuter1"></feOffset>
            <feGaussianBlur stdDeviation="1" in="shadowOffsetOuter1" result="shadowBlurOuter1"></feGaussianBlur>
            <feColorMatrix values="0 0 0 0 0   0 0 0 0 0   0 0 0 0 0  0 0 0 0.3 0" type="matrix" in="shadowBlurOuter1"></feColorMatrix>
        </filter>
        <path d="M0,16.9996042 C0,7.64987489 32.1894846,0.0630472207 72,0 L72,33.9992084 C32.1894846,33.9361611 0,26.3493335 0,16.9996042 Z" id="path-11"></path>
    </defs>
    <g id="Palette" stroke="none" stroke-width="1" fill="none" fill-rule="evenodd" transform="translate(-948.000000, -595.000000)">
        <g id="Group-3-Copy" transform="translate(882.000000, 373.000000)">
            <g id="Luk/open" transform="translate(128.000000, 239.000000)">
                <g id="Luk" transform="translate(-60.000000, -17.000000)">
                    <g id="Oval" transform="translate(60.000000, 17.000000)">
                        <mask id="mask-2" fill="white">
                            <use xlink:href="#path-1"></use>
                        </mask>
                        <use id="Mask" fill="#FFFFFF" xlink:href="#path-1"></use>
                        <g mask="url(#mask-2)">
                            <use fill="url(#radialGradient-3)" xlink:href="#path-5"></use>
                            <use fill-opacity="0.5" fill="url(#linearGradient-4)" xlink:href="#path-5"></use>
                        </g>
                        <path d="M72,35 C101.284672,35 120.954199,32.4160393 132.494423,27.8836663 C140.733365,24.6478573 144,20.8238345 144,17 C144,8.58704951 111.25006,1 72,1 C32.7499398,1 -4.54969395e-13,8.58704951 -4.54969395e-13,17 C-4.54969395e-13,21.2166534 3.17772141,25.0058594 11.4973504,28.1889183 C22.8920042,32.5484701 42.5245704,35 72,35 Z" stroke="#C8C8C8" stroke-width="2" mask="url(#mask-2)"></path>
                    </g>
                    <g class="cover" id="Cover-L">
                        <g class="cover__shadow" id="Combined-Shape">
                            <use fill="black" fill-opacity="1" filter="url(#filter-7)" xlink:href="#path-6"></use>
                            <use fill="#C8C8C8" fill-rule="evenodd" xlink:href="#path-6"></use>
                        </g>
                        <g class="cover__material" id="Combined-Shape">
                            <use fill="#FFFFFF" fill-rule="evenodd" xlink:href="#path-8"></use>
                            <path stroke="#EAEAEA" stroke-width="1" d="M71.5,33.4980132 L71.5,0.501195158 C32.2490984,0.626494432 0.5,8.15600654 0.5,16.9996042 C0.5,25.8432018 32.2490984,33.3727139 71.5,33.4980132 Z"></path>
                        </g>
                    </g>
                    <g class="cover" id="Cover-R" transform="translate(192.000000, 0.000000)">
                        <g class="cover__shadow" id="Combined-Shape" transform="translate(36.000000, 18.999604) scale(-1, 1) translate(-36.000000, -18.999604) ">
                            <use fill="black" fill-opacity="1" filter="url(#filter-10)" xlink:href="#path-9"></use>
                            <use fill="#C8C8C8" fill-rule="evenodd" xlink:href="#path-9"></use>
                        </g>
                        <g class="cover__material" id="Combined-Shape" transform="translate(36.000000, 16.999604) scale(-1, 1) translate(-36.000000, -16.999604) ">
                            <use fill="#FFFFFF" fill-rule="evenodd" xlink:href="#path-11"></use>
                            <path stroke="#EAEAEA" stroke-width="1" d="M71.5,33.4980132 L71.5,0.501195158 C32.2490984,0.626494432 0.5,8.15600654 0.5,16.9996042 C0.5,25.8432018 32.2490984,33.3727139 71.5,33.4980132 Z"></path>
                        </g>
                    </g>
                </g>
            </g>
        </g>
    </g>
</svg>